<?xml version="1.0" standalone="no"?>
<!DOCTYPE svg PUBLIC "-//W3C//DTD SVG 1.1//EN" "http://www.w3.org/Graphics/SVG/1.1/DTD/svg11.dtd" >
<svg xmlns="http://www.w3.org/2000/svg">
<metadata>
Created by FontPrep 20130207 at Thu Jul 31 22:03:53 2014
 By John Friel
Copyright (c) 1991-99, 2006 Apple Computer, Inc. Copyright (c) 1991-92 Type Solutions, Inc. All rights reserved.
</metadata>
<defs>
<font id="4e073635e17702a480df7649696158d9" horiz-adv-x='1024' >
  <font-face 
    font-family="Palatino-Roman"
    font-weight="400"
    font-stretch="normal"
    units-per-em="2048"
    panose-1="0 0 0 0 0 0 0 0 0 0"
    ascent="1638"
    descent="-410"
    x-height="934"
    cap-height="1413"
    bbox="-956 -987.019 3495 2403"
    underline-thickness="120"
    underline-position="-148"
    unicode-range="U+0008-FFFC"
  />
<missing-glyph horiz-adv-x="1536" 
d="M288 32h960v1216h-960v-1216zM256 0v1280h1024v-1280h-1024z" />
    <glyph glyph-name="fi" unicode="fi" horiz-adv-x="1239" 
d="M946 1408q46 0 79.5 -33t33.5 -79t-33.5 -79.5t-79.5 -33.5t-79 33.5t-33 79.5t33 79t79 33zM216 1019q0 95 17.5 138.5t124.5 159.5t155 143.5t107 27.5t101 -16v-162l-29 -10q-60 54 -128 54t-106.5 -27.5t-55 -81.5t-16.5 -156v-199q173 -1 335 4t290 70l22 -16
q-9 -213 -9 -326v-182l3 -139q3 -188 13 -211t28 -27q17 -4 121 -6v-57q-151 7 -237 7t-268 -7v57l95 1q38 2 50 23q11 21 13 53t7 306v176q0 154 -7 176t-21.5 29.5t-78.5 11t-121 -3.5l-2 -34q-119 4 -233 0v-355q0 -12 3 -138l3 -141q3 -71 18 -84q16 -13 29 -15t126 -5
v-57q-197 7 -255 7t-268 -7v57l101 1q41 2 52 22t13 52t8 308v351q-85 -2 -142 -5v44q91 37 142 67v122z" />
    <glyph glyph-name="fl" unicode="fl" horiz-adv-x="1245" 
d="M216 969q0 166 34 221q18 29 90 108t133 135t146 56q35 0 101 -20v-48q131 6 302 67l24 -14q-17 -166 -17 -439v-595l3 -139q3 -188 13 -211t28 -27q17 -4 121 -6v-57q-148 7 -238 7t-271 -7v57l101 1q42 2 53 22q12 20 14 52t7 308v668q0 182 -6 206t-19.5 31.5
t-114.5 9.5v-45l-29 -14q-63 56 -124 56q-60 0 -112 -28.5t-64 -142.5q-4 -33 -4 -121v-171q186 0 284 10l9 -10l-20 -99q-54 4 -273 6v-356q0 -12 3 -138l4 -141q1 -49 11 -72t30 -26q19 -4 133 -6v-57q-170 7 -248 7t-277 -7v57l100 1q41 2 52 22t13 52t8 308v350
q-75 -1 -141 -5v42q106 49 141 72v70z" />
    <glyph glyph-name=".notdef" horiz-adv-x="1536" 
d="M288 32h960v1216h-960v-1216zM256 0v1280h1024v-1280h-1024z" />
    <glyph glyph-name="uni0000" horiz-adv-x="0" 
 />
    <glyph glyph-name="uni0000" horiz-adv-x="0" 
 />
    <glyph glyph-name="uni0000" horiz-adv-x="0" 
 />
    <glyph glyph-name="nonmarkingreturn" unicode="&#x9;" horiz-adv-x="512" 
 />
    <glyph glyph-name="nonmarkingreturn" unicode="&#xd;" horiz-adv-x="512" 
 />
    <glyph glyph-name="nonmarkingreturn" unicode="&#xa;" horiz-adv-x="512" 
 />
    <glyph glyph-name="space" unicode=" " horiz-adv-x="512" 
 />
    <glyph glyph-name="exclam" unicode="!" horiz-adv-x="569" 
d="M261 229q50 0 84.5 -34.5t34.5 -84.5t-35 -85t-85 -35t-84.5 35t-34.5 85t35 84.5t85 34.5zM379 1436v-106l-53 -569l-25 -315l-55 -50l-19 10q-8 202 -40 528t-31 422q85 40 156 80h67z" />
    <glyph glyph-name="quotedbl" unicode="&#x22;" horiz-adv-x="760" 
d="M475 1388q0 22 25 42.5t65 20.5t65 -20.5t25 -42.5t-9 -73l-60 -355h-42l-61 355q-8 51 -8 73zM104 1388q0 22 25 42.5t65 20.5t65 -20.5t25 -42.5t-8 -73l-61 -355h-42l-60 355q-9 51 -9 73z" />
    <glyph glyph-name="numbersign" unicode="#" horiz-adv-x="1241" 
d="M442 936l-67 -427h279l65 427h-277zM356 378l-60 -378h-81l60 378h-164l23 131h162l66 427h-165l23 131h163l55 354h82l-57 -354h277l56 354h81l-57 -354h183l-23 -131h-181l-66 -427h184l-22 -131h-183l-58 -378h-81l60 378h-277z" />
    <glyph glyph-name="dollar" unicode="$" 
d="M797 361q0 120 -76 179q-55 42 -190 65v-551q73 2 135 40t96.5 111t34.5 156zM214 1026q0 -131 66 -184.5t167 -59.5v513q-92 -10 -147 -60q-86 -78 -86 -209zM57 939q0 172 99 285t291 144q-1 95 -4 135h92q-3 -26 -4 -131q240 -22 333 -82l5 -13q-12 -44 -17 -86
l-13 -162h-56q-3 97 -17 173q-85 91 -235 97v-528q184 -23 305.5 -73.5t121.5 -257.5q0 -115 -51 -216.5t-139 -159t-237 -87.5q2 -143 6 -207h-94q2 27 4 203q-121 4 -207.5 23t-182.5 61q17 116 30 304h62l2 -129q1 -24 3 -58q73 -70 140 -98t153 -27v566q-153 20 -223 47
t-118.5 94t-48.5 183z" />
    <glyph glyph-name="percent" unicode="%" horiz-adv-x="1720" 
d="M665 1230q0 70 -35.5 123.5t-101.5 53.5t-124 -52.5t-101 -162t-55 -165t-12 -127.5t35 -117.5t99 -45.5t114 44t93.5 130t65.5 167.5t22 151.5zM1029 168q0 -195 130 -195q66 0 124.5 58.5t119 186t60.5 224.5q0 187 -139 187q-72 0 -128.5 -60t-111.5 -180
q-55 -121 -55 -221zM1286 1505h15q21 0 38 4q-35 -41 -316.5 -509t-744.5 -1260h-88l971 1611q-53 -60 -121 -95t-134 -35t-120.5 19t-79.5 47q22 -45 22 -115t-21.5 -140.5t-70 -152.5t-124.5 -130t-173 -48t-165.5 70.5t-68.5 199.5q0 173 119.5 320.5t286.5 147.5
q54 0 102.5 -24.5t75.5 -69.5q26 -30 84 -50.5t137 -20.5t177 72t158 167q27 -8 41 -8zM904 199q0 179 122.5 327t283.5 148q103 0 167 -71t64 -160t-20 -166.5t-67 -152t-126.5 -130.5t-185.5 -56t-172 71.5t-66 189.5z" />
    <glyph glyph-name="ampersand" unicode="&#x26;" horiz-adv-x="1593" 
d="M268 440q0 -88 47 -174t126.5 -132.5t167.5 -46.5q127 0 250 93q-134 144 -221 249t-199 301q-91 -66 -131 -134t-40 -156zM730 1171q0 61 -33 98.5t-73 37.5t-87 -27t-47 -133q0 -107 52 -257q91 65 139.5 142.5t48.5 138.5zM1266 -28q-62 0 -124 26q-107 40 -218 131
q-128 -94 -216 -126t-211 -32t-216.5 55.5t-141 152t-47.5 192.5q0 140 79 245.5t235 191.5q-60 144 -60 265q0 59 20 107t32 61t86 77t111 82t105 17q68 0 117 -49.5t49 -141.5t-68.5 -196t-222.5 -208q70 -137 190.5 -287.5t223.5 -233.5q102 115 102 247t-64 145
q-18 5 -159 7l-9 13l65 95q66 -9 146 -9q80 1 198 5q117 4 247 4q-17 -74 -23 -140q-138 23 -287 20q12 -46 12 -112q0 -149 -167 -322q182 -131 359 -131q27 0 46.5 6.5t69.5 34.5l13 -52q-88 -63 -174 -133q-36 -7 -98 -7z" />
    <glyph glyph-name="quotesingle" unicode="'" horiz-adv-x="426" 
d="M123 1388q0 22 25 42.5t65 20.5t65 -20.5t25 -42.5t-8 -73l-61 -355h-42l-60 355q-9 51 -9 73z" />
    <glyph glyph-name="parenleft" unicode="(" horiz-adv-x="682" 
d="M296 625q0 -296 73.5 -505t243.5 -416l-49 -44q-213 180 -328 428t-115 554q0 428 186.5 653.5t265.5 282.5l40 -51q-160 -173 -238.5 -389.5t-78.5 -512.5z" />
    <glyph glyph-name="parenright" unicode=")" horiz-adv-x="682" 
d="M438 614q0 296 -73.5 505t-243.5 416l49 43q213 -180 328 -428t115 -542q0 -441 -186.5 -665.5t-264.5 -282.5l-41 51q160 173 238.5 390t78.5 513z" />
    <glyph glyph-name="asterisk" unicode="*" horiz-adv-x="797" 
d="M422 1127l-125 -242l-33 -4l-78 55l-6 34l191 193l-269 44l-16 33l29 90l32 17l243 -123l-44 267l25 24h96l24 -24l-42 -268l243 122l30 -17l30 -90l-15 -31l-267 -45l193 -194l-7 -34l-77 -55l-34 5z" />
    <glyph glyph-name="plus" unicode="+" horiz-adv-x="1241" 
d="M669 640h473v-91h-473v-473h-92v473h-473v91h473v473h92v-473z" />
    <glyph glyph-name="comma" unicode="," horiz-adv-x="512" 
d="M-14 -280q124 206 158 333q9 34 24 148l108 27q22 7 96 33l26 -28q-124 -289 -302 -499l-85 -39z" />
    <glyph glyph-name="hyphen" unicode="-" horiz-adv-x="682" 
d="M45 438v14l45 134h535v-15l-48 -133h-532z" />
    <glyph glyph-name="period" unicode="." horiz-adv-x="512" 
d="M256 229q50 0 84.5 -34.5t34.5 -84.5t-34.5 -85t-84.5 -35t-85 35t-35 85t35 84.5t85 34.5z" />
    <glyph glyph-name="slash" unicode="/" horiz-adv-x="1241" 
d="M277 -238l579 1835h105l-577 -1835h-107z" />
    <glyph glyph-name="zero" unicode="0" 
d="M516 38q114 0 175 95q88 136 88 526t-80 555q-63 130 -203 130q-74 0 -168 -76t-94 -504t79 -594q28 -58 82 -95t121 -37zM62 619q0 285 41 440t149 256t274 101q84 0 215.5 -52.5t178.5 -282.5q30 -146 30 -344q0 -197 -28 -323q-98 -446 -437 -446q-207 0 -320 180
q-55 88 -79 220t-24 251z" />
    <glyph glyph-name="one" unicode="1" 
d="M443 919q-1 241 -1 291t-18 49q-8 0 -112 -46t-159 -74l-18 5l-10 82l10 10q107 32 263 98t209 93l26 -10q-16 -458 -16 -526v-371q0 -222 4 -312t17.5 -108t40 -25.5t173.5 -13.5v-61q-253 8 -309 8t-347 -8v61q152 9 185 16.5t41 42.5q9 34 15 181.5t6 223.5v394z" />
    <glyph glyph-name="two" unicode="2" 
d="M494 10q-277 0 -460 -10v56q31 39 112 122l223 232q27 28 115 128t151 205t63 221q0 117 -58 193q-75 101 -218 101q-80 0 -140 -26t-80.5 -57.5t-60.5 -180.5h-60q24 134 34 276q63 60 131 101.5t206 41.5q139 0 229 -44.5t144 -132.5t54 -204t-61.5 -232t-255.5 -309
l-171 -170q-93 -93 -141 -148h439q132 0 259 13l7 -8q-6 -38 -6 -86t6 -81l-7 -11q-177 10 -454 10z" />
    <glyph glyph-name="three" unicode="3" 
d="M855 1115q0 -180 -224 -340q113 -15 178.5 -51.5t100.5 -103t35 -166.5t-75 -215.5t-211 -190.5t-278 -75t-277 58q-18 111 -70 296l55 21q63 -168 144 -227.5t195 -59.5t179.5 38t106.5 120.5t41 204.5t-71 196.5t-191 74.5q-70 0 -177 -44l-12 10l22 109q80 -5 107 -5
q122 0 188.5 85.5t66.5 187.5t-70.5 170.5t-189.5 68.5t-220 -96q-18 -38 -57 -143h-62l62 240q67 70 145 106t193 36q169 0 267.5 -89t98.5 -216z" />
    <glyph glyph-name="four" unicode="4" 
d="M144 500h427l9 711q-109 -157 -246.5 -384t-189.5 -327zM745 707v-207q136 1 223 7q-3 -50 -3 -66l3 -74q-102 6 -172 6h-51v-67q1 -168 11 -194t28 -35q38 -17 184 -18v-59q-216 8 -336 8t-311 -8v59q156 3 183.5 9t39.5 20q28 32 27 211v74h-219q-181 0 -323 -6l-17 54
q175 330 581 944q63 29 141 57l25 -12q-14 -240 -14 -703z" />
    <glyph glyph-name="five" unicode="5" 
d="M171 1179q0 58 -8 210l13 10q162 -12 328 -12t378 12l5 -10q-7 -51 -7 -81t2 -80l-10 -6q-138 9 -328 9t-281 -3q-15 -138 -20 -416q80 58 144 80.5t161 22.5t193.5 -49.5t148.5 -142.5t52 -204q0 -173 -118 -322q-178 -226 -478 -226q-114 0 -214 51q-23 68 -37 104
l-66 163l49 29q90 -164 111 -183.5t94 -45.5t161 -26t205 65t117 304q0 174 -94.5 258t-223.5 84q-76 0 -130 -26t-120 -97l-41 12l12 247q2 56 2 91v178z" />
    <glyph glyph-name="six" unicode="6" 
d="M252 446q0 -88 14 -150q29 -122 90 -190t165 -68q156 0 208.5 122t52.5 229t-35.5 185.5t-98 115.5t-141.5 37q-79 -1 -151 -51t-88 -96t-16 -134zM591 846q174 0 269 -99t95 -287q1 -128 -47 -224t-143.5 -180.5t-274.5 -84.5q-180 0 -300 138.5t-120 403.5
q0 182 56.5 336t154.5 265t233.5 194.5t276.5 117.5l73 -35v-12q-111 -25 -232 -99t-198 -168.5t-114.5 -194t-48.5 -228.5q58 41 108 79t86.5 58t125.5 20z" />
    <glyph glyph-name="seven" unicode="7" 
d="M518 1388q176 0 496 14v-60l-144 -255q-304 -548 -405 -764q-102 -216 -142 -323q-57 5 -97 5t-91 -5l-21 21q100 149 370 587q269 438 360 612l-10 10h-310q-276 0 -315 -16q-14 -5 -27 -25l-29 -218h-59l5 263q0 65 -5 164l20 10q228 -20 404 -20z" />
    <glyph glyph-name="eight" unicode="8" 
d="M207 356q0 -100 35 -170t103.5 -107t148.5 -37t150.5 38t107 107.5t36.5 149.5t-31 131t-106.5 97t-233.5 116q-114 -70 -162 -147.5t-48 -177.5zM752 1086q0 80 -44.5 168t-199.5 88q-112 0 -178.5 -62.5t-66.5 -162.5t59 -156t247 -148q102 65 142.5 129t40.5 144z
M110 1040q0 155 115 262.5t303 107.5q108 0 192.5 -37t127.5 -105t43 -138q0 -138 -112 -245q-45 -42 -133 -97v-9q126 -59 180 -99q122 -89 122 -255q0 -112 -63.5 -221.5t-178 -170t-236.5 -60.5t-215 46.5t-142 129t-49 193.5t72 209t200 157v9q-123 65 -174.5 143.5
t-51.5 179.5z" />
    <glyph glyph-name="nine" unicode="9" 
d="M225 999q0 -85 29.5 -169.5t93.5 -130t165 -45.5t173.5 79t72.5 237t-68.5 266t-190.5 108t-198.5 -86.5t-76.5 -258.5zM418 530q-160 0 -263 108t-103 309t129 333.5t325 132.5q125 0 280.5 -96.5t155.5 -450.5q0 -232 -85 -406q-103 -212 -305 -349
q-169 -115 -353 -143l-66 32v19q385 92 536 390q64 126 80 294q-45 -31 -93 -75t-73 -58q-64 -40 -165 -40z" />
    <glyph glyph-name="colon" unicode=":" horiz-adv-x="512" 
d="M256 229q50 0 84.5 -34.5t34.5 -84.5t-34.5 -85t-84.5 -35t-85 35t-35 85t35 84.5t85 34.5zM256 936q50 0 84.5 -35t34.5 -85t-34.5 -84.5t-84.5 -34.5t-85 34.5t-35 84.5t35 85t85 35z" />
    <glyph glyph-name="semicolon" unicode=";" horiz-adv-x="512" 
d="M21 -282q125 206 153 316q14 52 29 166l108 27q22 6 96 33l26 -28q-124 -290 -302 -499l-85 -39zM292 936q50 0 84.5 -35t34.5 -85t-34.5 -84.5t-84.5 -34.5t-85 34.5t-35 84.5t35 85t85 35z" />
    <glyph glyph-name="less" unicode="&#x3c;" horiz-adv-x="1241" 
d="M40 490v81l1101 461l46 -77l-1001 -422l1022 -397l-74 -79z" />
    <glyph glyph-name="equal" unicode="=" horiz-adv-x="1241" 
d="M1170 393v-91h-1094v91h1094zM1170 736v-91h-1094v91h1094z" />
    <glyph glyph-name="greater" unicode="&#x3e;" horiz-adv-x="1241" 
d="M1203 599v-81l-1101 -461l-49 77l1006 425l-1027 394l77 79z" />
    <glyph glyph-name="question" unicode="?" horiz-adv-x="909" 
d="M405 229q50 0 85 -34.5t35 -84.5t-34.5 -85t-84.5 -35t-85.5 35t-35.5 85t35 84.5t85 34.5zM390 483q0 -43 46 -98l-42 -32q-90 62 -90 158q0 52 26.5 104t127 164t130.5 174t30 117q0 95 -70 162t-180 67q-66 0 -128 -27q-36 -38 -91 -160l-53 6l-7 10l78 237
q123 75 246 75q122 0 211 -41.5t135.5 -118t46.5 -154.5t-25.5 -140.5t-71 -114.5t-152.5 -148.5t-137 -146.5t-30 -93z" />
    <glyph glyph-name="at" unicode="@" horiz-adv-x="1530" 
d="M830 1092q-66 0 -134 -73t-106.5 -184t-38.5 -228t34.5 -163.5t108.5 -46.5t130.5 94.5t95.5 242.5t39 212t-31.5 105t-97.5 41zM1016 483q0 -100 97 -100q48 0 115.5 59t117.5 172.5t50 264.5q0 241 -144 367.5t-389 126.5q-184 0 -341.5 -79.5t-255.5 -249.5t-98 -428
t161.5 -414t407.5 -156q204 0 327 69t206 133l-13 -63q-92 -64 -208.5 -130.5t-319.5 -66.5q-281 0 -481.5 165.5t-200.5 467.5q0 266 113 447.5t298 269.5t400 88q299 0 463 -158t164 -384t-134 -395t-285 -169q-76 0 -123 45t-47 156q-16 -25 -48 -71t-89 -84t-131 -38
q-231 0 -231 306q0 99 47 218.5t140.5 205t229.5 85.5t179 -106l14 81l140 28l-104 -496q-27 -127 -27 -167z" />
    <glyph glyph-name="A" unicode="A" horiz-adv-x="1593" 
d="M500 561h505l-250 603zM1182 117q0 18 -14 53l-123 306h-579l-109 -257q-29 -69 -29 -101t40 -40q40 -9 132 -10v-68q-170 9 -260 9t-205 -9v68q79 1 98.5 6.5t36 21t40.5 66.5t137 295l250 564q41 93 175 414h65l427 -1003q104 -244 130 -292t49 -59.5t102 -12.5v-68
q-156 10 -218 10l-322 -10v68q112 2 136 7t32.5 14.5t8.5 27.5z" />
    <glyph glyph-name="B" unicode="B" horiz-adv-x="1251" 
d="M580 85q108 0 189 40.5t124.5 122.5t43.5 188t-41 177t-122.5 105.5t-268.5 34.5q-43 0 -110 -4v-379q0 -55 3 -267q74 -18 182 -18zM536 828q173 0 257 70.5t84 201.5q0 130 -79.5 185.5t-232.5 55.5q-85 0 -161 -15q-9 -83 -9 -257v-238q57 -3 141 -3zM1079 1154
q0 -266 -339 -351q117 -11 189 -32.5t145.5 -86t73.5 -214.5q0 -151 -127 -310.5t-442 -159.5l-290 8q-47 0 -179 -8v47q62 31 78.5 48.5t16.5 292.5v603q0 293 -20 333q-7 13 -31 23t-127 11v63q33 -2 83 -2l208 -5l368 9q146 0 225 -30t123.5 -97.5t44.5 -141.5z" />
    <glyph glyph-name="C" unicode="C" horiz-adv-x="1452" 
d="M965 78q244 0 413 120l17 -21l-39 -93q-222 -112 -473 -112q-314 0 -563 181.5t-249 558.5q0 319 222.5 528.5t607.5 209.5q167 0 318 -40t176 -45q-45 -112 -55 -305h-63l-1 118q-20 194 -397 194q-142 -2 -241 -36.5t-222 -156t-124 -426.5q-1 -306 184 -490.5
t489 -184.5z" />
    <glyph glyph-name="D" unicode="D" horiz-adv-x="1585" 
d="M634 90q124 0 220.5 22t165 62t132.5 118t98.5 199.5t34.5 279.5t-66.5 291.5t-200.5 204.5t-368 71q-123 0 -250 -19q-3 -49 -5 -174l-4 -145v-399l3 -310q1 -71 6 -182q110 -19 234 -19zM204 583v408q0 293 -20 333q-6 13 -30 23t-128 11v63q146 -6 258 -6l465 8
q245 0 394 -62.5t253 -209.5t104 -359q0 -302 -167.5 -500.5t-334.5 -245t-351 -46.5l-343 8q-61 0 -214 -8v48q58 33 97 60q17 193 17 475z" />
    <glyph glyph-name="E" unicode="E" horiz-adv-x="1251" 
d="M249 431v511q0 352 -14.5 374t-40 30.5t-144.5 10.5v64l285 -6l302 5q217 3 315 3t187 -11q-16 -56 -20 -82t-20 -225h-63q1 102 -13 186q-108 45 -345 45q-94 0 -226 -11q-4 -111 -6 -208l-4 -338q118 -6 226 -6q108 -1 166 7t67 20t16 82l6 70h60v-19l-5 -208l5 -233
h-70l-3 68q-2 74 -14 92t-56 28t-160 9q-116 0 -238 -5q-5 -100 -5 -291t5 -287q144 -11 297 -11t207 8t100 27q32 82 53 218h66q-26 -202 -26 -335q-86 -13 -209 -13l-597 8q-13 0 -262 -8v63q105 1 129 11t31 28q18 38 18 329z" />
    <glyph glyph-name="F" unicode="F" horiz-adv-x="1139" 
d="M702 1334q-153 0 -261 -12q-8 -71 -13 -330v-222q112 -3 218 -3t160 9q52 9 60.5 20.5t18.5 84.5l8 62h63l-7 -228l7 -245h-63l-7 64q-12 109 -18 120t-50 21t-179 10q-136 0 -211 -4v-202q0 -351 14.5 -373.5t40.5 -31t144 -10.5v-64q-127 8 -247 8t-336 -8v64
q118 2 144 10t37 26t13 67t5 312v463q0 352 -14.5 374t-40 30.5t-144.5 10.5v64q152 -6 258 -6l531 8q157 0 243 -7q-25 -85 -32 -303h-63q-9 121 -25 186q-101 35 -254 35z" />
    <glyph glyph-name="G" unicode="G" horiz-adv-x="1563" 
d="M891 1383q-190 0 -329 -81t-210.5 -232t-71.5 -339t83.5 -345.5t224 -241t328.5 -83.5t309 64q9 40 9 128v111q0 88 -9 103t-48.5 22.5t-181.5 11.5v61l312 -7q91 0 186 7l6 -48l-75 -44q-12 -107 -12 -197t12 -195q-296 -107 -550 -107t-434 90.5t-278 253.5t-98 371
t70.5 345t176 225t210.5 130q161 64 371 63t537 -92q-26 -88 -44 -301h-61l-5 114q-2 56 -15 83q-27 36 -86 65q-102 39 -168.5 52t-158.5 13z" />
    <glyph glyph-name="H" unicode="H" horiz-adv-x="1704" 
d="M885 796q250 0 380 7v139q0 350 -15 373t-40.5 31.5t-144.5 10.5v64q215 -6 270 -6t317 6v-64q-118 -2 -144 -10.5t-37 -26.5t-13 -66t-5 -312v-463q0 -351 14.5 -373.5t40.5 -31t144 -10.5v-64q-193 8 -320 8t-267 -8v64q119 2 144 10t37 26t14 67t5 312v228
q-279 6 -431 6t-396 -6v-228q0 -351 14.5 -373.5t40 -31t144.5 -10.5v-64q-135 9 -285 9t-303 -9v64q118 2 144 10t37 26t13 67t5 312v463q0 352 -14.5 374t-40 30.5t-144.5 10.5v64l306 -6l282 6v-64q-119 -2 -144.5 -10.5t-36.5 -26.5t-13 -66t-5 -312v-139q197 -7 447 -7
z" />
    <glyph glyph-name="I" unicode="I" horiz-adv-x="690" 
d="M246 942q0 352 -14.5 374t-40 30.5t-144.5 10.5v64q191 -7 293 -7t296 7v-64q-119 -2 -144.5 -10.5t-36.5 -26.5t-13 -66t-5 -312v-463q0 -351 14.5 -373.5t40 -31t144.5 -10.5v-64q-213 8 -280 8l-309 -8v64q118 2 144 10t37 26t13 67t5 312v463z" />
    <glyph glyph-name="J" unicode="J" horiz-adv-x="682" 
d="M102 -255q55 0 84 21.5t42 67t13 239.5v869q0 352 -14.5 374t-40.5 30.5t-144 10.5v64q158 -6 300 -6t293 6v-64q-118 -2 -144 -10.5t-37 -26.5q-10 -18 -12 -66t-6 -312v-718q0 -164 -28 -259t-94.5 -180.5t-144.5 -129.5t-151 -44q-20 0 -42 5l3 69v14q0 23 -3 71
l19 13q52 -38 107 -38z" />
    <glyph glyph-name="K" unicode="K" horiz-adv-x="1487" 
d="M250 942q0 352 -14.5 374t-40 30.5t-144.5 10.5v64q195 -6 297 -6t288 6v-64q-118 -2 -144 -10.5t-37 -26.5t-13 -66t-5 -312v-206q54 29 128 101l126 122l223 223q129 129 159 166v73q119 -4 189 -4t155 4v-65q-95 0 -128 -8t-81 -42t-180 -156l-399 -365l600 -562
q145 -136 165 -148t77 -13v-62q-98 4 -133 4t-154 -4q-23 23 -167 161l-557 525l-23 -13v-194q0 -351 14.5 -373.5t40.5 -31t144 -10.5v-64l-302 8q-31 0 -283 -8v64q118 2 144 10t37 26t13 67t5 312v463z" />
    <glyph glyph-name="L" unicode="L" horiz-adv-x="1251" 
d="M236 404v538q0 352 -14.5 374t-40 30.5t-144.5 10.5v64q244 -8 305 -8t284 8v-64q-119 -2 -144.5 -10.5t-36.5 -26.5t-13 -66t-5 -312v-672q0 -105 4 -171q114 -7 226 -7q282 0 395 36q13 30 23 69l40 166h67q-22 -149 -43 -350q-67 -13 -225 -13l-592 8q-96 0 -195 -8
v52q61 29 75 42t24 45q10 33 10 265z" />
    <glyph glyph-name="M" unicode="M" horiz-adv-x="1937" 
d="M240 1417q96 0 185 4q88 -200 161 -351l379 -780l342 715q140 292 187 416q106 -4 176 -4t220 4v-64q-119 -2 -144.5 -10.5t-37.5 -26.5t-12 -66q-2 -48 -6 -312v-463q0 -349 15 -372.5t40.5 -32t144.5 -10.5v-64q-202 9 -277 9t-304 -9v64q119 2 145 10t37 26t13 67
t5 312v734l-345 -722q-122 -254 -227 -510h-39q-13 38 -24 61l-546 1138v-701q0 -349 15 -372.5t40.5 -32t144.5 -10.5v-64l-241 8l-249 -8v64q118 2 144 10t37 26t13 67t5 312v463q0 352 -14.5 374t-40 30.5t-144.5 10.5v64q106 -4 202 -4z" />
    <glyph glyph-name="N" unicode="N" horiz-adv-x="1702" 
d="M235 431v815q0 33 -6 47q-6 15 -29 35t-46.5 24.5t-104.5 5.5v63q167 -4 225 -4t130 4q85 -111 125 -164l207 -255l302 -364q255 -306 327 -378v731q0 289 -20 333q-7 13 -31 23t-127 11v63q117 -4 235 -4t211 4v-63q-103 -1 -127 -11q-24 -11 -32 -27q-18 -37 -18 -329
v-481q0 -146 5 -545l-103 30l-24 5q-25 8 -171 188l-129 163l-709 847v-767q0 -291 20 -333q7 -14 31 -24t127 -11v-63q-88 7 -199 7t-247 -7v63q105 1 129 11t31 28q18 38 18 329z" />
    <glyph glyph-name="O" unicode="O" horiz-adv-x="1610" 
d="M834 62q161 0 338.5 117t177.5 511q0 509 -232 592t-366 83t-254 -71t-180.5 -205.5t-60.5 -318.5q-1 -184 57 -326t172 -262t348 -120zM49 710q0 325 213.5 532.5t558.5 207.5q165 0 401 -81t288 -294.5t52 -318.5q0 -337 -226.5 -561t-571.5 -224q-157 0 -293 51
t-230 151.5t-143 244t-49 292.5z" />
    <glyph glyph-name="P" unicode="P" horiz-adv-x="1237" 
d="M352 1415q98 0 186 2l157 5q26 1 48 1q159 0 250 -35t142 -111.5t51 -169.5t-42.5 -180t-153 -169.5t-275.5 -82.5q-64 0 -138 14l-21 74q89 -20 152 -20t130.5 36.5t105 109.5t37.5 161t-55.5 193.5t-272.5 105.5q-95 0 -204 -34q-9 -106 -9 -332v-504
q0 -351 14.5 -373.5t40 -31t144.5 -10.5v-64q-185 8 -245 8t-340 -8v64q118 2 144 10t37 26t13 67t5 312v463q0 352 -14.5 374t-40 30.5t-144.5 10.5v64q200 -6 298 -6z" />
    <glyph glyph-name="Q" unicode="Q" horiz-adv-x="1610" 
d="M256 763q0 -98 39 -266t177 -302t356 -134q161 0 281 74t181 220.5t61 316.5t-41.5 301t-112.5 214.5t-179 130t-240 46.5q-241 0 -381.5 -151t-140.5 -450zM48 712q0 322 213 529.5t558 207.5q505 0 687 -390q56 -121 56 -318t-89.5 -369.5t-261.5 -278.5t-388 -122
q96 -16 303 -99q207 -84 327 -84q40 0 106 21v-51q-20 -15 -73 -45t-89 -63q-64 0 -143.5 21.5t-274.5 88.5t-243 67t-102 -29l-93 -54v65q164 128 260 162q-253 0 -409 83t-250 261t-94 397z" />
    <glyph glyph-name="R" unicode="R" horiz-adv-x="1368" 
d="M1176 1115q0 -87 -67.5 -211t-330.5 -182q25 -35 118 -156l252 -332q108 -138 122 -150t25 -16q12 -4 63 -4v-64q-76 6 -134 6t-144 -6q-65 74 -184 244q-191 272 -384 494l10 30q52 -3 79 -3q182 0 276 86t94 218t-81 204.5t-245 72.5q-103 0 -202 -31q-6 -86 -13 -392
v-444q0 -351 14.5 -373.5t40.5 -31t144 -10.5v-64q-141 8 -249 8t-335 -8v64q118 2 144 10t37 26t13 67t5 312v463q0 352 -14.5 374t-40 30.5t-144.5 10.5v64q39 -1 119 -3l192 -5l358 10q191 0 278.5 -34t135.5 -110.5t48 -163.5z" />
    <glyph glyph-name="S" unicode="S" horiz-adv-x="1075" 
d="M528 1375q-128 0 -214.5 -88.5t-86.5 -229.5q0 -85 30.5 -131t98.5 -70t193 -40.5t225 -35.5q94 -28 168 -91.5t74 -222.5q0 -199 -165 -347t-427 -148q-198 0 -359 78q16 96 19 311h68q5 -146 16.5 -172.5t55.5 -56.5t118 -53.5t159 -23.5t170 46.5t124 122t39 151.5
t-29 147.5t-149 95.5q-37 6 -148 20t-189 31q-104 32 -153 75t-79.5 113t-30.5 170t61.5 204t182 162t233.5 58q223 0 401 -88q-24 -109 -29 -278h-68q-3 154 -9 168q-25 36 -68 65q-104 58 -232 58z" />
    <glyph glyph-name="T" unicode="T" horiz-adv-x="1255" 
d="M43 1421q382 -14 632 -14q251 0 538 14q-12 -112 -16 -331h-64l-8 96q-10 107 -17.5 114t-19.5 10t-98.5 8t-136.5 5h-122q-10 -96 -10 -259v-585q0 -351 14.5 -373.5t40 -31t144.5 -10.5v-64q-180 8 -244 8t-337 -8v64q119 2 145 10t37 26t13 67t5 312v583q0 42 -2 92
l-6 169h-149q-220 0 -233 -20q-14 -20 -23 -112l-11 -101h-62q-1 239 -10 331z" />
    <glyph glyph-name="U" unicode="U" horiz-adv-x="1593" 
d="M334 1413q141 0 281 8v-64q-118 -2 -144 -10.5t-37 -26.5t-13 -66t-5 -312v-370q0 -215 51.5 -343.5t361.5 -128.5q112 0 229.5 37t161.5 137.5t44 359.5v308q0 352 -14.5 374t-40.5 30.5t-144 10.5v64q165 -8 237 -8t253 8v-64q-119 -2 -144.5 -10.5t-36.5 -26.5
t-13 -66t-5 -312v-335q0 -247 -35 -345t-115 -164q-157 -127 -429 -127q-154 0 -267 36.5t-172 96t-84 131.5t-25 265v442q0 352 -14.5 374t-40 30.5t-144.5 10.5v64q163 -8 304 -8z" />
    <glyph glyph-name="V" unicode="V" horiz-adv-x="1479" 
d="M286 1413q84 0 277 8v-71q-122 -2 -141.5 -5t-27 -11.5t-7 -19.5t28.5 -98t60 -168l313 -790l261 655q57 141 94 259t37 140q0 20 -23 28t-157 17v64q151 -6 228 -6t214 6v-64q-76 -3 -91 -10t-26 -25t-76 -165l-312 -768l-77 -197q-37 -90 -72 -202h-101
q-30 87 -125 336l-340 841q-54 134 -65 151t-30 25t-107 14v64q181 -8 265 -8z" />
    <glyph glyph-name="W" unicode="W" horiz-adv-x="2048" 
d="M272 1413q82 0 265 8v-60q-132 -5 -148 -13t-16 -32q1 -24 23 -145t33 -169l157 -693l247 615q97 242 191 511h64q92 -284 165 -487l235 -652l170 597q46 160 74 286q28 127 28 143t-17.5 25.5t-159.5 13.5v60q154 -7 215 -7t213 7v-60q-69 -1 -92 -14t-38 -47t-84 -264
l-103 -337q-15 -50 -63 -227l-129 -483h-102q-111 330 -172 496l-228 617l-199 -494l-125 -327q-35 -91 -104 -292h-101l-91 417l-193 823q-21 87 -40 103.5t-124 28.5v60q167 -8 249 -8z" />
    <glyph glyph-name="X" unicode="X" horiz-adv-x="1366" 
d="M31 66q70 0 92.5 9.5t55.5 48.5t150 203l273 378l-177 301q-23 38 -91.5 136t-105.5 134t-55.5 42t-112.5 6v58l292 48q38 -26 78 -77t125 -198l168 -291q307 436 317 477v80q108 -4 148 -4t121 4v-61q-82 -4 -104 -18t-64.5 -64t-294.5 -394l-75 -100l339 -548
q66 -107 90 -133t41.5 -31t83.5 -6v-66q-109 4 -149 4t-147 -4q-60 90 -111 177l-263 449l-127 -180q-188 -280 -227 -374l-2 -72q-104 4 -134 4t-134 -4v66z" />
    <glyph glyph-name="Y" unicode="Y" horiz-adv-x="1366" 
d="M23 1333v61l241 47q40 -14 55 -26.5t75 -92.5q127 -170 350 -618q106 163 217 354l213 363h153v-27q-55 -61 -171 -222t-226 -343t-121.5 -213.5t-11.5 -59.5v-77q0 -351 14.5 -373.5t40 -31t144.5 -10.5v-64q-164 8 -280 8t-303 -8v64q118 2 144 10t37 26t13 67t5 312
v117q-30 64 -143 253l-66 108q-155 254 -237 331q-26 25 -54.5 35t-88.5 10z" />
    <glyph glyph-name="Z" unicode="Z" horiz-adv-x="1366" 
d="M168 1258q0 84 -5 163q44 2 318 2l374 -4l228 -4q82 0 217 6v-60q-104 -122 -154 -186l-834 -1073l412 -7q420 0 448 27t41 100l24 142h63q-7 -80 -10 -152l-6 -202q-101 -10 -250 -10l-515 6l-188 2q-163 0 -295 -8v57l241 299l571 734q120 154 175 238h-339
q-393 -5 -414.5 -27t-27.5 -71l-15 -141h-64q5 85 5 169z" />
    <glyph glyph-name="bracketleft" unicode="[" horiz-adv-x="682" 
d="M179 500q0 647 -2 785t-10 251l12 15q127 -5 191 -5t207 5l9 -7v-57l-5 -7l-161 -12q-40 -4 -52 -26q-12 -21 -19 -129t-7 -580q0 -841 16 -973q16 -34 43 -39t176 -9l9 -10v-52h-9q-140 -5 -206 -5t-192 -5l-12 10q12 203 12 850z" />
    <glyph glyph-name="backslash" unicode="\" horiz-adv-x="1241" 
d="M918 -238h-105l-580 1835h105z" />
    <glyph glyph-name="bracketright" unicode="]" horiz-adv-x="682" 
d="M300 -355q-66 0 -206 -5l-9 10v52l9 10q148 4 168 7q39 6 53 53t14 428q1 380 -1 718q-2 483 -19 514q-16 31 -60 37l-159 11l-5 7v57l9 7q143 -5 207 -5t191 5l12 -15q-8 -112 -10 -227t-3 -775t13 -884l-12 -10q-126 5 -192 5z" />
    <glyph glyph-name="asciicircum" unicode="^" horiz-adv-x="1241" 
d="M106 592l449 829h135l446 -829h-139l-374 690l-377 -690h-140z" />
    <glyph glyph-name="underscore" unicode="_" 
d="M0 -328v120h1024v-120h-1024z" />
    <glyph glyph-name="grave" unicode="`" horiz-adv-x="682" 
d="M164 1392q0 28 23.5 50.5t54.5 22.5q31 1 49 -11t52 -47l287 -296h-84l-310 189q-45 28 -58.5 46t-13.5 46z" />
    <glyph glyph-name="a" unicode="a" 
d="M413 104q133 0 263 154v270q-276 -47 -352 -105q-22 -17 -44 -59t-22 -110t41 -109t114 -41zM165 763q0 41 -1 66q126 83 198 108t168 25t173.5 -43t109.5 -111t32 -165l-4 -183v-298q0 -76 27 -91q10 -6 42 -8l65 -6v-57q-82 7 -143 7t-161 -7l5 176
q-204 -154 -242 -173.5t-96 -19.5q-121 0 -188.5 64.5t-67.5 171.5q0 69 32.5 148.5t114.5 117.5q58 27 188.5 58t258.5 46q1 95 -23 148t-81.5 87t-127.5 34t-114.5 -16t-54.5 -27l-18 -36q-27 -60 -40 -94l-53 14q1 23 1 64z" />
    <glyph glyph-name="b" unicode="b" horiz-adv-x="1133" 
d="M316 266q0 -50 5.5 -64t40.5 -43q86 -71 219 -71q134 0 212 112t78 253t-55.5 259.5t-229.5 118.5q-95 0 -170 -54.5t-100 -135.5v-375zM149 410v445q0 445 -17 479q-5 10 -18 16t-136 5v59q226 28 314 70q13 6 24 6t11 -17q0 -7 -2 -20l-1 -33q-5 -179 -6 -305l-2 -156
v-198l138 135q27 23 89 45t152 22t175 -51.5t130.5 -145.5t45.5 -195q0 -180 -93 -321q-30 -47 -51 -64l-146 -105q-89 -66 -139 -84.5t-128 -18.5q-130 0 -245 81l-81 -76l-33 13q19 200 19 414z" />
    <glyph glyph-name="c" unicode="c" horiz-adv-x="909" 
d="M619 81q98 0 228 60l21 -26l-40 -67q-132 -71 -289 -71q-210 0 -334.5 126.5t-124.5 347.5q0 117 33.5 203.5t74.5 126.5t133.5 92.5t144.5 74.5t146 22q160 0 256 -59q-20 -127 -30 -260h-57q-6 97 -11 117t-30 39q-25 20 -81.5 40.5t-132.5 20.5t-171 -53.5t-95 -276.5
q0 -136 48 -246t130.5 -160.5t180.5 -50.5z" />
    <glyph glyph-name="d" unicode="d" horiz-adv-x="1251" 
d="M555 873q-82 0 -187.5 -64t-105.5 -309q0 -183 91 -286t221 -103t190 82t70 137t10 228v171q-131 144 -289 144zM1016 361q0 -240 12.5 -260t33.5 -29t125 -18v-54q-123 7 -169 7t-179 -7q3 69 5 186q-102 -74 -213 -182q-80 -20 -141 -20q-113 0 -208 56t-146.5 163
t-51.5 223t31 206t69 128t134 95t155.5 82.5t129.5 25.5q129 0 241 -63v263q0 139 -8 159t-24 28q-16 7 -133 8v57q189 20 337 69l13 -9q-4 -85 -9 -328l-4 -160v-626z" />
    <glyph glyph-name="e" unicode="e" horiz-adv-x="981" 
d="M516 553q171 0 213 5q1 24 1 37q0 158 -64 232t-174 74t-179 -81t-70 -256q102 -11 273 -11zM610 81q103 0 258 91l16 -17l-32 -72q-68 -43 -108 -61q-105 -47 -233 -46q-127 0 -234 55t-166.5 164.5t-59.5 240.5t31.5 223.5t65.5 130.5t137.5 108t232.5 70
q130 0 262.5 -74.5t132.5 -314.5q0 -28 -4 -68q-134 -26 -345 -26h-321q4 -273 134 -338.5t233 -65.5z" />
    <glyph glyph-name="f" unicode="f" horiz-adv-x="682" 
d="M386 1100v-207h106q80 0 157 6l10 -6l-20 -103q-87 4 -129 4t-124 -4v-358q0 -278 7 -307.5t14 -37t29 -14.5t154 -16v-57q-234 7 -282 7t-259 -7v57l95 1q37 2 49 23q11 21 13 53t8 306v350l-138 -8v41q78 33 138 70v60q0 130 16 183.5t54 105.5t119 132t117 98t83 18
t88 -13l4 -166l-23 -9q-60 50 -123 50q-64 0 -98 -22t-49.5 -63t-15.5 -167z" />
    <glyph glyph-name="g" unicode="g" horiz-adv-x="1139" 
d="M226 -251q0 -105 82 -177.5t206 -72.5t211.5 42.5t132 116t42.5 142.5t-25 116t-97 69q-24 3 -184 3t-188 -2q-28 -4 -80 -40t-60 -45q-8 -7 -24 -51t-16 -101zM290 660q0 -71 40 -172t182 -101q86 0 152 55.5t66 179.5t-66 199t-161 75t-154 -61.5t-59 -174.5zM588 969
q120 0 231 -88q188 1 289 4l8 -19q-39 -59 -51 -81h-186q23 -59 23 -123t-39.5 -136.5t-115.5 -124t-147 -66.5t-166 -13q-65 -52 -79 -74t-14 -44q0 -53 59 -67q45 -12 160 -12l216 4q113 0 199.5 -43.5t86.5 -212.5q0 -103 -67.5 -209.5t-200 -168t-284.5 -61.5t-249 43
t-143.5 115t-46.5 134t13.5 100t45.5 82q122 56 175 98q-83 27 -106.5 51t-23.5 46t30 110q49 41 154 116q-90 25 -165.5 77t-75.5 199q0 220 175 292t295 72z" />
    <glyph glyph-name="h" unicode="h" horiz-adv-x="1192" 
d="M345 1592q11 0 11 -17q0 -7 -2 -20l-1 -33q-5 -179 -6 -305l-2 -156v-292q53 42 114 98t76 64t60 20t115 12t153 -43.5t115 -109.5t32 -195v-176l3 -138q3 -129 4 -161q2 -72 47 -80q6 -1 104 -3v-57q-114 5 -162 5t-185 -5q14 148 14 288v248q0 116 -17 167t-69.5 91.5
t-123.5 40.5t-133 -23t-121 -110q-12 -18 -16 -43.5t-4 -102.5v-117q5 -259 7 -295t10 -57q9 -22 27 -25q17 -3 121 -5v-57q-178 7 -242 7t-261 -7v57l94 1q38 2 50 23q11 21 13 53t8 306v517q0 445 -17 479q-5 10 -18 16t-136 5v59q226 28 314 70q13 6 24 6z" />
    <glyph glyph-name="i" unicode="i" horiz-adv-x="596" 
d="M45 823v57q194 22 326 84l22 -16q-8 -213 -8 -326v-182q5 -260 6 -296q2 -73 48 -84q6 -1 111 -3v-57q-152 7 -238 7t-267 -7v57l95 1q37 2 49 23q11 21 13 53t8 306v176q0 148 -8 170t-23.5 29.5t-133.5 7.5zM289 1408q47 0 79.5 -33t32.5 -79t-33.5 -79.5t-79.5 -33.5
t-79 33.5t-33 79.5t33 79t80 33z" />
    <glyph glyph-name="j" unicode="j" horiz-adv-x="479" 
d="M334 967q16 0 16 -20q0 -8 -5 -54t-8 -263q-4 -217 -4 -242l3 -275q0 -265 -34 -371t-114 -207t-220 -101q-8 0 -22 1l-12 71q34 -3 56 -3t50 15q71 37 96.5 136.5t25.5 364.5v561q0 183 -8 205t-20 30t-58 8t-79 1v57q215 24 312 77q16 9 25 9zM242 1408q47 0 80 -33
t33 -79t-33.5 -79.5t-79.5 -33.5t-79.5 33.5t-33.5 79.5t33 79t80 33z" />
    <glyph glyph-name="k" unicode="k" horiz-adv-x="1139" 
d="M298 8q-106 0 -259 -8v57l94 1q38 2 50 23q11 21 13 53t8 306v415q0 445 -17 479q-5 10 -18 16t-136 5v59q226 28 314 70q13 6 24 6t11 -17q0 -7 -2 -20l-1 -33q-5 -179 -6 -305l-2 -156v-402l11 -6q52 33 136 103t318 290q78 -3 98 -3t101 3v-56q-58 -3 -77 -9
q-20 -6 -98 -56t-213 -162l-102 -81q81 -83 280 -278q150 -153 180.5 -178.5t59.5 -30.5t90 -5v-45q-106 -20 -242 -53q-68 56 -234 226q-166 171 -297 288l-11 -5v-59q5 -260 6 -296q2 -73 48 -84q7 -1 111 -3v-57q-132 8 -238 8z" />
    <glyph glyph-name="l" unicode="l" horiz-adv-x="596" 
d="M383 1490q11 0 11 -17q0 -7 -2 -20l-1 -33q-5 -179 -6 -305l-2 -156v-519q5 -260 6 -296q2 -73 48 -84q7 -1 111 -3v-57q-136 8 -236 8t-261 -8v57l94 1q38 2 50 23q11 21 13 53t8 306v415q0 445 -17 479q-5 10 -18 16t-136 5v59q226 28 314 70q13 6 24 6z" />
    <glyph glyph-name="m" unicode="m" horiz-adv-x="1808" 
d="M368 962q11 0 11 -20q-1 -8 -3 -36t-4 -123l131 120q25 22 39 30t57.5 19t90.5 11q96 0 171 -47t115 -139l110 102q37 33 57 45t68 25t95 13q114 0 191 -60.5t95 -124.5t18 -233v-104l3 -139q3 -121 4 -157t10 -56q9 -21 27 -25q17 -4 121 -6v-57q-126 6 -171 6t-178 -6
l9 276l3 108v86q0 168 -17 229.5t-71 99.5t-132 38q-78 -1 -136 -43t-74.5 -92t-16.5 -195v-67l3 -139q3 -188 13 -211t28 -27q17 -4 121 -6v-57q-148 8 -228 8t-270 -8v57l95 1q38 2 50 23q11 21 13 53t7 306v78q0 129 -20 188.5t-70 95t-115 35.5t-144 -37.5t-92 -132.5
q-10 -69 -10 -166v-61q6 -260 7 -296t10 -56q9 -21 27 -25q17 -4 121 -6v-57q-137 8 -229 8t-266 -8v57l95 1q37 2 49 23t14 53t7 306v119q0 221 -9.5 237t-25.5 21.5t-130 4.5v57q202 28 295 73q20 10 31 10z" />
    <glyph glyph-name="n" unicode="n" horiz-adv-x="1192" 
d="M354 962q11 0 11 -20q0 -8 -2 -30t-5 -138l186 159q82 30 159 30t149.5 -33t109 -83.5t46.5 -110.5t9 -266v-177q0 -194 16.5 -212t38.5 -21l107 -3v-57q-99 7 -159 7t-190 -7q14 247 14 312v168q0 157 -14 215t-74.5 99t-140.5 41t-142 -35.5t-88.5 -82t-26.5 -156.5
v-121q6 -260 7 -296t10 -56q9 -21 27 -25q17 -4 121 -6v-57q-121 7 -213 7t-282 -7v57l95 1q37 2 49 23t14 53t7 306v119q0 221 -9.5 237t-25.5 21.5t-130 4.5v57q202 28 295 73q20 10 31 10z" />
    <glyph glyph-name="o" unicode="o" horiz-adv-x="1118" 
d="M257 534q0 -123 41 -250t118.5 -185.5t181.5 -58.5t181.5 92t77.5 267t-65.5 338t-258.5 163q-123 0 -199.5 -89t-76.5 -277zM68 460q0 224 143 365.5t359 141.5t348 -132t132 -341q0 -146 -68 -267t-192 -189.5t-256 -68.5q-311 0 -420 258q-46 109 -46 233z" />
    <glyph glyph-name="p" unicode="p" horiz-adv-x="1231" 
d="M970 484q0 111 -41.5 191.5t-117.5 121t-143 40.5t-122.5 -22.5t-100.5 -65.5t-55 -72t-11 -83v-388q114 -116 264 -116q199 0 263 141.5t64 252.5zM568 -19q-80 0 -189 53v-159q5 -253 6 -291t11 -59q10 -22 28 -26q19 -4 129 -6v-57q-125 5 -285 5t-221 -5v57l95 1
q37 2 49 23t14 53t7 305v355q0 508 -8.5 539t-18.5 39.5t-26 11.5l-123 3v58q75 0 175.5 29.5t124.5 41.5t35 12t11 -22l-3 -77v-106q169 157 217 181t167 23q118 0 251.5 -83.5t133.5 -318.5q0 -162 -64.5 -259.5t-83.5 -114.5t-77.5 -64t-124.5 -81.5t-108 -47.5t-122 -13
z" />
    <glyph glyph-name="q" unicode="q" horiz-adv-x="1147" 
d="M560 881q-127 0 -214 -98.5t-87 -274.5q0 -113 40.5 -214t112.5 -147t150 -46q141 0 248 132q3 259 3 346t-3 198q-39 39 -109.5 71.5t-140.5 32.5zM625 963q124 0 264 -70l103 65l37 -22q-33 -92 -43 -169t-9 -314v-576l2 -139q3 -120 4 -156q2 -76 48 -84q6 -1 111 -4
v-56q-108 7 -258 7t-258 -7v56q116 3 136 7q37 7 41 96l7 280v267q-49 -25 -110 -64l-132 -87q-50 -8 -89 -8q-196 0 -298 140t-102 311q0 79 21.5 157.5t53 125.5t70.5 77t137 83t146 69t118 15z" />
    <glyph glyph-name="r" unicode="r" horiz-adv-x="809" 
d="M391 535v-103q0 -278 7 -307.5t13.5 -37t28.5 -14.5t155 -16v-57q-176 7 -302 7t-246 -7v57q113 2 132 6t33 36t14 341v119q0 223 -9 238t-25.5 20.5t-130.5 4.5v57q202 28 295 73q20 10 31 10t11 -20q0 -7 -3 -42t-4 -163q45 52 83 103.5t62 71.5t62.5 35.5t80.5 15.5
t83 -18l6 -14q-15 -133 -17 -234h-45q-44 92 -126 92q-81 0 -135 -63.5t-54 -190.5z" />
    <glyph glyph-name="s" unicode="s" horiz-adv-x="868" 
d="M440 33q82 0 147.5 54t65.5 144t-59 118t-186.5 57t-173.5 46t-98.5 64.5t-52.5 142.5t41.5 161.5t130.5 108t173 41.5q180 0 302 -61q-7 -111 -10 -226h-57q-7 101 -23.5 128t-64.5 63.5t-145 36.5q-96 0 -149.5 -52t-53.5 -124t41.5 -100t88.5 -42l166 -41
q126 -32 173.5 -55t76.5 -71.5t29 -116.5q0 -135 -111.5 -235.5t-298.5 -100.5q-86 1 -197 21t-116 24t-5 11.5t8 46.5t11 226h60q3 -162 55 -209t101 -53.5t131 -6.5z" />
    <glyph glyph-name="t" unicode="t" horiz-adv-x="668" 
d="M199 789h-41q-50 0 -112 -5v42q100 38 159 68q0 238 -6 304q104 36 169 77l24 -20q-11 -83 -24 -366q80 -1 152 -1t125 6l7 -7l-21 -93q-63 1 -116 1t-147 -1l-6 -407q-3 -149 2 -178t19 -50.5t36.5 -34.5t76.5 -20q72 0 131 21l12 -39q-47 -37 -91 -77q-62 -23 -131 -23
t-100.5 12t-57.5 33.5t-43 54.5t-22 104l5 184v415z" />
    <glyph glyph-name="u" unicode="u" horiz-adv-x="1235" 
d="M1016 964q16 0 16 -20q0 -8 -7 -85t-7 -282v-137l2 -139q3 -121 4 -157q2 -73 48 -84q6 -1 111 -3v-57q-131 7 -201 7t-147 -7q6 81 9 182q-60 -48 -111 -99t-81 -67q-69 -38 -177 -38q-289 0 -289 301l5 127v171q0 183 -8 205t-20 30q-13 8 -59 8t-78 1v57
q215 24 312 77q16 9 25 9q16 0 16 -20q-1 -8 -3 -30t-6 -151t-5 -186v-195q0 -122 16.5 -171.5t64 -79t106.5 -29.5q155 0 249 126q22 29 32.5 52.5t10.5 212.5v84q0 183 -8 205t-20 30t-58 8t-79 1v57q215 24 312 77q16 9 25 9z" />
    <glyph glyph-name="v" unicode="v" horiz-adv-x="1157" 
d="M276 933q80 0 226 7v-60q-108 -3 -127 -14.5t-19 -35.5t40 -123l122 -304l29 -68q49 -119 67 -159l100 227q9 20 84 207t75 217q-1 30 -19 40t-122 13v60q150 -7 188 -7t194 7v-60q-62 -3 -82.5 -14.5t-37.5 -41.5t-111 -222l-96 -205q-25 -55 -173 -407h-104
q-39 102 -54 137l-287 668q-31 71 -63 79q-16 4 -76 6v60q166 -7 246 -7z" />
    <glyph glyph-name="w" unicode="w" horiz-adv-x="1708" 
d="M269 933q130 0 246 7v-58q-93 -1 -117 -6q-40 -9 -40 -40q0 -23 29 -123l93 -322q23 -81 56 -175l223 503q52 117 98 236h49q66 -183 90 -242l115 -290q59 -146 89 -220l75 197q137 357 137 427q0 28 -19.5 40.5t-129.5 14.5v58q152 -7 216 -7t184 7v-58
q-58 -1 -78.5 -10.5t-40.5 -37.5t-75 -154l-150 -362q-99 -250 -119 -329h-94l-276 698l-209 -458q-39 -87 -63 -148l-33 -92h-96l-135 448q-109 364 -129.5 393t-40 37t-95.5 15v58q110 -7 240 -7z" />
    <glyph glyph-name="x" unicode="x" horiz-adv-x="1057" 
d="M36 57q48 0 80 17t92 88l234 287l-85 126q-160 240 -239 287q-16 9 -32 9t-38 -2l-12 57q116 13 235 39q77 -71 204 -267l74 -117l62 80q73 93 206 285q52 -3 77 -3t76 3v-56q-44 -1 -78 -24t-139 -152l-96 -115l-62 -81l37 -56q24 -35 129 -179.5t137 -178.5t47 -40.5
t59 -6.5v-57q-70 4 -128 4t-122 -4q-64 81 -115 156l-152 228q-111 -129 -276 -384q-39 4 -87 4t-88 -4v57z" />
    <glyph glyph-name="y" unicode="y" horiz-adv-x="1139" 
d="M228 -426q66 0 121 63t149 311q-32 90 -77 202l-159 394q-70 176 -102 242t-52.5 78t-91.5 20v56q124 -7 244 -7t228 7v-56q-104 -7 -124 -15t-20 -29q0 -22 28 -108t63 -173l63 -156q57 -140 96 -227l53 118q31 70 117.5 287.5t86.5 242.5t-15.5 35.5t-120.5 20.5v60
q115 -7 205 -7t178 7l-10 -60q-51 -2 -79 -22t-84.5 -134.5t-209.5 -450.5l-231 -540q-56 -131 -118 -216t-202 -85q-59 0 -119 33l51 154h24q39 -33 58.5 -39t49.5 -6z" />
    <glyph glyph-name="z" unicode="z" 
d="M462 859q-201 0 -233 -16q-13 -6 -25 -59l-20 -116h-56q10 172 10 194t-2 65l8 7q372 -7 538 -7t249 7v-53q-68 -71 -313 -381t-327 -424h70q452 0 485 33q16 12 45 182h62l-17 -137q-2 -20 -12 -143q-58 -11 -146 -11l-434 8l-297 -8l-11 46q104 110 198 224t317 392
q28 35 143 197h-232z" />
    <glyph glyph-name="braceleft" unicode="{" horiz-adv-x="682" 
d="M426 -90q0 -246 154 -242v-24q-162 0 -214 45t-70.5 104t-18.5 173v345q0 90 -14 133t-45 69.5t-99 48.5q112 35 135 100q23 64 23 144v379q0 173 55 223.5t106.5 64.5t140.5 14v-25q-153 9 -153 -244v-378q0 -141 -41.5 -195t-128.5 -83q121 -38 150 -122
q20 -53 20 -159v-371z" />
    <glyph glyph-name="bar" unicode="|" horiz-adv-x="1241" 
d="M563 0v1497h115v-1497h-115z" />
    <glyph glyph-name="braceright" unicode="}" horiz-adv-x="682" 
d="M405 311v-345q0 -160 -44.5 -229.5t-154.5 -86.5q-36 -6 -102 -7v25q39 -2 78 11q47 25 61 79t14 152v371q0 148 41 200.5t128 80.5q-115 37 -147 116q-22 58 -22 162v378q0 184 -58 216t-95 28v25q82 0 133.5 -12t91 -46.5t58 -89.5t18.5 -154v-379q1 -126 39 -172
t119 -72q-66 -21 -97.5 -47.5t-46 -68.5t-14.5 -135z" />
    <glyph glyph-name="asciitilde" unicode="~" horiz-adv-x="1241" 
d="M856 538q115 0 210 176l71 -80q-63 -116 -136.5 -170.5t-146.5 -54.5q-38 0 -82 13q-44 12 -170 64t-152 59t-60 7q-71 0 -138 -78q-10 -12 -76 -111l-72 83q66 104 103 146t88 66.5t95 24.5t96 -15t163 -63t142 -57.5t65 -9.5z" />
    <glyph glyph-name="nonbreakingspace" unicode="&#xa0;" horiz-adv-x="512" 
 />
    <glyph glyph-name="exclamdown" unicode="&#xa1;" horiz-adv-x="569" 
d="M156 -510v106l53 568l25 315l55 51l19 -10q8 -202 40 -525t30 -426q-85 -39 -155 -79h-67zM274 936q50 0 84.5 -35t34.5 -85t-34.5 -84.5t-84.5 -34.5t-85 34.5t-35 84.5t35 85t85 35z" />
    <glyph glyph-name="cent" unicode="&#xa2;" 
d="M307 513q0 -153 54.5 -260t189.5 -158v776q-61 -5 -116.5 -43.5t-91.5 -100t-36 -214.5zM635 -199h-84v179q-121 4 -272.5 77.5t-151.5 396.5q0 107 29.5 190.5t72.5 129.5t148 110t174 77v194h84v-184q159 5 279 -57q-22 -137 -30 -263h-57q-5 96 -37 164.5t-155 64.5
v-799q86 -8 138 8.5t121 51.5l20 -25l-40 -65q-76 -49 -132 -59t-107 -12v-179z" />
    <glyph glyph-name="sterling" unicode="&#xa3;" 
d="M223 792q0 195 22 266t55 112.5t143.5 118t180.5 100t142 23.5q136 0 212 -54q-15 -114 -21 -275h-58q-1 9 -5 67t-22 87t-70 54.5t-134 25.5t-149 -55.5t-90.5 -155.5t-33.5 -383h120q126 0 251 6l6 -6l-18 -84q-142 6 -264 6h-102q-9 -132 -48.5 -242t-141.5 -263
q123 12 203 12l420 -15q36 0 49 10.5t19 41.5l19 131h59q-8 -158 -10 -308l-64 -35q-119 -2 -183 4q-64 7 -249 41t-299 40q-38 -51 -91 -94l-81 12l34 91q40 36 99 63q80 131 95 293q6 66 5 218q-142 0 -201 -9l17 94q51 -5 184 -7v69z" />
    <glyph glyph-name="currency" unicode="&#xa4;" horiz-adv-x="1241" 
d="M906 562q0 126 -89 215t-213 89t-212 -89t-88 -215t88 -215t212 -89t213 89t89 215zM605 164q-133 0 -241 81l-244 -244l-76 76l244 244q-81 111 -81 242q0 132 81 240l-244 244l76 76l244 -244q110 81 242 81t240 -81l244 244l76 -76l-244 -244q81 -106 81 -240
t-81 -242l244 -244l-76 -76l-244 244q-108 -81 -241 -81z" />
    <glyph glyph-name="yen" unicode="&#xa5;" 
d="M482 901l78 -168l82 168h-160zM811 64v-64q-206 9 -299 9t-306 -9v64l92 6q78 8 99 37.5t21 110.5l-2 353h-368v69h368v11l-116 250h-252v69h220l-133 285q-18 39 -42.5 65.5t-53 31.5t-66.5 5v64q189 -7 245 -7t244 7l-1 -64q-103 -13 -117.5 -29t-14.5 -47.5t25 -89.5
l97 -221h222l74 169q41 98 41 140q0 43 -25 60.5t-56 17.5h-58v64q165 -5 215 -5t185 5v-64q-74 0 -113 -37t-151 -263l-42 -87h232v-69h-266l-114 -248v-13h380v-69h-380l-2 -350q1 -89 29.5 -123t188.5 -34z" />
    <glyph glyph-name="brokenbar" unicode="&#xa6;" horiz-adv-x="1241" 
d="M563 0v591h115v-591h-115zM563 1497h115v-591h-115v591z" />
    <glyph glyph-name="section" unicode="&#xa7;" 
d="M191 579q0 -127 174 -189l380 -136q43 64 57 102t14 92t-39.5 99.5t-148.5 87.5l-350 119q-87 -74 -87 -175zM952 515q0 -152 -161 -286q69 -47 95.5 -93t26.5 -117q0 -174 -148 -319t-344 -145t-330 94q22 130 26 312h64q5 -86 17 -183q113 -123 293 -123
q87 0 156.5 34.5t104 94.5t34.5 122t-28 107.5t-89 76.5t-248 95t-276 117.5t-89 194.5q0 81 39 147.5t130 136.5q-64 49 -91 97t-27 130t66.5 201t172.5 178t246 59t258 -72q-21 -163 -26 -311h-64l-5 112q-1 28 -5 62q-91 99 -233 99q-141 0 -216.5 -69t-75.5 -166
t62.5 -146.5t269.5 -115.5t263 -97t94 -90t38 -137z" />
    <glyph glyph-name="dieresis" unicode="&#xa8;" horiz-adv-x="682" 
d="M548 1389q46 0 77.5 -31.5t31.5 -77.5t-32 -77.5t-77 -31.5t-77 31.5t-32 77.5t31.5 77.5t77.5 31.5zM136 1389q46 0 77 -31.5t31 -77.5t-32 -77.5t-77 -31.5t-77 31.5t-32 77.5t32 77.5t78 31.5z" />
    <glyph glyph-name="copyright" unicode="&#xa9;" horiz-adv-x="1530" 
d="M366 690q0 180 107.5 307t317.5 127q141 0 288 -53v-219h-53q-8 81 -41.5 150t-170.5 69q-136 0 -222.5 -93.5t-86.5 -252.5q1 -103 33 -177q89 -205 255 -205q103 0 158 35t107 123l41 -18q-41 -75 -79 -115q-88 -91 -257 -91t-283 116.5t-114 296.5zM113 705
q0 -167 84 -326.5t241 -249t316 -89.5q158 0 274 56t197.5 137.5t136.5 203.5t55 249t-49.5 277.5t-218.5 278.5t-384 128q-170 0 -327 -89t-241 -249t-84 -327zM22 690q0 172 87.5 367t323.5 312q159 79 307 79t313 -56.5t310 -246t145 -440.5q0 -162 -90.5 -357.5
t-331.5 -312.5q-153 -73 -334 -73t-359.5 100t-274.5 278t-96 350z" />
    <glyph glyph-name="ordfeminine" unicode="&#xaa;" horiz-adv-x="682" 
d="M265 937q78 0 174 92v160q-173 -24 -224.5 -58.5t-51.5 -86.5t29 -79.5t73 -27.5zM439 1230q-3 157 -159 157q-78 -1 -98 -19q-18 -18 -45 -86l-35 8v81q91 53 133.5 66.5t114.5 13.5t121 -34t61 -73t12 -161v-169q0 -65 6 -79t17.5 -18.5t66.5 -6.5v-35q-38 4 -95 4
t-100 -4v103l-141 -88q-40 -24 -100 -24t-105 41t-45 99t27 98t82 65t170 43z" />
    <glyph glyph-name="guillemotleft" unicode="&#xab;" 
d="M866 107q-133 149 -353 349v24q15 16 57 57l133 129q28 28 163 167l50 -34q-166 -215 -236 -330q36 -54 80 -114l156 -214zM506 799q-170 -221 -237 -330q36 -54 80 -114l157 -214l-50 -34q-53 59 -169 173t-185 176v24q16 16 58 57l132 129q28 28 164 167z" />
    <glyph glyph-name="logicalnot" unicode="&#xac;" horiz-adv-x="1241" 
d="M1034 250v433h-929v100h1023v-533h-94z" />
    <glyph glyph-name="softhyphen" unicode="&#xad;" horiz-adv-x="682" 
d="M45 438v14l45 134h535v-15l-48 -133h-532z" />
    <glyph glyph-name="registered" unicode="&#xae;" horiz-adv-x="1530" 
d="M690 742q241 0 241 178t-202 178h-34q-30 0 -40.5 -11.5t-10.5 -63.5v-281h46zM413 327v31q64 1 75 5.5t17.5 17.5t6.5 64v573q0 52 -6 65t-20 17t-73 5v32h345q223 0 266 -73.5t43 -139.5t-55 -124.5t-173 -78.5q39 -11 63 -29t49.5 -56t63 -122.5t55.5 -110t34 -33.5
t49 -12v-31h-90q-55 0 -83 12t-50 48q-22 37 -63 139t-62 128.5t-44 36t-71 9.5h-46v-255q0 -52 6 -65t20 -17t63 -5v-31h-320zM22 690q0 172 87.5 367t323.5 312q159 79 307 79t313 -56.5t310 -246t145 -440.5q0 -162 -90.5 -357.5t-331.5 -312.5q-153 -73 -334 -73
t-359.5 100t-274.5 278t-96 350zM113 705q0 -167 84 -326.5t241 -249t316 -89.5q158 0 274 56t197.5 137.5t136.5 203.5t55 249t-49.5 277.5t-218.5 278.5t-384 128q-170 0 -327 -89t-241 -249t-84 -327z" />
    <glyph glyph-name="macron" unicode="&#xaf;" horiz-adv-x="682" 
d="M17 1341h649v-118h-649v118z" />
    <glyph glyph-name="degree" unicode="&#xb0;" horiz-adv-x="819" 
d="M184 1103q0 -94 66 -160t160 -66t160 66t66 160t-66 160.5t-160 66.5t-160 -66.5t-66 -160.5zM718 1103q0 -80 -40.5 -153t-114 -114t-153.5 -41t-153.5 41t-114 114t-40.5 153t40.5 153t115 114t152.5 41t152.5 -41t115 -114t40.5 -153z" />
    <glyph glyph-name="plusminus" unicode="&#xb1;" horiz-adv-x="1124" 
d="M44 0v92h1038v-92h-1038zM609 729h473v-91h-473v-473h-92v473h-473v91h473v473h92v-473z" />
    <glyph glyph-name="twosuperior" unicode="&#xb2;" horiz-adv-x="614" 
d="M427 1159q0 57 -43 105.5t-112 48.5t-100 -17t-48 -45t-45 -106h-50l26 183q55 48 104 66.5t131 18.5t147.5 -30.5t96.5 -85.5t31 -107q0 -106 -79 -207q-26 -35 -91 -96l-223 -210h223q58 0 220 11q-2 -48 -2 -64t2 -60q-181 4 -325 4t-291 -4v39q89 90 201 197
t152 158.5t57.5 97.5t17.5 103z" />
    <glyph glyph-name="threesuperior" unicode="&#xb3;" horiz-adv-x="614" 
d="M304 614q70 0 121.5 52t51.5 134t-44 124.5t-111 42.5t-119 -25l-21 7l21 87q86 0 123 10t71 51t34 93t-40.5 90.5t-94.5 38.5t-94 -17.5t-61.5 -44.5t-34.5 -72h-51l38 147q49 44 95.5 62.5t116.5 18.5q126 0 188.5 -52.5t62.5 -112.5t-29 -107.5t-118 -111.5
q66 -11 109 -31t69 -60.5t26 -94.5q0 -115 -103 -204.5t-264 -89.5q-79 0 -191 31q-10 55 -54 195l63 15q30 -79 53.5 -109t70 -48.5t116.5 -18.5z" />
    <glyph glyph-name="acute" unicode="&#xb4;" horiz-adv-x="682" 
d="M554 1465q30 0 53 -22.5t23 -50.5t-13.5 -46.5t-57.5 -45.5l-311 -189h-84l287 296q39 40 56 49t47 9z" />
    <glyph glyph-name="mu" unicode="&#xb5;" horiz-adv-x="1180" 
d="M175 -46q0 -80 21 -264q-97 -46 -123 -46q-25 0 -25 10q0 45 44 349l55 379l67 560q119 50 160 50q20 0 16 -18q-29 -124 -58.5 -325t-29.5 -325t26.5 -186t86.5 -62t153.5 112.5t151.5 439.5l54 332q107 34 143 34q35 0 35 -7l-50 -213q-49 -214 -69.5 -380.5
t-20.5 -198.5t6 -48.5t33 -16.5t75.5 47t85.5 85v-40q-60 -80 -146 -161t-128 -81q-80 0 -80 106q0 81 20 234q-70 -167 -149.5 -252.5t-182.5 -85.5q-72 0 -110 35t-49 115q-12 -98 -12 -178z" />
    <glyph glyph-name="paragraph" unicode="&#xb6;" horiz-adv-x="1286" 
d="M706 -223h174l1 1569l-174 4zM324 1028q0 -121 22.5 -174t52 -88t75.5 -59.5t148 -30.5v674q-118 -15 -166 -43.5t-90 -93t-42 -185.5zM622 -165v765q-216 0 -380 99.5t-164 312.5q0 153 56 232t136 119t230 54h134q252 0 570 -6l-28 -55q-70 -6 -104 -8t-101 -7
q-6 -129 -6 -399v-1032q0 -95 1 -130q103 -5 243 -19l-27 -56q-427 -14 -776 -2l30 57q109 13 184 15q2 16 2 60z" />
    <glyph glyph-name="periodcentered" unicode="&#xb7;" horiz-adv-x="512" 
d="M256 741q50 0 84.5 -34.5t34.5 -84.5t-34.5 -85t-84.5 -35t-85 35t-35 85t35 84.5t85 34.5z" />
    <glyph glyph-name="cedilla" unicode="&#xb8;" horiz-adv-x="682" 
d="M409 -128q85 0 129.5 -41t44.5 -105t-61.5 -115.5t-171.5 -51.5t-200 32l31 67q69 -24 127 -24t86 24.5t28 58.5t-26 56.5t-64 22.5t-73 -10l-18 15l90 199h74l-57 -134q34 6 61 6z" />
    <glyph glyph-name="onesuperior" unicode="&#xb9;" horiz-adv-x="614" 
d="M263 778v487q0 35 -7 39l-18 -5l-157 -65h-14l-8 66l335 121l18 -8q-18 -211 -18 -349v-286q0 -93 10 -118t28.5 -35.5t82.5 -10.5h40v-50q-153 5 -225 5t-228 -5v50q93 0 114 6t34 31t13 127z" />
    <glyph glyph-name="ordmasculine" unicode="&#xba;" horiz-adv-x="682" 
d="M145 1188q0 -115 51 -204t159 -89q79 0 132 59.5t53 183.5t-63.5 198.5t-148.5 74.5t-134 -54t-49 -169zM20 1152q0 78 39.5 148t117.5 110.5t175 40.5q142 0 227 -81.5t85 -205.5t-96.5 -216.5t-243.5 -92.5q-204 1 -280 167q-24 52 -24 130z" />
    <glyph glyph-name="guillemotright" unicode="&#xbb;" 
d="M744 469q-70 115 -236 330l50 34q144 -149 173 -176l180 -177v-24q-220 -200 -353 -349l-50 34l158 216q42 58 78 112zM334 469q-79 125 -237 330l50 34q145 -149 173 -176l181 -177v-24q-69 -62 -185 -176t-169 -173l-50 34l158 216q43 58 79 112z" />
    <glyph glyph-name="onequarter" unicode="&#xbc;" horiz-adv-x="1536" 
d="M1205 318v388l-263 -388h263zM1205 163v58h-354l-8 33q26 58 55 101l323 468l99 33l16 -7l-6 -269q-1 -90 -1 -124v-138l147 4v-104l-86 3h-61v-58q-1 -97 55 -109q24 -6 108 -6v-48q-164 5 -220 5t-230 -5v48q84 0 108 6q56 12 55 109zM308 0l923 1413h98l-915 -1413
h-106zM250 778v487q0 35 -7 39l-18 -5l-157 -65h-14l-8 66l335 121l18 -8q-18 -211 -18 -349v-286q-1 -93 9 -118t29 -35.5t83 -10.5h40v-50q-154 5 -226 5t-227 -5v50q93 0 114 6t34 31t13 127z" />
    <glyph glyph-name="onehalf" unicode="&#xbd;" horiz-adv-x="1536" 
d="M1318 595q0 57 -42 105.5t-112 48.5t-101 -17t-48 -45t-45 -106h-50l26 183q55 48 104.5 66.5t131.5 18.5t147 -30t96 -85.5t31 -107.5q0 -105 -78 -207q-27 -34 -92 -96l-222 -209h222q58 0 221 10q-2 -48 -2 -64t2 -60q-183 4 -327 4t-290 -4v39q90 91 202 197
t151.5 158t57 98t17.5 103zM251 0l923 1413h98l-915 -1413h-106zM233 778v487q0 35 -7 39l-18 -5l-157 -65h-14l-8 66l335 121l18 -8q-18 -211 -18 -349v-286q0 -93 10 -118t28.5 -35.5t82.5 -10.5h40v-50q-153 5 -225 5t-228 -5v50q93 0 114 6t34 31t13 127z" />
    <glyph glyph-name="threequarters" unicode="&#xbe;" horiz-adv-x="1536" 
d="M1228 318v388l-263 -388h263zM1228 163v58h-354l-9 33q27 58 55 101l324 468l99 33l15 -7l-5 -269q-1 -90 -1 -124v-138l147 4v-104l-86 3h-61v-58q0 -97 56 -109q24 -6 107 -6v-48q-163 5 -219 5t-231 -5v48q84 0 107 6q56 14 56 109zM331 0l923 1413h98l-916 -1413
h-105zM328 614q70 0 121 52t51 134t-44 124.5t-111 42.5t-119 -25l-21 7l21 87q86 0 123 10t71 51t34 93t-40.5 90.5t-94.5 38.5t-94 -17.5t-61.5 -44.5t-34.5 -72h-51l38 147q49 44 95.5 62.5t116.5 18.5q126 0 188.5 -52.5t62.5 -112.5t-29 -107.5t-118 -111.5
q66 -11 109 -31t69 -60.5t26 -94.5q0 -115 -103 -204.5t-264 -89.5q-79 0 -191 31q-10 55 -54 195l63 15q30 -79 53.5 -109t70.5 -48.5t117 -18.5z" />
    <glyph glyph-name="questiondown" unicode="&#xbf;" horiz-adv-x="909" 
d="M518 443q0 43 -46 98l43 31q90 -61 90 -157q0 -52 -26.5 -104t-126.5 -164t-131 -174t-31 -117q0 -95 70.5 -162t180.5 -67q56 0 128 26q37 41 91 161l53 -7l7 -10l-78 -236q-122 -76 -245 -76t-212.5 42t-135.5 117.5t-46 153.5t25.5 141t70.5 115t153 149t137 147
t29 93zM504 936q50 0 84.5 -35t34.5 -85t-34.5 -84.5t-84.5 -34.5t-85 34.5t-35 84.5t35 85t85 35z" />
    <glyph glyph-name="Agrave" unicode="&#xc0;" horiz-adv-x="1593" 
d="M500 561h505l-250 603zM1182 117q0 18 -14 53l-123 306h-579l-109 -257q-29 -69 -29 -101t40 -40q40 -9 132 -10v-68q-170 9 -260 9t-205 -9v68q79 0 99 6t36 22t40 66q24 51 137 295l250 564q41 93 175 414h65l427 -1003q104 -244 130 -292t50 -60q22 -11 101 -12v-68
q-156 10 -218 10l-322 -10v68q112 2 136 7q25 5 33 15t8 27zM474 1768q0 28 24 50t54 23q31 1 49 -11t52 -47l287 -296h-84l-310 189q-44 28 -58 46t-14 46z" />
    <glyph glyph-name="Aacute" unicode="&#xc1;" horiz-adv-x="1593" 
d="M500 561h505l-250 603zM1182 117q0 18 -14 53l-123 306h-579l-109 -257q-29 -69 -29 -101t40 -40q40 -9 132 -10v-68q-170 9 -260 9t-205 -9v68q79 0 99 6t36 22t40 66q24 51 137 295l250 564q41 93 175 414h65l427 -1003q104 -244 130 -292t50 -60q22 -11 101 -12v-68
q-156 10 -218 10l-322 -10v68q112 2 136 7q25 5 33 15t8 27zM1066 1841q30 -1 52 -23q23 -22 23 -50q1 -28 -13 -46t-58 -46l-311 -189h-84l287 296q38 40 56 49t48 9z" />
    <glyph glyph-name="Acircumflex" unicode="&#xc2;" horiz-adv-x="1593" 
d="M500 561h505l-250 603zM1182 117q0 18 -14 53l-123 306h-579l-109 -257q-29 -69 -29 -101t40 -40q40 -9 132 -10v-68q-170 9 -260 9t-205 -9v68q79 0 99 6t36 22t40 66q24 51 137 295l250 564q41 93 175 414h65l427 -1003q104 -244 130 -292t50 -60q22 -11 101 -12v-68
q-156 10 -218 10l-322 -10v68q112 2 136 7q25 5 33 15t8 27zM753 1836h133l252 -345h-85l-237 209l-240 -209h-80z" />
    <glyph glyph-name="Atilde" unicode="&#xc3;" horiz-adv-x="1593" 
d="M500 561h505l-250 603zM1182 117q0 18 -14 53l-123 306h-579l-109 -257q-29 -69 -29 -101t40 -40q40 -9 132 -10v-68q-170 9 -260 9t-205 -9v68q79 0 99 6t36 22t40 66q24 51 137 295l250 564q41 93 175 414h65l427 -1003q104 -244 130 -292t50 -60q22 -11 101 -12v-68
q-156 10 -218 10l-322 -10v68q112 2 136 7q25 5 33 15t8 27zM630 1641q-71 0 -107 -96h-68q25 108 87 165t130 57q68 1 155 -41t111 -49t43 -7q62 0 105 101h68q-29 -115 -89 -171t-128 -56t-155 42q-86 42 -110 48q-24 7 -42 7z" />
    <glyph glyph-name="Adieresis" unicode="&#xc4;" horiz-adv-x="1593" 
d="M500 561h505l-250 603zM1182 117q0 18 -14 53l-123 306h-579l-109 -257q-29 -69 -29 -101t40 -40q40 -9 132 -10v-68q-170 9 -260 9t-205 -9v68q79 0 99 6t36 22t40 66q24 51 137 295l250 564q41 93 175 414h65l427 -1003q104 -244 130 -292t50 -60q22 -11 101 -12v-68
q-156 10 -218 10l-322 -10v68q112 2 136 7q25 5 33 15t8 27zM1012 1765q46 1 77 -31q32 -32 32 -78t-32 -77q-32 -32 -77 -32t-77 32q-32 31 -32 77q-1 46 31 78t78 31zM600 1765q46 1 76 -31q32 -32 32 -78t-32 -77q-32 -32 -77 -32t-77 32q-32 31 -32 77t32 78t78 31z" />
    <glyph glyph-name="Aring" unicode="&#xc5;" horiz-adv-x="1593" 
d="M500 561h505l-250 603zM1182 117q0 18 -14 53l-123 306h-579l-109 -257q-29 -69 -29 -101t40 -40q40 -9 132 -10v-68q-170 9 -260 9t-205 -9v68q79 0 99 6t36 22t40 66q24 51 137 295l250 564q41 93 175 414h65l427 -1003q104 -244 130 -292t50 -60q22 -11 101 -12v-68
q-156 10 -218 10l-322 -10v68q112 2 136 7q25 5 33 15t8 27zM805 1829q-63 0 -93 -41t-30 -108t30 -108t93 -41t93 41t30 108t-30 108t-93 41zM805 1885q101 1 163 -59t62 -146t-62 -146t-163 -59q-101 -1 -163 59t-62 146t62 146t163 59z" />
    <glyph glyph-name="AE" unicode="&#xc6;" horiz-adv-x="1933" 
d="M516 588h448l4 453q0 112 -4 301h-25q-84 -127 -423 -754zM1411 1335q-137 0 -255 -9q-11 -136 -11 -242v-306q89 -6 225 -6t170 9q35 9 41.5 23t12.5 71t11 77h64q-7 -125 -7 -212t7 -249h-65l-10 119q-5 46 -35 62.5t-215 16.5q-17 0 -199 -6v-358q0 -128 4 -219
q201 -13 343.5 -13t237.5 37q19 57 51 216h66q-21 -179 -28 -333q-110 -13 -284 -13l-482 8q-63 0 -201 -8v46q59 26 94 52q7 34 8 61l7 167q3 51 3 99v77q-117 6 -261 6t-235 -6q-36 -60 -111.5 -200.5t-75.5 -169.5q-1 -28 27 -44t152 -19v-69q-139 7 -231 7t-229 -7v69
q59 0 91.5 11t98.5 131l536 948q78 136 78 159t-20 29t-180 15v59q49 -1 222 -2l279 -4l455 9q119 0 229 -12q-26 -124 -38 -307h-63q-3 118 -12 188q-128 42 -265 42z" />
    <glyph glyph-name="Ccedilla" unicode="&#xc7;" horiz-adv-x="1452" 
d="M965 78q244 0 413 120l17 -21l-39 -93q-218 -110 -463 -112l-45 -106q34 6 61 6q85 0 129.5 -41t44.5 -105t-61.5 -115.5t-171.5 -51.5t-200 32l31 67q70 -24 132 -24q109 0 109 85q0 77 -103 77q-25 0 -60 -10l-18 15l78 173q-332 17 -540 218.5t-208 520t222.5 528
t607.5 209.5q167 0 318 -40t176 -45q-45 -112 -55 -305h-63l-1 118q-20 194 -397 194q-142 -2 -241 -36.5t-222 -156t-124 -426.5q-1 -306 184 -490.5t489 -184.5z" />
    <glyph glyph-name="Egrave" unicode="&#xc8;" horiz-adv-x="1251" 
d="M249 431v511q-1 352 -15 374t-40 30t-144 11v64l285 -6l302 5q217 3 315 3t187 -11q-16 -56 -20 -82t-20 -225h-63q1 102 -13 186q-108 45 -345 45q-94 0 -226 -11q-4 -111 -6 -208l-4 -338q118 -6 226 -6q108 -1 166 7t67 20t16 82l6 70h60v-19l-5 -208l5 -233h-70
l-3 68q-2 74 -14 92t-56 28t-160 9q-116 0 -238 -5q-5 -100 -5 -291t5 -287q144 -11 297 -11t207 8t100 27q32 82 53 218h66q-26 -202 -26 -335q-86 -13 -209 -13l-597 8q-13 0 -262 -8v63q105 1 129 11t31 28q18 38 18 329zM339 1768q-1 28 23 50t55 23t49 -11t52 -47
l287 -296h-84l-310 189q-45 28 -59 46t-13 46z" />
    <glyph glyph-name="Eacute" unicode="&#xc9;" horiz-adv-x="1251" 
d="M249 431v511q-1 352 -15 374t-40 30t-144 11v64l285 -6l302 5q217 3 315 3t187 -11q-16 -56 -20 -82t-20 -225h-63q1 102 -13 186q-108 45 -345 45q-94 0 -226 -11q-4 -111 -6 -208l-4 -338q118 -6 226 -6q108 -1 166 7t67 20t16 82l6 70h60v-19l-5 -208l5 -233h-70
l-3 68q-2 74 -14 92t-56 28t-160 9q-116 0 -238 -5q-5 -100 -5 -291t5 -287q144 -11 297 -11t207 8t100 27q32 82 53 218h66q-26 -202 -26 -335q-86 -13 -209 -13l-597 8q-13 0 -262 -8v63q105 1 129 11t31 28q18 38 18 329zM860 1841q30 -1 52 -23q23 -22 23 -50
q1 -28 -13 -46t-58 -46l-311 -189h-84l287 296q38 40 56 49t48 9z" />
    <glyph glyph-name="Ecircumflex" unicode="&#xca;" horiz-adv-x="1251" 
d="M249 431v511q-1 352 -15 374t-40 30t-144 11v64l285 -6l302 5q217 3 315 3t187 -11q-16 -56 -20 -82t-20 -225h-63q1 102 -13 186q-108 45 -345 45q-94 0 -226 -11q-4 -111 -6 -208l-4 -338q118 -6 226 -6q108 -1 166 7t67 20t16 82l6 70h60v-19l-5 -208l5 -233h-70
l-3 68q-2 74 -14 92t-56 28t-160 9q-116 0 -238 -5q-5 -100 -5 -291t5 -287q144 -11 297 -11t207 8t100 27q32 82 53 218h66q-26 -202 -26 -335q-86 -13 -209 -13l-597 8q-13 0 -262 -8v63q105 1 129 11t31 28q18 38 18 329zM559 1836h133l252 -345h-85l-237 209l-240 -209
h-80z" />
    <glyph glyph-name="Edieresis" unicode="&#xcb;" horiz-adv-x="1251" 
d="M249 431v511q-1 352 -15 374t-40 30t-144 11v64l285 -6l302 5q217 3 315 3t187 -11q-16 -56 -20 -82t-20 -225h-63q1 102 -13 186q-108 45 -345 45q-94 0 -226 -11q-4 -111 -6 -208l-4 -338q118 -6 226 -6q108 -1 166 7t67 20t16 82l6 70h60v-19l-5 -208l5 -233h-70
l-3 68q-2 74 -14 92t-56 28t-160 9q-116 0 -238 -5q-5 -100 -5 -291t5 -287q144 -11 297 -11t207 8t100 27q32 82 53 218h66q-26 -202 -26 -335q-86 -13 -209 -13l-597 8q-13 0 -262 -8v63q105 1 129 11t31 28q18 38 18 329zM830 1765q46 1 77 -31q32 -32 32 -78t-32 -77
q-32 -32 -77 -32t-77 32q-32 31 -32 77q-1 46 31 78t78 31zM418 1765q46 1 76 -31q32 -32 32 -78t-32 -77q-32 -32 -77 -32t-77 32q-32 31 -32 77t32 78t78 31z" />
    <glyph glyph-name="Igrave" unicode="&#xcc;" horiz-adv-x="690" 
d="M246 942q0 352 -14 374t-40 30t-145 11v64q191 -7 293 -7t296 7v-64q-118 -3 -144 -11t-37 -26t-13 -66t-5 -312v-463q1 -351 15 -373q14 -24 40 -32t144 -10v-64q-213 8 -280 8l-309 -8v64q118 2 144 10t37 26t13 67t5 312v463zM34 1768q0 28 24 50t54 23q31 1 49 -11
t52 -47l287 -296h-84l-310 189q-44 28 -58 46t-14 46z" />
    <glyph glyph-name="Iacute" unicode="&#xcd;" horiz-adv-x="690" 
d="M246 942q0 352 -14 374t-40 30t-145 11v64q191 -7 293 -7t296 7v-64q-118 -3 -144 -11t-37 -26t-13 -66t-5 -312v-463q1 -351 15 -373q14 -24 40 -32t144 -10v-64q-213 8 -280 8l-309 -8v64q118 2 144 10t37 26t13 67t5 312v463zM564 1841q30 -1 52 -23q23 -22 23 -50
q1 -28 -13 -46t-58 -46l-311 -189h-84l287 296q38 40 56 49t48 9z" />
    <glyph glyph-name="Icircumflex" unicode="&#xce;" horiz-adv-x="690" 
d="M246 942q0 352 -14 374t-40 30t-145 11v64q191 -7 293 -7t296 7v-64q-118 -3 -144 -11t-37 -26t-13 -66t-5 -312v-463q1 -351 15 -373q14 -24 40 -32t144 -10v-64q-213 8 -280 8l-309 -8v64q118 2 144 10t37 26t13 67t5 312v463zM277 1836h133l252 -345h-85l-237 209
l-240 -209h-80z" />
    <glyph glyph-name="Idieresis" unicode="&#xcf;" horiz-adv-x="690" 
d="M246 942q0 352 -14 374t-40 30t-145 11v64q191 -7 293 -7t296 7v-64q-118 -3 -144 -11t-37 -26t-13 -66t-5 -312v-463q1 -351 15 -373q14 -24 40 -32t144 -10v-64q-213 8 -280 8l-309 -8v64q118 2 144 10t37 26t13 67t5 312v463zM548 1765q46 1 77 -31q32 -32 32 -78
t-32 -77q-32 -32 -77 -32t-77 32q-32 31 -32 77q-1 46 31 78t78 31zM136 1765q46 1 76 -31q32 -32 32 -78t-32 -77q-32 -32 -77 -32t-77 32q-32 31 -32 77t32 78t78 31z" />
    <glyph glyph-name="Eth" unicode="&#xd0;" horiz-adv-x="1585" 
d="M634 90q124 0 220.5 22t165 62t132.5 118t98.5 199.5t34.5 279.5t-66.5 291.5t-200.5 204.5t-368 71q-123 0 -250 -19q-3 -49 -5 -174l-4 -145v-231h342v-77h-342v-91l3 -310q1 -71 6 -182q110 -19 234 -19zM204 583v109h-178v77h178v222q0 293 -20 333q-6 13 -30 23
t-128 11v63q146 -6 258 -6l465 8q245 0 394 -62.5t253 -209.5t104 -359q0 -302 -167.5 -500.5t-334.5 -245t-351 -46.5l-343 8q-61 0 -214 -8v48q58 33 97 60q17 193 17 475z" />
    <glyph glyph-name="Ntilde" unicode="&#xd1;" horiz-adv-x="1702" 
d="M235 431v815q0 33 -6 47q-6 15 -29 35q-22 20 -46 24t-105 6v63q167 -4 225 -4t130 4q85 -111 125 -164l207 -255l302 -364q255 -306 327 -378v731q0 289 -20 333q-7 13 -31 23t-127 11v63q117 -4 235 -4t211 4v-63q-103 -1 -127 -11q-24 -11 -32 -27q-18 -37 -18 -329
v-481q0 -146 5 -545l-103 30l-24 5q-25 8 -171 188l-129 163l-709 847v-767q0 -291 20 -333q7 -14 31 -24t127 -11v-63q-88 7 -199 7t-247 -7v63q105 1 129 11t31 28q18 38 18 329zM699 1641q-71 0 -107 -96h-68q25 108 87 165t130 57q68 1 155 -41q86 -42 110 -49t44 -7
q62 0 105 101h68q-29 -115 -89 -171t-128 -56t-155 42q-85 42 -109 48q-24 7 -43 7z" />
    <glyph glyph-name="Ograve" unicode="&#xd2;" horiz-adv-x="1610" 
d="M834 62q161 0 280 78q236 156 236 550q0 509 -368 641q-96 34 -230 34t-254 -71q-120 -72 -180 -206t-61 -318t57 -326t136 -224q150 -158 384 -158zM49 710q0 325 214 532q214 208 558 208q165 0 300 -46q337 -116 419 -451q22 -92 22 -197q0 -337 -226 -561t-572 -224
q-157 0 -293 51q-136 52 -230 152t-143 244t-49 292zM519 1768q-1 28 23 50t55 23t49 -11t52 -47l287 -296h-84l-310 189q-45 28 -59 46t-13 46z" />
    <glyph glyph-name="Oacute" unicode="&#xd3;" horiz-adv-x="1610" 
d="M834 62q161 0 280 78q236 156 236 550q0 509 -368 641q-96 34 -230 34t-254 -71q-120 -72 -180 -206t-61 -318t57 -326t136 -224q150 -158 384 -158zM49 710q0 325 214 532q214 208 558 208q165 0 300 -46q337 -116 419 -451q22 -92 22 -197q0 -337 -226 -561t-572 -224
q-157 0 -293 51q-136 52 -230 152t-143 244t-49 292zM1076 1841q30 -1 52 -23q23 -22 23 -50q1 -28 -13 -46t-58 -46l-311 -189h-84l287 296q38 40 56 49t48 9z" />
    <glyph glyph-name="Ocircumflex" unicode="&#xd4;" horiz-adv-x="1610" 
d="M834 62q161 0 280 78q236 156 236 550q0 509 -368 641q-96 34 -230 34t-254 -71q-120 -72 -180 -206t-61 -318t57 -326t136 -224q150 -158 384 -158zM49 710q0 325 214 532q214 208 558 208q165 0 300 -46q337 -116 419 -451q22 -92 22 -197q0 -337 -226 -561t-572 -224
q-157 0 -293 51q-136 52 -230 152t-143 244t-49 292zM739 1836h133l252 -345h-85l-237 209l-240 -209h-80z" />
    <glyph glyph-name="Otilde" unicode="&#xd5;" horiz-adv-x="1610" 
d="M834 62q161 0 280 78q236 156 236 550q0 509 -368 641q-96 34 -230 34t-254 -71q-120 -72 -180 -206t-61 -318t57 -326t136 -224q150 -158 384 -158zM49 710q0 325 214 532q214 208 558 208q165 0 300 -46q337 -116 419 -451q22 -92 22 -197q0 -337 -226 -561t-572 -224
q-157 0 -293 51q-136 52 -230 152t-143 244t-49 292zM663 1641q-71 0 -107 -96h-68q25 108 87 165t130 57q68 1 155 -41q86 -42 110 -49t44 -7q62 0 105 101h68q-29 -115 -89 -171t-128 -56t-155 42q-85 42 -109 48q-24 7 -43 7z" />
    <glyph glyph-name="Odieresis" unicode="&#xd6;" horiz-adv-x="1610" 
d="M834 62q161 0 280 78q236 156 236 550q0 509 -368 641q-96 34 -230 34t-254 -71q-120 -72 -180 -206t-61 -318t57 -326t136 -224q150 -158 384 -158zM49 710q0 325 214 532q214 208 558 208q165 0 300 -46q337 -116 419 -451q22 -92 22 -197q0 -337 -226 -561t-572 -224
q-157 0 -293 51q-136 52 -230 152t-143 244t-49 292zM1032 1765q46 1 78 -31t32 -78t-32 -77q-32 -32 -77 -32t-77 32q-32 31 -32 77t32 78q30 32 76 31zM620 1765q46 1 78 -31t31 -78q0 -46 -32 -77q-32 -32 -77 -32t-77 32q-32 31 -32 77t32 78q31 32 77 31z" />
    <glyph glyph-name="multiply" unicode="&#xd7;" horiz-adv-x="1241" 
d="M254 1041l366 -355l373 356l89 -79l-377 -363l377 -358l-89 -78l-372 358l-366 -359l-79 83l359 354l-357 363z" />
    <glyph glyph-name="Oslash" unicode="&#xd8;" horiz-adv-x="1706" 
d="M1398 705q0 101 -16.5 175.5t-68.5 203.5l-859 -812q61 -74 110 -112q127 -100 317 -99q230 0 373.5 160t143.5 484zM304 759q0 -195 101 -408l860 809q-154 204 -438 204q-156 0 -277.5 -70t-183.5 -205t-62 -330zM98 713q0 323 213.5 529.5t568.5 206.5
q151 0 272 -40.5t240 -130.5l179 166l63 -55l-181 -172q75 -91 115 -199t40 -260q0 -373 -265 -600q-220 -188 -527 -188t-498 175l-184 -174l-61 64l185 178q-160 219 -160 500z" />
    <glyph glyph-name="Ugrave" unicode="&#xd9;" horiz-adv-x="1593" 
d="M334 1413q141 0 281 8v-64q-118 -3 -144 -11t-37 -26t-13 -66t-5 -312v-370q0 -216 28 -284q76 -189 385 -188q112 0 199 28q148 47 192 147q44 101 44 359v308q0 352 -14 374t-41 30q-26 8 -144 11v64q165 -8 237 -8t253 8v-64q-119 -3 -145 -11t-36 -26
q-11 -18 -13 -66t-5 -312v-335q0 -247 -34 -345t-116 -164q-157 -127 -429 -127q-154 1 -267 37t-172 96t-84 131q-25 72 -25 265v442q-1 352 -15 374t-40 30t-144 11v64q163 -8 304 -8zM521 1768q-1 28 23 50t55 23t49 -11t52 -47l287 -296h-84l-310 189q-45 28 -59 46
t-13 46z" />
    <glyph glyph-name="Uacute" unicode="&#xda;" horiz-adv-x="1593" 
d="M334 1413q141 0 281 8v-64q-118 -3 -144 -11t-37 -26t-13 -66t-5 -312v-370q0 -216 28 -284q76 -189 385 -188q112 0 199 28q148 47 192 147q44 101 44 359v308q0 352 -14 374t-41 30q-26 8 -144 11v64q165 -8 237 -8t253 8v-64q-119 -3 -145 -11t-36 -26
q-11 -18 -13 -66t-5 -312v-335q0 -247 -34 -345t-116 -164q-157 -127 -429 -127q-154 1 -267 37t-172 96t-84 131q-25 72 -25 265v442q-1 352 -15 374t-40 30t-144 11v64q163 -8 304 -8zM1066 1841q30 -1 52 -23q23 -22 23 -50q1 -28 -13 -46t-58 -46l-311 -189h-84l287 296
q38 40 56 49t48 9z" />
    <glyph glyph-name="Ucircumflex" unicode="&#xdb;" horiz-adv-x="1593" 
d="M334 1413q141 0 281 8v-64q-118 -3 -144 -11t-37 -26t-13 -66t-5 -312v-370q0 -216 28 -284q76 -189 385 -188q112 0 199 28q148 47 192 147q44 101 44 359v308q0 352 -14 374t-41 30q-26 8 -144 11v64q165 -8 237 -8t253 8v-64q-119 -3 -145 -11t-36 -26
q-11 -18 -13 -66t-5 -312v-335q0 -247 -34 -345t-116 -164q-157 -127 -429 -127q-154 1 -267 37t-172 96t-84 131q-25 72 -25 265v442q-1 352 -15 374t-40 30t-144 11v64q163 -8 304 -8zM741 1836h133l252 -345h-85l-237 209l-240 -209h-80z" />
    <glyph glyph-name="Udieresis" unicode="&#xdc;" horiz-adv-x="1593" 
d="M334 1413q141 0 281 8v-64q-118 -3 -144 -11t-37 -26t-13 -66t-5 -312v-370q0 -216 28 -284q76 -189 385 -188q112 0 199 28q148 47 192 147q44 101 44 359v308q0 352 -14 374t-41 30q-26 8 -144 11v64q165 -8 237 -8t253 8v-64q-119 -3 -145 -11t-36 -26
q-11 -18 -13 -66t-5 -312v-335q0 -247 -34 -345t-116 -164q-157 -127 -429 -127q-154 1 -267 37t-172 96t-84 131q-25 72 -25 265v442q-1 352 -15 374t-40 30t-144 11v64q163 -8 304 -8zM1048 1765q46 1 77 -31q32 -32 32 -78t-32 -77q-32 -32 -77 -32t-77 32q-32 31 -32 77
q-1 46 31 78t78 31zM636 1765q46 1 76 -31q32 -32 32 -78t-32 -77q-32 -32 -77 -32t-77 32q-32 31 -32 77t32 78t78 31z" />
    <glyph glyph-name="Yacute" unicode="&#xdd;" horiz-adv-x="1366" 
d="M23 1333v61l241 47q40 -15 55 -27t75 -92q127 -170 350 -618q106 163 217 354l213 363h153v-27q-55 -61 -171 -222t-226 -343q-110 -181 -122 -213q-11 -32 -11 -60v-77q1 -351 15 -373q14 -24 40 -32t144 -10v-64q-164 8 -280 8t-303 -8v64q118 2 144 10t37 26t13 67
t5 312v117q-30 64 -143 253l-66 108q-155 254 -237 331q-26 25 -54 35t-89 10zM952 1841q30 -1 53 -23t23 -50t-14 -46t-57 -46l-311 -189h-84l287 296q39 40 57 49q16 9 46 9z" />
    <glyph glyph-name="Thorn" unicode="&#xde;" horiz-adv-x="1237" 
d="M384 1413q112 0 284 8v-64q-127 -3 -152 -15q-26 -12 -38 -44t-12 -184q58 -3 134 -3l161 3q200 0 308 -88.5t108 -229.5q0 -103 -58 -207.5t-164.5 -164t-239.5 -59.5q-52 0 -106 13l-21 76q68 -19 112 -19q114 0 193.5 84t79.5 204t-43.5 184t-113.5 92.5t-164 28.5
t-186 -17v-532q0 -351 19 -380q10 -15 35.5 -24t144.5 -11v-64q-177 8 -291 8t-303 -8v64q118 2 144 10t37 26t13 67t5 312v463q0 352 -14.5 374t-40 30.5t-144.5 10.5v64q201 -8 313 -8z" />
    <glyph glyph-name="germandbls" unicode="&#xdf;" horiz-adv-x="1139" 
d="M895 1105q0 137 -74 215t-174 78t-165 -45.5t-94 -126t-29 -251.5v-638q0 -207 6 -229t25 -34t119 -13q29 62 50 167h53v-94q72 -65 145 -65t120 45.5t47 101.5t-19 89.5t-57 62.5t-144 98q-106 68 -134 108t-28 82t24 87l145 172q50 25 87 25h74q23 90 23 165zM271 7
q-108 0 -228 -7v61q98 1 117.5 13t25.5 64t6 164v483h-128v37l128 67v73q0 86 13 140.5t55.5 117.5t125 136t150 103t157.5 30t202.5 -54t112.5 -252q0 -104 -18.5 -200t-28 -127t-29.5 -49q-25 -4 -61.5 16.5t-90.5 20.5q-55 0 -84 -28t-29 -65t22 -65t136 -91t150 -91
q80 -61 80 -173q0 -111 -65 -200l-98 -83q-35 -29 -73 -49.5t-129 -20.5t-181 56v-34q-130 7 -238 7z" />
    <glyph glyph-name="agrave" unicode="&#xe0;" 
d="M413 104q133 0 263 154v270q-276 -47 -352 -105q-22 -17 -44 -59t-22 -110t41 -108q41 -42 114 -42zM165 763q0 41 -1 66q126 83 198 108t168 25t173 -43q78 -43 110 -111t32 -165l-4 -183v-298q0 -76 27 -91q10 -6 42 -8l65 -6v-57q-82 7 -143 7t-161 -7l5 176
q-204 -154 -242 -174t-96 -19q-120 1 -188 65t-68 171q0 69 24 126q42 102 123 140q59 27 189 58t258 46q1 95 -23 148t-81 87q-58 34 -128 34t-114 -16t-55 -27l-18 -36q-27 -60 -40 -94l-53 14q1 23 1 64zM164 1335q0 29 24 51t54 22q31 0 49 -12t52 -46l287 -296h-84
l-310 189q-44 28 -58 46t-14 46z" />
    <glyph glyph-name="aacute" unicode="&#xe1;" 
d="M413 104q133 0 263 154v270q-276 -47 -352 -105q-22 -17 -44 -59t-22 -110t41 -108q41 -42 114 -42zM165 763q0 41 -1 66q126 83 198 108t168 25t173 -43q78 -43 110 -111t32 -165l-4 -183v-298q0 -76 27 -91q10 -6 42 -8l65 -6v-57q-82 7 -143 7t-161 -7l5 176
q-204 -154 -242 -174t-96 -19q-120 1 -188 65t-68 171q0 69 24 126q42 102 123 140q59 27 189 58t258 46q1 95 -23 148t-81 87q-58 34 -128 34t-114 -16t-55 -27l-18 -36q-27 -60 -40 -94l-53 14q1 23 1 64zM782 1408q30 0 52 -22q23 -22 23 -51q1 -29 -13 -47t-58 -45
l-311 -189h-84l287 296q38 40 56 49t48 9z" />
    <glyph glyph-name="acircumflex" unicode="&#xe2;" 
d="M413 104q133 0 263 154v270q-276 -47 -352 -105q-22 -17 -44 -59t-22 -110t41 -108q41 -42 114 -42zM165 763q0 41 -1 66q126 83 198 108t168 25t173 -43q78 -43 110 -111t32 -165l-4 -183v-298q0 -76 27 -91q10 -6 42 -8l65 -6v-57q-82 7 -143 7t-161 -7l5 176
q-204 -154 -242 -174t-96 -19q-120 1 -188 65t-68 171q0 69 24 126q42 102 123 140q59 27 189 58t258 46q1 95 -23 148t-81 87q-58 34 -128 34t-114 -16t-55 -27l-18 -36q-27 -60 -40 -94l-53 14q1 23 1 64zM457 1403h133l252 -345h-85l-237 209l-240 -209h-80z" />
    <glyph glyph-name="atilde" unicode="&#xe3;" 
d="M413 104q133 0 263 154v270q-276 -47 -352 -105q-22 -17 -44 -59t-22 -110t41 -108q41 -42 114 -42zM165 763q0 41 -1 66q126 83 198 108t168 25t173 -43q78 -43 110 -111t32 -165l-4 -183v-298q0 -76 27 -91q10 -6 42 -8l65 -6v-57q-82 7 -143 7t-161 -7l5 176
q-204 -154 -242 -174t-96 -19q-120 1 -188 65t-68 171q0 69 24 126q42 102 123 140q59 27 189 58t258 46q1 95 -23 148t-81 87q-58 34 -128 34t-114 -16t-55 -27l-18 -36q-27 -60 -40 -94l-53 14q1 23 1 64zM346 1208q-71 0 -107 -96h-68q25 108 87 165t130 57t155 -42
t111 -48q24 -7 43 -7q62 0 105 101h68q-29 -115 -89 -171t-128 -56q-68 -1 -155 41q-86 42 -110 49t-42 7z" />
    <glyph glyph-name="adieresis" unicode="&#xe4;" 
d="M413 104q133 0 263 154v270q-276 -47 -352 -105q-22 -17 -44 -59t-22 -110t41 -108q41 -42 114 -42zM165 763q0 41 -1 66q126 83 198 108t168 25t173 -43q78 -43 110 -111t32 -165l-4 -183v-298q0 -76 27 -91q10 -6 42 -8l65 -6v-57q-82 7 -143 7t-161 -7l5 176
q-204 -154 -242 -174t-96 -19q-120 1 -188 65t-68 171q0 69 24 126q42 102 123 140q59 27 189 58t258 46q1 95 -23 148t-81 87q-58 34 -128 34t-114 -16t-55 -27l-18 -36q-27 -60 -40 -94l-53 14q1 23 1 64zM728 1332q46 0 77 -32q32 -32 32 -76q0 -46 -32 -78t-77 -32
t-77 32t-32 78q-1 46 31 76q32 32 78 32zM316 1332q46 0 76 -32q32 -32 32 -76q0 -46 -32 -78t-77 -32t-77 32t-32 78t32 76q32 32 78 32z" />
    <glyph glyph-name="aring" unicode="&#xe5;" 
d="M413 104q133 0 263 154v270q-276 -47 -352 -105q-22 -17 -44 -59t-22 -110t41 -108q41 -42 114 -42zM165 763q0 41 -1 66q126 83 198 108t168 25t173 -43q78 -43 110 -111t32 -165l-4 -183v-298q0 -76 27 -91q10 -6 42 -8l65 -6v-57q-82 7 -143 7t-161 -7l5 176
q-204 -154 -242 -174t-96 -19q-120 1 -188 65t-68 171q0 69 24 126q42 102 123 140q59 27 189 58t258 46q1 95 -23 148t-81 87q-58 34 -128 34t-114 -16t-55 -27l-18 -36q-27 -60 -40 -94l-53 14q1 23 1 64zM532 1396q-62 0 -92 -41t-31 -108q1 -67 31 -108t92 -41t92 41
t31 108q-1 67 -31 108t-92 41zM532 1452q102 0 164 -60t61 -145q1 -85 -61 -145t-164 -60t-164 60t-61 145q-1 85 61 145t164 60z" />
    <glyph glyph-name="ae" unicode="&#xe6;" horiz-adv-x="1552" 
d="M374 106q62 0 108 16.5t90 53t71 75.5v237q-198 -6 -373 -90q-47 -65 -47 -133t44.5 -113.5t106.5 -45.5zM1044 553q179 0 253 6q4 236 -80 289.5t-169 53.5t-152 -59q-91 -80 -94 -284q63 -6 242 -6zM1410 79q-162 -102 -345 -102t-260 74t-122 145q-128 -92 -249 -196
q-65 -22 -127 -22q-135 0 -198.5 77t-63.5 151q0 144 83 225q12 13 74 38q175 71 441 85q-2 302 -236 302q-85 0 -177 -43q-17 -30 -53 -124l-53 12v126l131 75q82 44 106 54t119 11q96 1 159 -31t127 -109q67 57 134 99.5t200 42.5q173 0 275 -101.5t102 -275.5
q0 -36 -5 -75q-49 -17 -139 -25t-384 -9h-147q18 -402 369 -402q124 0 260 91l18 -20z" />
    <glyph glyph-name="ccedilla" unicode="&#xe7;" horiz-adv-x="909" 
d="M581 -128q85 0 129.5 -41t44.5 -105t-61.5 -115.5t-171.5 -51.5t-200 32l31 67q70 -24 132 -24q109 0 109 85q0 77 -103 77q-25 0 -60 -10l-18 15l80 178q-188 13 -300.5 137.5t-112.5 342.5t116 329q33 33 125.5 85.5t144.5 74.5t178.5 22t223.5 -59q-20 -127 -30 -260
h-57q-8 129 -30 148q-89 69 -216 69q-275 0 -275 -330q0 -200 95 -328.5t268 -128.5q94 0 224 60l21 -26l-40 -67q-120 -64 -261 -70l-47 -112q34 6 61 6z" />
    <glyph glyph-name="egrave" unicode="&#xe8;" horiz-adv-x="981" 
d="M516 553q171 0 213 5q1 24 1 37q0 158 -64 232t-174 74t-179 -81t-70 -256q102 -11 273 -11zM610 81q103 0 258 91l16 -17l-32 -72q-68 -43 -108 -61q-105 -47 -233 -46q-127 0 -234 55t-167 165t-59 240q-1 132 31 224t66 130t96 80q145 98 274 98q130 0 220 -51
q174 -98 175 -338q0 -28 -4 -68q-134 -26 -345 -26h-321q5 -273 181 -362q84 -42 186 -42zM164 1335q0 29 24 51t54 22q31 0 49 -12t52 -46l287 -296h-84l-310 189q-44 28 -58 46t-14 46z" />
    <glyph glyph-name="eacute" unicode="&#xe9;" horiz-adv-x="981" 
d="M516 553q171 0 213 5q1 24 1 37q0 158 -64 232t-174 74t-179 -81t-70 -256q102 -11 273 -11zM610 81q103 0 258 91l16 -17l-32 -72q-68 -43 -108 -61q-105 -47 -233 -46q-127 0 -234 55t-167 165t-59 240q-1 132 31 224t66 130t96 80q145 98 274 98q130 0 220 -51
q174 -98 175 -338q0 -28 -4 -68q-134 -26 -345 -26h-321q5 -273 181 -362q84 -42 186 -42zM734 1408q30 0 53 -22t23 -51t-14 -47t-57 -45l-311 -189h-84l287 296q39 40 57 49q16 9 46 9z" />
    <glyph glyph-name="ecircumflex" unicode="&#xea;" horiz-adv-x="981" 
d="M516 553q171 0 213 5q1 24 1 37q0 158 -64 232t-174 74t-179 -81t-70 -256q102 -11 273 -11zM610 81q103 0 258 91l16 -17l-32 -72q-68 -43 -108 -61q-105 -47 -233 -46q-127 0 -234 55t-167 165t-59 240q-1 132 31 224t66 130t96 80q145 98 274 98q130 0 220 -51
q174 -98 175 -338q0 -28 -4 -68q-134 -26 -345 -26h-321q5 -273 181 -362q84 -42 186 -42zM468 1403h133l252 -345h-85l-237 209l-240 -209h-80z" />
    <glyph glyph-name="edieresis" unicode="&#xeb;" horiz-adv-x="981" 
d="M516 553q171 0 213 5q1 24 1 37q0 158 -64 232t-174 74t-179 -81t-70 -256q102 -11 273 -11zM610 81q103 0 258 91l16 -17l-32 -72q-68 -43 -108 -61q-105 -47 -233 -46q-127 0 -234 55t-167 165t-59 240q-1 132 31 224t66 130t96 80q145 98 274 98q130 0 220 -51
q174 -98 175 -338q0 -28 -4 -68q-134 -26 -345 -26h-321q5 -273 181 -362q84 -42 186 -42zM738 1332q46 0 78 -32t32 -76q0 -46 -32 -78t-77 -32t-77 32t-32 78t32 76q30 32 76 32zM326 1332q46 0 78 -32t31 -76q0 -46 -32 -78t-77 -32t-77 32t-32 78t32 76q31 32 77 32z
" />
    <glyph glyph-name="igrave" unicode="&#xec;" horiz-adv-x="588" 
d="M41 823v57q194 22 326 84l22 -16q-8 -213 -8 -326v-182q5 -260 6 -296q2 -73 48 -84q6 -1 111 -3v-57q-152 7 -238 7t-267 -7v57l95 1q37 2 49 23q11 21 13 53t8 306v176q0 148 -8 170t-24 30t-133 7zM-23 1335q-1 29 23 51t55 22t49 -12t52 -46l287 -296h-84l-310 189
q-45 28 -59 46t-13 46z" />
    <glyph glyph-name="iacute" unicode="&#xed;" horiz-adv-x="588" 
d="M41 823v57q194 22 326 84l22 -16q-8 -213 -8 -326v-182q5 -260 6 -296q2 -73 48 -84q6 -1 111 -3v-57q-152 7 -238 7t-267 -7v57l95 1q37 2 49 23q11 21 13 53t8 306v176q0 148 -8 170t-24 30t-133 7zM554 1408q30 0 53 -22t23 -51t-14 -47t-57 -45l-311 -189h-84
l287 296q39 40 57 49q16 9 46 9z" />
    <glyph glyph-name="icircumflex" unicode="&#xee;" horiz-adv-x="588" 
d="M41 823v57q194 22 326 84l22 -16q-8 -213 -8 -326v-182q5 -260 6 -296q2 -73 48 -84q6 -1 111 -3v-57q-152 7 -238 7t-267 -7v57l95 1q37 2 49 23q11 21 13 53t8 306v176q0 148 -8 170t-24 30t-133 7zM277 1403h133l252 -345h-85l-237 209l-240 -209h-80z" />
    <glyph glyph-name="idieresis" unicode="&#xef;" horiz-adv-x="588" 
d="M41 823v57q194 22 326 84l22 -16q-8 -213 -8 -326v-182q5 -260 6 -296q2 -73 48 -84q6 -1 111 -3v-57q-152 7 -238 7t-267 -7v57l95 1q37 2 49 23q11 21 13 53t8 306v176q0 148 -8 170t-24 30t-133 7zM548 1332q46 0 77 -32q32 -32 32 -76q0 -46 -32 -78t-77 -32t-77 32
t-32 78q-1 46 31 76q32 32 78 32zM136 1332q46 0 76 -32q32 -32 32 -76q0 -46 -32 -78t-77 -32t-77 32t-32 78t32 76q32 32 78 32z" />
    <glyph glyph-name="eth" unicode="&#xf0;" horiz-adv-x="1118" 
d="M266 562q0 -94 21 -218.5t98 -215.5t186 -91q139 0 215 139t76 330t-89 294t-220 103q-182 0 -234.5 -123.5t-52.5 -217.5zM1042 532q0 -152 -65 -285.5t-183.5 -205.5t-265.5 -72q-196 0 -324 132t-128 351q0 154 61 272.5t176.5 182.5t238.5 64t235 -51
q-73 177 -199 292l-287 -135l-37 60l278 131q-87 81 -248 166l68 65q182 -104 273 -181l292 140l36 -58l-265 -132q114 -114 185 -216.5t115 -235t44 -284.5z" />
    <glyph glyph-name="ntilde" unicode="&#xf1;" horiz-adv-x="1192" 
d="M350 962q15 0 15 -20q0 -8 -2 -30t-5 -138l186 159q82 30 159 30t149 -33t110 -83q36 -51 46 -111t9 -266v-177q1 -195 23 -219q10 -12 32 -14l107 -3v-57q-99 7 -159 7t-190 -7q14 247 14 312v168q0 157 -14 215t-75 99q-60 41 -140 41q-80 1 -142 -35q-63 -36 -89 -82
t-26 -157v-121q6 -260 7 -296t10 -56q9 -21 27 -25q17 -4 121 -6v-57q-121 7 -213 7t-282 -7v57l95 1q37 2 49 23t14 53t7 306v119q1 221 -9 237t-26 22t-130 4v57q202 28 295 73q20 10 27 10zM424 1208q-71 0 -107 -96h-68q25 108 87 165t130 57t155 -42t111 -48
q24 -7 43 -7q62 0 105 101h68q-29 -115 -89 -171t-128 -56q-68 -1 -155 41q-86 42 -110 49t-42 7z" />
    <glyph glyph-name="ograve" unicode="&#xf2;" horiz-adv-x="1118" 
d="M257 534q0 -123 41 -250q40 -128 118 -186t182 -58t181 92q78 92 78 267q-1 175 -47 291q-85 210 -277 210q-123 0 -199 -89t-77 -277zM68 460q0 224 142 366t360 141q216 0 348 -132t132 -341q0 -146 -68 -267t-192 -189t-256 -69q-311 0 -420 258q-46 109 -46 233z
M164 1335q0 29 24 51t54 22q31 0 49 -12t52 -46l287 -296h-84l-310 189q-44 28 -58 46t-14 46z" />
    <glyph glyph-name="oacute" unicode="&#xf3;" horiz-adv-x="1118" 
d="M257 534q0 -123 41 -250q40 -128 118 -186t182 -58t181 92q78 92 78 267q-1 175 -47 291q-85 210 -277 210q-123 0 -199 -89t-77 -277zM68 460q0 224 142 366t360 141q216 0 348 -132t132 -341q0 -146 -68 -267t-192 -189t-256 -69q-311 0 -420 258q-46 109 -46 233z
M792 1408q30 0 52 -22q23 -22 23 -51q1 -29 -13 -47t-58 -45l-311 -189h-84l287 296q38 40 56 49t48 9z" />
    <glyph glyph-name="ocircumflex" unicode="&#xf4;" horiz-adv-x="1118" 
d="M257 534q0 -123 41 -250q40 -128 118 -186t182 -58t181 92q78 92 78 267q-1 175 -47 291q-85 210 -277 210q-123 0 -199 -89t-77 -277zM68 460q0 224 142 366t360 141q216 0 348 -132t132 -341q0 -146 -68 -267t-192 -189t-256 -69q-311 0 -420 258q-46 109 -46 233z
M514 1403h133l252 -345h-85l-237 209l-240 -209h-80z" />
    <glyph glyph-name="otilde" unicode="&#xf5;" horiz-adv-x="1118" 
d="M257 534q0 -123 41 -250q40 -128 118 -186t182 -58t181 92q78 92 78 267q-1 175 -47 291q-85 210 -277 210q-123 0 -199 -89t-77 -277zM68 460q0 224 142 366t360 141q216 0 348 -132t132 -341q0 -146 -68 -267t-192 -189t-256 -69q-311 0 -420 258q-46 109 -46 233z
M403 1208q-71 0 -107 -96h-68q25 108 87 165t130 57t155 -42q86 -42 110 -48q24 -7 44 -7q62 0 105 101h68q-29 -115 -89 -171t-128 -56q-68 -1 -155 41q-85 42 -109 49t-43 7z" />
    <glyph glyph-name="odieresis" unicode="&#xf6;" horiz-adv-x="1118" 
d="M257 534q0 -123 41 -250q40 -128 118 -186t182 -58t181 92q78 92 78 267q-1 175 -47 291q-85 210 -277 210q-123 0 -199 -89t-77 -277zM68 460q0 224 142 366t360 141q216 0 348 -132t132 -341q0 -146 -68 -267t-192 -189t-256 -69q-311 0 -420 258q-46 109 -46 233z
M784 1332q46 0 78 -32t32 -76q0 -46 -32 -78t-77 -32t-77 32t-32 78t32 76q30 32 76 32zM372 1332q46 0 78 -32t31 -76q0 -46 -32 -78t-77 -32t-77 32t-32 78t32 76q31 32 77 32z" />
    <glyph glyph-name="divide" unicode="&#xf7;" horiz-adv-x="1124" 
d="M532 395q48 0 81.5 -34.5t33.5 -84.5t-34 -85t-81 -35t-80 35t-33 85t32.5 84.5t80.5 34.5zM14 647h1040v-91h-1040v91zM532 1047q48 0 81.5 -35.5t33.5 -85.5t-34 -84.5t-81 -34.5t-80 34.5t-33 84.5t32.5 85.5t80.5 35.5z" />
    <glyph glyph-name="oslash" unicode="&#xf8;" horiz-adv-x="1139" 
d="M868 425q0 101 -40 249l-486 -474q98 -160 251 -160q76 0 175.5 63.5t99.5 321.5zM792 751q-92 151 -257 151t-218 -121t-53 -237t45 -268zM77 449q0 159 64.5 278t184.5 179.5t260 60.5q182 0 318 -107l123 121l56 -54l-124 -123q53 -74 75 -141t22 -159
q0 -155 -65 -275.5t-190.5 -189t-275.5 -68.5q-94 0 -164 26.5t-138 84.5l-127 -122l-56 52l130 130q-93 148 -93 307z" />
    <glyph glyph-name="ugrave" unicode="&#xf9;" horiz-adv-x="1235" 
d="M1016 964q16 0 16 -20q0 -8 -7 -85t-7 -282v-137l2 -139q3 -121 4 -157q2 -73 48 -84q6 -1 111 -3v-57q-131 7 -201 7t-147 -7q6 81 9 182q-60 -48 -111 -99t-81 -67q-69 -38 -177 -38q-289 0 -289 301l5 127v171q0 183 -8 205t-20 30q-13 8 -59 8t-78 1v57
q215 24 312 77q16 9 25 9q16 0 16 -20q-1 -8 -3 -30t-6 -151t-5 -186v-195q1 -122 17 -172t64 -78q48 -30 106 -30q155 0 249 126q23 29 33 52t10 213v84q0 183 -8 205t-20 30t-58 8t-79 1v57q215 24 312 77q16 9 25 9zM303 1335q-1 29 23 51t55 22t49 -12t52 -46l287 -296
h-84l-310 189q-45 28 -59 46t-13 46z" />
    <glyph glyph-name="uacute" unicode="&#xfa;" horiz-adv-x="1235" 
d="M1016 964q16 0 16 -20q0 -8 -7 -85t-7 -282v-137l2 -139q3 -121 4 -157q2 -73 48 -84q6 -1 111 -3v-57q-131 7 -201 7t-147 -7q6 81 9 182q-60 -48 -111 -99t-81 -67q-69 -38 -177 -38q-289 0 -289 301l5 127v171q0 183 -8 205t-20 30q-13 8 -59 8t-78 1v57
q215 24 312 77q16 9 25 9q16 0 16 -20q-1 -8 -3 -30t-6 -151t-5 -186v-195q1 -122 17 -172t64 -78q48 -30 106 -30q155 0 249 126q23 29 33 52t10 213v84q0 183 -8 205t-20 30t-58 8t-79 1v57q215 24 312 77q16 9 25 9zM848 1408q30 0 52 -22q23 -22 23 -51q1 -29 -13 -47
t-58 -45l-311 -189h-84l287 296q38 40 56 49t48 9z" />
    <glyph glyph-name="ucircumflex" unicode="&#xfb;" horiz-adv-x="1235" 
d="M1016 964q16 0 16 -20q0 -8 -7 -85t-7 -282v-137l2 -139q3 -121 4 -157q2 -73 48 -84q6 -1 111 -3v-57q-131 7 -201 7t-147 -7q6 81 9 182q-60 -48 -111 -99t-81 -67q-69 -38 -177 -38q-289 0 -289 301l5 127v171q0 183 -8 205t-20 30q-13 8 -59 8t-78 1v57
q215 24 312 77q16 9 25 9q16 0 16 -20q-1 -8 -3 -30t-6 -151t-5 -186v-195q1 -122 17 -172t64 -78q48 -30 106 -30q155 0 249 126q23 29 33 52t10 213v84q0 183 -8 205t-20 30t-58 8t-79 1v57q215 24 312 77q16 9 25 9zM523 1403h133l252 -345h-85l-237 209l-240 -209h-80z
" />
    <glyph glyph-name="udieresis" unicode="&#xfc;" horiz-adv-x="1235" 
d="M1016 964q16 0 16 -20q0 -8 -7 -85t-7 -282v-137l2 -139q3 -121 4 -157q2 -73 48 -84q6 -1 111 -3v-57q-131 7 -201 7t-147 -7q6 81 9 182q-60 -48 -111 -99t-81 -67q-69 -38 -177 -38q-289 0 -289 301l5 127v171q0 183 -8 205t-20 30q-13 8 -59 8t-78 1v57
q215 24 312 77q16 9 25 9q16 0 16 -20q-1 -8 -3 -30t-6 -151t-5 -186v-195q1 -122 17 -172t64 -78q48 -30 106 -30q155 0 249 126q23 29 33 52t10 213v84q0 183 -8 205t-20 30t-58 8t-79 1v57q215 24 312 77q16 9 25 9zM830 1332q46 0 77 -32q32 -32 32 -76q0 -46 -32 -78
t-77 -32t-77 32t-32 78q-1 46 31 76q32 32 78 32zM418 1332q46 0 76 -32q32 -32 32 -76q0 -46 -32 -78t-77 -32t-77 32t-32 78t32 76q32 32 78 32z" />
    <glyph glyph-name="yacute" unicode="&#xfd;" horiz-adv-x="1139" 
d="M228 -426q66 0 121 63t149 311q-32 90 -77 202l-159 394q-70 176 -102 242t-52 78t-92 20v56q124 -7 244 -7t228 7v-56q-104 -7 -124 -15t-20 -29q0 -22 28 -108t63 -173l63 -156q57 -140 96 -227l53 118q31 70 117 287t87 243t-15 36t-121 20v60q115 -7 205 -7t178 7
l-10 -60q-51 -2 -79 -22q-29 -20 -85 -134t-209 -451l-231 -540q-56 -131 -97 -187q-83 -114 -223 -114q-59 0 -119 33l51 154h24q39 -33 58 -39q20 -6 50 -6zM838 1408q30 0 53 -22t23 -51t-14 -47t-57 -45l-311 -189h-84l287 296q39 40 57 49q16 9 46 9z" />
    <glyph glyph-name="thorn" unicode="&#xfe;" horiz-adv-x="1231" 
d="M970 484q0 111 -41.5 191.5t-118 121t-142.5 40.5t-122 -22.5t-101 -65.5t-55 -72t-11 -83v-388q114 -116 264 -116q199 0 263 141.5t64 252.5zM568 -19q-80 0 -189 53v-159q5 -253 7 -291t10 -59q9 -22 28 -26t129 -6v-57q-124 5 -284 5t-222 -5v57l94 1q38 2 50 23
q11 21 13 53t8 305v980q0 445 -17 479q-5 10 -18 16t-136 5v59q226 28 314 70q13 6 24 6t11 -17q0 -7 -2 -20l-1 -33q-5 -179 -6 -305l-2 -156v-200q169 157 217 181t167 23q118 0 251.5 -83.5t133.5 -318.5q0 -162 -64.5 -259.5t-83.5 -114.5t-85.5 -56.5t-124.5 -81.5
t-100 -55t-122 -13z" />
    <glyph glyph-name="ydieresis" unicode="&#xff;" horiz-adv-x="1139" 
d="M228 -426q66 0 121 63t149 311q-32 90 -77 202l-159 394q-70 176 -102 242t-52 78t-92 20v56q124 -7 244 -7t228 7v-56q-104 -7 -124 -15t-20 -29q0 -22 28 -108t63 -173l63 -156q57 -140 96 -227l53 118q31 70 117 287t87 243t-15 36t-121 20v60q115 -7 205 -7t178 7
l-10 -60q-51 -2 -79 -22q-29 -20 -85 -134t-209 -451l-231 -540q-56 -131 -97 -187q-83 -114 -223 -114q-59 0 -119 33l51 154h24q39 -33 58 -39q20 -6 50 -6zM808 1332q46 0 77 -32q32 -32 32 -76q0 -46 -32 -78t-77 -32t-77 32t-32 78q-1 46 31 76q32 32 78 32zM396 1332
q46 0 76 -32q32 -32 32 -76q0 -46 -32 -78t-77 -32t-77 32t-32 78t32 76q32 32 78 32z" />
    <glyph glyph-name="Amacron" unicode="&#x100;" horiz-adv-x="1593" 
d="M500 561h505l-250 603zM1182 117q0 18 -14 53l-123 306h-579l-109 -257q-29 -69 -29 -101t40 -40q40 -9 132 -10v-68q-170 9 -260 9t-205 -9v68q79 0 99 6t36 22t40 66q24 51 137 295l250 564q41 93 175 414h65l427 -1003q104 -244 130 -292t50 -60q22 -11 101 -12v-68
q-156 10 -218 10l-322 -10v68q112 2 136 7q25 5 33 15t8 27zM466 1655h649v-118h-649v118z" />
    <glyph glyph-name="amacron" unicode="&#x101;" 
d="M413 104q133 0 263 154v270q-276 -47 -352 -105q-22 -17 -44 -59t-22 -110t41 -108q41 -42 114 -42zM165 763q0 41 -1 66q126 83 198 108t168 25t173 -43q78 -43 110 -111t32 -165l-4 -183v-298q0 -76 27 -91q10 -6 42 -8l65 -6v-57q-82 7 -143 7t-161 -7l5 176
q-204 -154 -242 -174t-96 -19q-120 1 -188 65t-68 171q0 69 24 126q42 102 123 140q59 27 189 58t258 46q1 95 -23 148t-81 87q-58 34 -128 34t-114 -16t-55 -27l-18 -36q-27 -60 -40 -94l-53 14q1 23 1 64zM204 1184h649v-118h-649v118z" />
    <glyph glyph-name="Abreve" unicode="&#x102;" horiz-adv-x="1593" 
d="M500 561h505l-250 603zM1182 117q0 18 -14 53l-123 306h-579l-109 -257q-29 -69 -29 -101t40 -40q40 -9 132 -10v-68q-170 9 -260 9t-205 -9v68q79 0 99 6t36 22t40 66q24 51 137 295l250 564q41 93 175 414h65l427 -1003q104 -244 130 -292t50 -60q22 -11 101 -12v-68
q-156 10 -218 10l-322 -10v68q112 2 136 7q25 5 33 15t8 27zM790 1668q184 0 225 191h68q-8 -160 -88 -241t-207 -81t-208 84t-83 238h69q16 -91 74 -141t150 -50z" />
    <glyph glyph-name="abreve" unicode="&#x103;" 
d="M413 104q133 0 263 154v270q-276 -47 -352 -105q-22 -17 -44 -59t-22 -110t41 -108q41 -42 114 -42zM165 763q0 41 -1 66q126 83 198 108t168 25t173 -43q78 -43 110 -111t32 -165l-4 -183v-298q0 -76 27 -91q10 -6 42 -8l65 -6v-57q-82 7 -143 7t-161 -7l5 176
q-204 -154 -242 -174t-96 -19q-120 1 -188 65t-68 171q0 69 24 126q42 102 123 140q59 27 189 58t258 46q1 95 -23 148t-81 87q-58 34 -128 34t-114 -16t-55 -27l-18 -36q-27 -60 -40 -94l-53 14q1 23 1 64zM528 1197q184 0 225 191h68q-8 -160 -88 -241t-207 -81t-208 84
t-83 238h69q16 -92 74 -142t150 -49z" />
    <glyph glyph-name="Aogonek" unicode="&#x104;" horiz-adv-x="1593" 
d="M500 561h505l-250 603zM1337 -89q0 -39 24 -63t59 -25q65 0 150 74l33 -43q-79 -70 -129 -93t-104 -23t-93 40t-39 103q0 64 72 128l-305 -9v68q112 2 136 7q41 9 41 38q0 22 -14 57l-123 306h-579l-109 -257q-29 -69 -29 -101t40 -40q40 -9 132 -10v-68q-170 9 -260 9
t-205 -9v68q79 0 99 6t36 22t40 66q24 51 137 295l250 564q41 93 175 414h65l427 -1003q104 -244 130 -292t50 -60q22 -11 101 -12v-68q-95 6 -155 8q-53 -58 -53 -97z" />
    <glyph glyph-name="aogonek" unicode="&#x105;" 
d="M413 104q133 0 263 154v270q-276 -47 -352 -105q-22 -17 -44 -59t-22 -110t41 -108q41 -42 114 -42zM659 -129q0 66 79 133q-31 -2 -67 -4l5 176q-204 -154 -242 -174t-96 -19q-120 1 -188 65t-68 171q0 69 24 126q42 102 123 140q59 27 189 58t258 46q1 95 -23 148
t-81 87q-58 34 -128 34t-114 -16t-55 -27l-18 -36q-27 -60 -40 -94l-53 14q1 23 1 64t-1 66q126 83 198 108t168 25t173 -43q78 -43 110 -111t32 -165l-4 -183v-298q0 -76 27 -91q10 -6 42 -8l65 -6v-57q-82 7 -116 7h-38q-40 -42 -52 -64q-11 -23 -11 -53t24 -54t59 -25
q65 0 150 74l33 -43q-80 -70 -130 -93t-103 -23q-54 0 -93 40t-39 105z" />
    <glyph glyph-name="Cacute" unicode="&#x106;" horiz-adv-x="1452" 
d="M965 78q244 0 413 120l17 -21l-39 -93q-222 -112 -473 -112q-315 0 -521 150q-292 212 -291 590q1 318 223 528t607 210q167 0 318 -40t176 -45q-45 -112 -55 -305h-63l-1 118q-20 194 -397 194q-142 -2 -241 -36q-98 -34 -174 -110q-171 -168 -172 -473
q-1 -307 184 -491t489 -184zM1080 1841q30 -1 53 -23t23 -50t-14 -46t-57 -46l-311 -189h-84l287 296q39 40 57 49q16 9 46 9z" />
    <glyph glyph-name="cacute" unicode="&#x107;" horiz-adv-x="909" 
d="M619 81q98 0 228 60l21 -26l-40 -67q-132 -71 -289 -71q-211 1 -335 127t-124 347q0 117 34 203t74 127q42 41 134 93t144 74t146 22q160 0 256 -59q-20 -127 -30 -260h-57q-6 97 -11 117t-30 39q-26 21 -82 41t-132 20t-136 -34q-130 -73 -130 -296q0 -136 48 -246
t130 -160t181 -51zM786 1408q30 0 53 -22t23 -51t-14 -47t-57 -45l-311 -189h-84l287 296q39 40 57 49q16 9 46 9z" />
    <glyph glyph-name="Ccircumflex" unicode="&#x108;" horiz-adv-x="1452" 
d="M965 78q244 0 413 120l17 -21l-39 -93q-222 -112 -473 -112q-315 0 -521 150q-292 212 -291 590q1 318 223 528t607 210q167 0 318 -40t176 -45q-45 -112 -55 -305h-63l-1 118q-20 194 -397 194q-142 -2 -241 -36q-98 -34 -174 -110q-171 -168 -172 -473
q-1 -307 184 -491t489 -184zM818 1897h133l252 -345h-85l-237 209l-240 -209h-80z" />
    <glyph glyph-name="ccircumflex" unicode="&#x109;" horiz-adv-x="909" 
d="M619 81q98 0 228 60l21 -26l-40 -67q-132 -71 -289 -71q-211 1 -335 127t-124 347q0 117 34 203t74 127q42 41 134 93t144 74t146 22q160 0 256 -59q-20 -127 -30 -260h-57q-6 97 -11 117t-30 39q-26 21 -82 41t-132 20t-136 -34q-130 -73 -130 -296q0 -136 48 -246
t130 -160t181 -51zM492 1419h133l252 -345h-85l-237 209l-240 -209h-80z" />
    <glyph glyph-name="Cdotaccent" unicode="&#x10a;" horiz-adv-x="1452" 
d="M965 78q244 0 413 120l17 -21l-39 -93q-222 -112 -473 -112q-315 0 -521 150q-292 212 -291 590q1 318 223 528t607 210q167 0 318 -40t176 -45q-45 -112 -55 -305h-63l-1 118q-20 194 -397 194q-142 -2 -241 -36q-98 -34 -174 -110q-171 -168 -172 -473
q-1 -307 184 -491t489 -184zM890 1770q46 0 78 -32t31 -76q0 -46 -32 -78t-77 -32t-77 32t-32 78t32 76q31 32 77 32z" />
    <glyph glyph-name="cdotaccent" unicode="&#x10b;" horiz-adv-x="909" 
d="M619 81q98 0 228 60l21 -26l-40 -67q-132 -71 -289 -71q-211 1 -335 127t-124 347q0 117 34 203t74 127q42 41 134 93t144 74t146 22q160 0 256 -59q-20 -127 -30 -260h-57q-6 97 -11 117t-30 39q-26 21 -82 41t-132 20t-136 -34q-130 -73 -130 -296q0 -136 48 -246
t130 -160t181 -51zM606 1292q46 0 78 -32t31 -76q0 -46 -32 -78t-77 -32t-77 32t-32 78t32 76q31 32 77 32z" />
    <glyph glyph-name="Ccaron" unicode="&#x10c;" horiz-adv-x="1452" 
d="M965 78q244 0 413 120l17 -21l-39 -93q-222 -112 -473 -112q-315 0 -521 150q-292 212 -291 590q1 318 223 528t607 210q167 0 318 -40t176 -45q-45 -112 -55 -305h-63l-1 118q-20 194 -397 194q-142 -2 -241 -36q-98 -34 -174 -110q-171 -168 -172 -473
q-1 -307 184 -491t489 -184zM931 1491h-133l-252 345h85l237 -208l240 208h80z" />
    <glyph glyph-name="ccaron" unicode="&#x10d;" horiz-adv-x="909" 
d="M619 81q98 0 228 60l21 -26l-40 -67q-132 -71 -289 -71q-211 1 -335 127t-124 347q0 117 34 203t74 127q42 41 134 93t144 74t146 22q160 0 256 -59q-20 -127 -30 -260h-57q-6 97 -11 117t-30 39q-26 21 -82 41t-132 20t-136 -34q-130 -73 -130 -296q0 -136 48 -246
t130 -160t181 -51zM637 1058h-133l-252 345h85l237 -208l240 208h80z" />
    <glyph glyph-name="Dcaron" unicode="&#x10e;" horiz-adv-x="1585" 
d="M634 90q124 0 220 22t166 62q68 40 132 118t98 200t35 279q-1 157 -67 291t-200 205t-368 71q-123 0 -250 -19q-3 -49 -5 -174l-4 -145v-399l3 -310q1 -71 6 -182q110 -19 234 -19zM204 583v408q0 293 -20 333q-6 13 -30 23t-128 11v63q146 -6 258 -6l465 8
q245 -1 394 -63t253 -209t104 -359q0 -302 -182 -518q-154 -180 -382 -244q-106 -30 -289 -30l-343 8q-61 0 -214 -8v48q58 33 97 60q17 193 17 475zM827 1525h-133l-252 345h85l237 -208l240 208h80z" />
    <glyph glyph-name="dcaron" unicode="&#x10f;" horiz-adv-x="1251" 
d="M555 873q-82 0 -151 -42q-142 -86 -142 -331q0 -183 91 -286t221 -103t211 110q39 54 49 109t10 228v171q-131 144 -289 144zM1016 361q0 -240 12 -260t34 -29q21 -9 125 -18v-54q-123 7 -169 7t-179 -7q3 69 5 186q-102 -74 -213 -182q-80 -20 -141 -20q-113 0 -208 56
q-94 56 -146 162t-52 224q0 116 32 206t68 128q38 38 134 95t156 83t129 25q129 0 241 -63v263q0 139 -8 159t-24 28q-16 7 -133 8v57q189 20 337 69l13 -9q-4 -85 -9 -328l-4 -160v-626zM1089 1277q124 206 158 333q9 34 24 148l108 27q22 7 96 33l26 -28
q-124 -289 -302 -499l-85 -39z" />
    <glyph glyph-name="Dcroat" unicode="&#x110;" horiz-adv-x="1585" 
d="M634 90q124 0 220.5 22t165 62t132.5 118t98.5 199.5t34.5 279.5t-66.5 291.5t-200.5 204.5t-368 71q-123 0 -250 -19q-3 -49 -5 -174l-4 -145v-231h342v-77h-342v-91l3 -310q1 -71 6 -182q110 -19 234 -19zM204 583v109h-178v77h178v222q0 293 -20 333q-6 13 -30 23
t-128 11v63q146 -6 258 -6l465 8q245 0 394 -62.5t253 -209.5t104 -359q0 -302 -167.5 -500.5t-334.5 -245t-351 -46.5l-343 8q-61 0 -214 -8v48q58 33 97 60q17 193 17 475z" />
    <glyph glyph-name="dcroat" unicode="&#x111;" horiz-adv-x="1251" 
d="M555 865q-84 0 -188.5 -65.5t-104.5 -309.5q0 -175 88.5 -281t227.5 -106t196.5 90.5t63.5 147.5t6 209v171q-128 144 -289 144zM1011 1092v-739q0 -241 12.5 -260.5t33 -28.5t116.5 -17l9 -8v-38l-9 -9q-108 7 -165 7t-157 -7l-11 11q3 98 3 120t1 55q-55 -40 -123 -100
t-93 -79q-46 -23 -131 -23q-138 0 -234.5 68t-137.5 173.5t-41 217.5t42.5 216.5t121 152.5t171 99.5t201.5 51.5t224 -63q-1 39 -4 200h-289l-12 10v63l11 11h288q-2 117 -7.5 138.5t-22 27t-126.5 5.5l-9 9v42l8 9q191 22 322 74l19 -12q-11 -123 -11 -293h167l10 -11v-63
l-10 -10h-167z" />
    <glyph glyph-name="Emacron" unicode="&#x112;" horiz-adv-x="1251" 
d="M249 431v511q-1 352 -15 374t-40 30t-144 11v64l285 -6l302 5q217 3 315 3t187 -11q-16 -56 -20 -82t-20 -225h-63q1 102 -13 186q-108 45 -345 45q-94 0 -226 -11q-4 -111 -6 -208l-4 -338q118 -6 226 -6q108 -1 166 7t67 20t16 82l6 70h60v-19l-5 -208l5 -233h-70
l-3 68q-2 74 -14 92t-56 28t-160 9q-116 0 -238 -5q-5 -100 -5 -291t5 -287q144 -11 297 -11t207 8t100 27q32 82 53 218h66q-26 -202 -26 -335q-86 -13 -209 -13l-597 8q-13 0 -262 -8v63q105 1 129 11t31 28q18 38 18 329zM283 1643h649v-118h-649v118z" />
    <glyph glyph-name="emacron" unicode="&#x113;" horiz-adv-x="981" 
d="M516 553q171 0 213 5q1 24 1 37q0 158 -64 232t-174 74t-179 -81t-70 -256q102 -11 273 -11zM610 81q103 0 258 91l16 -17l-32 -72q-68 -43 -108 -61q-105 -47 -233 -46q-127 0 -234 55t-167 165t-59 240q-1 132 31 224t66 130t96 80q145 98 274 98q130 0 220 -51
q174 -98 175 -338q0 -28 -4 -68q-134 -26 -345 -26h-321q5 -273 181 -362q84 -42 186 -42zM158 1190h649v-118h-649v118z" />
    <glyph glyph-name="Ebreve" unicode="&#x114;" horiz-adv-x="1251" 
d="M249 431v511q-1 352 -15 374t-40 30t-144 11v64l285 -6l302 5q217 3 315 3t187 -11q-16 -56 -20 -82t-20 -225h-63q1 102 -13 186q-108 45 -345 45q-94 0 -226 -11q-4 -111 -6 -208l-4 -338q118 -6 226 -6q108 -1 166 7t67 20t16 82l6 70h60v-19l-5 -208l5 -233h-70
l-3 68q-2 74 -14 92t-56 28t-160 9q-116 0 -238 -5q-5 -100 -5 -291t5 -287q144 -11 297 -11t207 8t100 27q32 82 53 218h66q-26 -202 -26 -335q-86 -13 -209 -13l-597 8q-13 0 -262 -8v63q105 1 129 11t31 28q18 38 18 329zM607 1656q184 0 225 191h68q-8 -160 -88 -241
t-207 -81t-208 84t-83 238h69q17 -91 75 -141t149 -50z" />
    <glyph glyph-name="ebreve" unicode="&#x115;" horiz-adv-x="981" 
d="M516 553q171 0 213 5q1 24 1 37q0 158 -64 232t-174 74t-179 -81t-70 -256q102 -11 273 -11zM610 81q103 0 258 91l16 -17l-32 -72q-68 -43 -108 -61q-105 -47 -233 -46q-127 0 -234 55t-167 165t-59 240q-1 132 31 224t66 130t96 80q145 98 274 98q130 0 220 -51
q174 -98 175 -338q0 -28 -4 -68q-134 -26 -345 -26h-321q5 -273 181 -362q84 -42 186 -42zM482 1203q184 0 225 191h68q-8 -160 -88 -241t-207 -81t-208 84t-83 238h69q16 -92 74 -142t150 -49z" />
    <glyph glyph-name="Edotaccent" unicode="&#x116;" horiz-adv-x="1251" 
d="M249 431v511q-1 352 -15 374t-40 30t-144 11v64l285 -6l302 5q217 3 315 3t187 -11q-16 -56 -20 -82t-20 -225h-63q1 102 -13 186q-108 45 -345 45q-94 0 -226 -11q-4 -111 -6 -208l-4 -338q118 -6 226 -6q108 -1 166 7t67 20t16 82l6 70h60v-19l-5 -208l5 -233h-70
l-3 68q-2 74 -14 92t-56 28t-160 9q-116 0 -238 -5q-5 -100 -5 -291t5 -287q144 -11 297 -11t207 8t100 27q32 82 53 218h66q-26 -202 -26 -335q-86 -13 -209 -13l-597 8q-13 0 -262 -8v63q105 1 129 11t31 28q18 38 18 329zM608 1743q46 1 76 -31q32 -32 32 -78t-32 -77
q-32 -32 -77 -32t-77 32q-32 31 -32 77t32 78t78 31z" />
    <glyph glyph-name="edotaccent" unicode="&#x117;" horiz-adv-x="981" 
d="M516 553q171 0 213 5q1 24 1 37q0 158 -64 232t-174 74t-179 -81t-70 -256q102 -11 273 -11zM610 81q103 0 258 91l16 -17l-32 -72q-68 -43 -108 -61q-105 -47 -233 -46q-127 0 -234 55t-167 165t-59 240q-1 132 31 224t66 130t96 80q145 98 274 98q130 0 220 -51
q174 -98 175 -338q0 -28 -4 -68q-134 -26 -345 -26h-321q5 -273 181 -362q84 -42 186 -42zM482 1290q46 0 78 -32t31 -76q0 -46 -32 -78t-77 -32t-77 32t-32 78t32 76q31 32 77 32z" />
    <glyph glyph-name="Eogonek" unicode="&#x118;" horiz-adv-x="1251" 
d="M466 -122q0 64 70 127l-203 3q-13 0 -262 -8v63q105 1 129 11t31 28q18 37 18 329v511q-1 352 -15 374t-40 30t-144 11v64l285 -6l302 5q217 3 315 3t187 -11q-16 -56 -20 -82t-20 -225h-63q1 102 -13 186q-108 45 -345 45q-94 0 -226 -11q-4 -111 -6 -208l-4 -338
q118 -6 226 -6q108 -1 166 7t67 20t16 82l6 70h60v-19l-5 -208l5 -233h-70l-3 68q-2 74 -14 92t-56 28t-160 9q-116 0 -238 -5q-5 -100 -5 -291t5 -287q144 -11 297 -11t207 8t100 27q32 82 53 218h66q-26 -202 -26 -335q-86 -13 -209 -13l-313 4q-52 -57 -52 -96
q0 -40 24 -64t59 -24q65 0 150 74l33 -43q-79 -70 -129 -93t-104 -23q-54 -1 -93 39t-39 104z" />
    <glyph glyph-name="eogonek" unicode="&#x119;" horiz-adv-x="981" 
d="M516 553q171 0 213 5q1 24 1 37q0 158 -64 232t-174 74t-179 -81t-70 -256q102 -11 273 -11zM610 81q103 0 258 91l16 -17l-32 -72q-68 -43 -108 -61q-105 -47 -228 -46q-19 0 -37 1q-41 -44 -53 -66q-12 -23 -12 -53t24 -54t59 -25q65 0 150 74l33 -43q-80 -70 -130 -93
t-103 -23q-54 0 -93 40t-39 96q0 81 96 156q-207 40 -301 210q-60 110 -59 240q-1 132 31 224t66 130t96 80q145 98 274 98q130 0 220 -51q174 -98 175 -338q0 -28 -4 -68q-134 -26 -345 -26h-321q5 -273 181 -362q84 -42 186 -42z" />
    <glyph glyph-name="Ecaron" unicode="&#x11a;" horiz-adv-x="1251" 
d="M249 431v511q-1 352 -15 374t-40 30t-144 11v64l285 -6l302 5q217 3 315 3t187 -11q-16 -56 -20 -82t-20 -225h-63q1 102 -13 186q-108 45 -345 45q-94 0 -226 -11q-4 -111 -6 -208l-4 -338q118 -6 226 -6q108 -1 166 7t67 20t16 82l6 70h60v-19l-5 -208l5 -233h-70
l-3 68q-2 74 -14 92t-56 28t-160 9q-116 0 -238 -5q-5 -100 -5 -291t5 -287q144 -11 297 -11t207 8t100 27q32 82 53 218h66q-26 -202 -26 -335q-86 -13 -209 -13l-597 8q-13 0 -262 -8v63q105 1 129 11t31 28q18 38 18 329zM671 1525h-133l-252 345h85l237 -208l240 208h80
z" />
    <glyph glyph-name="ecaron" unicode="&#x11b;" horiz-adv-x="981" 
d="M516 553q171 0 213 5q1 24 1 37q0 158 -64 232t-174 74t-179 -81t-70 -256q102 -11 273 -11zM610 81q103 0 258 91l16 -17l-32 -72q-68 -43 -108 -61q-105 -47 -233 -46q-127 0 -234 55t-167 165t-59 240q-1 132 31 224t66 130t96 80q145 98 274 98q130 0 220 -51
q174 -98 175 -338q0 -28 -4 -68q-134 -26 -345 -26h-321q5 -273 181 -362q84 -42 186 -42zM546 1072h-133l-252 345h85l237 -208l240 208h80z" />
    <glyph glyph-name="Gcircumflex" unicode="&#x11c;" horiz-adv-x="1563" 
d="M891 1383q-190 0 -329 -81q-138 -81 -210 -232t-72 -339q0 -187 84 -345t224 -242t328 -83q188 0 309 64q9 40 9 128v111q0 88 -9 103t-49 23t-181 11v61l312 -7q91 0 186 7l6 -48l-75 -44q-12 -107 -12 -197t12 -195q-296 -107 -550 -107q-254 1 -434 91t-278 253
t-98 371t70 346q70 136 176 224t211 130q161 64 371 63t537 -92q-26 -88 -44 -301h-61l-5 114q-2 56 -15 83q-27 36 -86 65q-102 39 -168 52t-159 13zM841 1897h133l252 -345h-85l-237 209l-240 -209h-80z" />
    <glyph glyph-name="gcircumflex" unicode="&#x11d;" horiz-adv-x="1139" 
d="M226 -251q0 -105 82 -177t206 -73q124 1 212 43t132 116t42 142q-2 69 -18 102q-31 61 -104 83q-24 3 -184 3t-188 -2q-28 -4 -80 -40t-60 -45q-8 -7 -24 -51t-16 -101zM290 660q0 -71 26 -138q53 -135 196 -135q86 -1 152 55t66 180t-66 200q-66 74 -161 74t-154 -62
t-59 -174zM588 969q120 0 231 -88q188 1 289 4l8 -19q-39 -59 -51 -81h-186q23 -59 23 -123t-40 -136t-115 -124q-76 -52 -147 -67t-166 -13q-65 -52 -79 -74t-14 -44q0 -53 59 -67q45 -12 160 -12l216 4q114 1 172 -29q114 -58 114 -227q0 -103 -68 -209t-200 -168
t-284 -62t-249 43t-143 115t-47 134t13 100t46 82q122 56 175 98q-83 27 -107 51t-23 46q0 22 30 110q49 41 154 116q-91 25 -139 59q-102 71 -102 217q0 219 227 313q123 50 243 51zM529 1418h133l252 -345h-85l-237 209l-240 -209h-80z" />
    <glyph glyph-name="Gbreve" unicode="&#x11e;" horiz-adv-x="1563" 
d="M891 1383q-190 0 -329 -81q-138 -81 -210 -232t-72 -339q0 -187 84 -345t224 -242t328 -83q188 0 309 64q9 40 9 128v111q0 88 -9 103t-49 23t-181 11v61l312 -7q91 0 186 7l6 -48l-75 -44q-12 -107 -12 -197t12 -195q-296 -107 -550 -107q-254 1 -434 91t-278 253
t-98 371t70 346q70 136 176 224t211 130q161 64 371 63t537 -92q-26 -88 -44 -301h-61l-5 114q-2 56 -15 83q-27 36 -86 65q-102 39 -168 52t-159 13zM852 1618q184 0 225 191h68q-8 -160 -88 -241t-207 -81t-208 84t-83 238h69q16 -91 74 -141t150 -50z" />
    <glyph glyph-name="gbreve" unicode="&#x11f;" horiz-adv-x="1139" 
d="M226 -251q0 -105 82 -177t206 -73q124 1 212 43t132 116t42 142q-2 69 -18 102q-31 61 -104 83q-24 3 -184 3t-188 -2q-28 -4 -80 -40t-60 -45q-8 -7 -24 -51t-16 -101zM290 660q0 -71 26 -138q53 -135 196 -135q86 -1 152 55t66 180t-66 200q-66 74 -161 74t-154 -62
t-59 -174zM588 969q120 0 231 -88q188 1 289 4l8 -19q-39 -59 -51 -81h-186q23 -59 23 -123t-40 -136t-115 -124q-76 -52 -147 -67t-166 -13q-65 -52 -79 -74t-14 -44q0 -53 59 -67q45 -12 160 -12l216 4q114 1 172 -29q114 -58 114 -227q0 -103 -68 -209t-200 -168
t-284 -62t-249 43t-143 115t-47 134t13 100t46 82q122 56 175 98q-83 27 -107 51t-23 46q0 22 30 110q49 41 154 116q-91 25 -139 59q-102 71 -102 217q0 219 227 313q123 50 243 51zM591 1185q184 0 225 191h68q-8 -160 -88 -241t-207 -81t-208 84t-83 238h69
q17 -92 75 -142t149 -49z" />
    <glyph glyph-name="Gdotaccent" unicode="&#x120;" horiz-adv-x="1563" 
d="M891 1383q-190 0 -329 -81q-138 -81 -210 -232t-72 -339q0 -187 84 -345t224 -242t328 -83q188 0 309 64q9 40 9 128v111q0 88 -9 103t-49 23t-181 11v61l312 -7q91 0 186 7l6 -48l-75 -44q-12 -107 -12 -197t12 -195q-296 -107 -550 -107q-254 1 -434 91t-278 253
t-98 371t70 346q70 136 176 224t211 130q161 64 371 63t537 -92q-26 -88 -44 -301h-61l-5 114q-2 56 -15 83q-27 36 -86 65q-102 39 -168 52t-159 13zM914 1770q46 0 76 -32q32 -32 32 -76q0 -46 -32 -78t-77 -32t-77 32t-32 78t32 76q32 32 78 32z" />
    <glyph glyph-name="gdotaccent" unicode="&#x121;" horiz-adv-x="1139" 
d="M226 -251q0 -105 82 -177t206 -73q124 1 212 43t132 116t42 142q-2 69 -18 102q-31 61 -104 83q-24 3 -184 3t-188 -2q-28 -4 -80 -40t-60 -45q-8 -7 -24 -51t-16 -101zM290 660q0 -71 26 -138q53 -135 196 -135q86 -1 152 55t66 180t-66 200q-66 74 -161 74t-154 -62
t-59 -174zM588 969q120 0 231 -88q188 1 289 4l8 -19q-39 -59 -51 -81h-186q23 -59 23 -123t-40 -136t-115 -124q-76 -52 -147 -67t-166 -13q-65 -52 -79 -74t-14 -44q0 -53 59 -67q45 -12 160 -12l216 4q114 1 172 -29q114 -58 114 -227q0 -103 -68 -209t-200 -168
t-284 -62t-249 43t-143 115t-47 134t13 100t46 82q122 56 175 98q-83 27 -107 51t-23 46q0 22 30 110q49 41 154 116q-91 25 -139 59q-102 71 -102 217q0 219 227 313q123 50 243 51zM594 1291q46 1 76 -31q32 -32 32 -78t-32 -77q-32 -32 -77 -32t-77 32q-32 31 -32 77
t32 78t78 31z" />
    <glyph glyph-name="Gcommaaccent" unicode="&#x122;" horiz-adv-x="1563" 
d="M891 1383q-190 0 -329 -81q-138 -81 -210 -232t-72 -339q0 -187 84 -345t224 -242t328 -83q188 0 309 64q9 40 9 128v111q0 88 -9 103t-49 23t-181 11v61l312 -7q91 0 186 7l6 -48l-75 -44q-12 -107 -12 -197t12 -195q-296 -107 -550 -107q-254 1 -434 91t-278 253
t-98 371t70 346q70 136 176 224t211 130q161 64 371 63t537 -92q-26 -88 -44 -301h-61l-5 114q-2 56 -15 83q-27 36 -86 65q-102 39 -168 52t-159 13zM586 -689q124 206 158 333q9 34 24 148l108 27q22 7 96 33l26 -28q-124 -289 -302 -499l-85 -39z" />
    <glyph glyph-name="gcommaaccent" unicode="&#x123;" horiz-adv-x="1139" 
d="M226 -251q0 -105 82 -177t206 -73q124 1 212 43t132 116t42 142q-2 69 -18 102q-31 61 -104 83q-24 3 -184 3t-188 -2q-28 -4 -80 -40t-60 -45q-8 -7 -24 -51t-16 -101zM290 660q0 -71 26 -138q53 -135 196 -135q86 -1 152 55t66 180t-66 200q-66 74 -161 74t-154 -62
t-59 -174zM588 969q120 0 231 -88q188 1 289 4l8 -19q-39 -59 -51 -81h-186q23 -59 23 -123t-40 -136t-115 -124q-76 -52 -147 -67t-166 -13q-65 -52 -79 -74t-14 -44q0 -53 59 -67q45 -12 160 -12l216 4q114 1 172 -29q114 -58 114 -227q0 -103 -68 -209t-200 -168
t-284 -62t-249 43t-143 115t-47 134t13 100t46 82q122 56 175 98q-83 27 -107 51t-23 46q0 22 30 110q49 41 154 116q-91 25 -139 59q-102 71 -102 217q0 219 227 313q123 50 243 51zM864 1730q-124 -206 -158 -333q-9 -34 -24 -148l-108 -27q-22 -7 -96 -33l-26 28
q124 289 302 499l85 39z" />
    <glyph glyph-name="Hcircumflex" unicode="&#x124;" horiz-adv-x="1704" 
d="M885 796q250 0 380 7v139q0 350 -15 373q-14 23 -40 31t-145 11v64q215 -6 270 -6t317 6v-64q-118 -3 -144 -11t-37 -26t-13 -66t-5 -312v-463q1 -351 15 -373q14 -24 40 -32t144 -10v-64q-193 8 -320 8t-267 -8v64q119 2 145 10t36 26q12 18 14 67t5 312v228
q-279 6 -431 6t-396 -6v-228q0 -351 14 -373q14 -24 40 -32t145 -10v-64q-135 9 -285 9t-303 -9v64q118 2 144 10t37 26t13 67t5 312v463q0 352 -14 374t-40 30t-145 11v64l306 -6l282 6v-64q-119 -3 -145 -11t-36 -26q-11 -18 -13 -66t-5 -312v-139q197 -7 447 -7z
M786 1868h133l252 -345h-85l-237 209l-240 -209h-80z" />
    <glyph glyph-name="hcircumflex" unicode="&#x125;" horiz-adv-x="1192" 
d="M341 1592q15 0 15 -17q0 -7 -2 -20l-1 -33q-5 -179 -6 -305l-2 -156v-292q53 42 114 98t76 64t60 20t115 12q70 1 154 -43q82 -44 114 -110t32 -195v-176l3 -138q3 -129 4 -161q2 -72 47 -80q6 -1 104 -3v-57q-114 5 -162 5t-185 -5q14 148 14 288v248q0 116 -17 167
q-18 51 -70 91t-123 41q-71 0 -114 -16q-81 -30 -140 -117q-12 -18 -16 -44t-4 -102v-117q5 -259 7 -295t10 -57q9 -22 27 -25q17 -3 121 -5v-57q-178 7 -242 7t-261 -7v57l94 1q38 2 50 23q11 21 13 53t8 306v517q0 445 -17 479q-5 10 -18 16t-136 5v59q226 28 314 70
q13 6 20 6zM393 2039h133l252 -345h-85l-237 209l-240 -209h-80z" />
    <glyph glyph-name="Hbar" unicode="&#x126;" horiz-adv-x="1704" 
d="M1335 1415q55 0 317 6v-64q-118 -3 -144 -11t-37 -26t-13 -66t-5 -312v-463q1 -351 15 -373q14 -24 40 -32t144 -10v-64q-193 8 -320 8t-267 -8v64q119 2 145 10t36 26q12 18 14 67t5 312v228q-279 6 -431 6t-396 -6v-228q0 -351 14 -373q14 -24 40 -32t145 -10v-64
q-135 9 -285 9t-303 -9v64q118 2 144 10t37 26t13 67t5 312v463q0 352 -14 374t-40 30t-145 11v64l306 -6l282 6v-64q-119 -3 -145 -11t-36 -26q-11 -18 -13 -62q-2 -45 -3 -163h824q-4 205 -16 224t-38 27t-145 11v64q215 -6 270 -6zM885 796q250 0 380 7v139v35h-827v-35
v-139q197 -7 447 -7z" />
    <glyph glyph-name="hbar" unicode="&#x127;" horiz-adv-x="1192" 
d="M341 1592q15 0 15 -17q0 -7 -2 -20l-1 -33q-5 -173 -6 -296h311v-118h-312l-1 -47v-292q53 42 114 98t76 64t60 20t115 12q70 1 154 -43q82 -44 114 -110t32 -195v-176l3 -138q3 -129 4 -161q2 -72 47 -80q6 -1 104 -3v-57q-114 5 -162 5t-185 -5q14 148 14 288v248
q0 116 -17 167q-18 51 -70 91t-123 41q-71 0 -114 -16q-81 -30 -140 -117q-12 -18 -16 -44t-4 -102v-117q5 -259 7 -295t10 -57q9 -22 27 -25q17 -3 121 -5v-57q-178 7 -242 7t-261 -7v57l94 1q38 2 50 23q11 21 13 53t8 306v517q0 74 -1 151h-168v118h165q-5 194 -11 207
q-7 13 -20 19t-136 5v59q226 28 314 70q13 6 20 6z" />
    <glyph glyph-name="Itilde" unicode="&#x128;" horiz-adv-x="690" 
d="M246 942q0 352 -14 374t-40 30t-145 11v64q191 -7 293 -7t296 7v-64q-118 -3 -144 -11t-37 -26t-13 -66t-5 -312v-463q1 -351 15 -373q14 -24 40 -32t144 -10v-64q-213 8 -280 8l-309 -8v64q118 2 144 10t37 26t13 67t5 312v463zM191 1611q-71 0 -107 -96h-68
q25 108 87 165t130 57q68 1 155 -41q86 -42 110 -49t44 -7q62 0 105 101h68q-29 -115 -89 -171t-128 -56t-155 42q-85 42 -109 48q-24 7 -43 7z" />
    <glyph glyph-name="itilde" unicode="&#x129;" horiz-adv-x="588" 
d="M41 823v57q194 22 326 84l22 -16q-8 -213 -8 -326v-182q5 -260 6 -296q2 -73 48 -84q6 -1 111 -3v-57q-152 7 -238 7t-267 -7v57l95 1q37 2 49 23q11 21 13 53t8 306v176q0 148 -8 170t-24 30t-133 7zM131 1165q-71 0 -107 -96h-68q25 108 87 165t130 57q68 1 155 -41
q86 -42 110 -49t44 -7q62 0 105 101h68q-29 -115 -89 -171t-128 -56t-155 42q-85 42 -109 48q-24 7 -43 7z" />
    <glyph glyph-name="Imacron" unicode="&#x12a;" horiz-adv-x="690" 
d="M246 942q0 352 -14 374t-40 30t-145 11v64q191 -7 293 -7t296 7v-64q-118 -3 -144 -11t-37 -26t-13 -66t-5 -312v-463q1 -351 15 -373q14 -24 40 -32t144 -10v-64q-213 8 -280 8l-309 -8v64q118 2 144 10t37 26t13 67t5 312v463zM17 1641h649v-118h-649v118z" />
    <glyph glyph-name="imacron" unicode="&#x12b;" horiz-adv-x="588" 
d="M41 823v57q194 22 326 84l22 -16q-8 -213 -8 -326v-182q5 -260 6 -296q2 -73 48 -84q6 -1 111 -3v-57q-152 7 -238 7t-267 -7v57l95 1q37 2 49 23q11 21 13 53t8 306v176q0 148 -8 170t-24 30t-133 7zM12 1186h649v-118h-649v118z" />
    <glyph glyph-name="Ibreve" unicode="&#x12c;" horiz-adv-x="690" 
d="M246 942q0 352 -14 374t-40 30t-145 11v64q191 -7 293 -7t296 7v-64q-118 -3 -144 -11t-37 -26t-13 -66t-5 -312v-463q1 -351 15 -373q14 -24 40 -32t144 -10v-64q-213 8 -280 8l-309 -8v64q118 2 144 10t37 26t13 67t5 312v463zM341 1654q184 0 225 191h68
q-8 -160 -88 -241t-207 -81t-208 84t-83 238h69q17 -91 75 -141t149 -50z" />
    <glyph glyph-name="ibreve" unicode="&#x12d;" horiz-adv-x="588" 
d="M41 823v57q194 22 326 84l22 -16q-8 -213 -8 -326v-182q5 -260 6 -296q2 -73 48 -84q6 -1 111 -3v-57q-152 7 -238 7t-267 -7v57l95 1q37 2 49 23q11 21 13 53t8 306v176q0 148 -8 170t-24 30t-133 7zM296 1200q184 0 225 191h68q-8 -160 -88 -241t-207 -81t-208 84
t-83 238h69q16 -91 74 -141t150 -50z" />
    <glyph glyph-name="Iogonek" unicode="&#x12e;" horiz-adv-x="690" 
d="M307 -91q0 -41 24 -65t59 -24q65 0 150 74l33 -43q-79 -70 -129 -93t-104 -23q-54 -1 -93 39t-39 104t71 128l-232 -6v64q118 2 144 10t37 26t13 67t5 312v463q0 352 -14 374t-40 30t-145 11v64q191 -7 293 -7t296 7v-64q-118 -3 -144 -11t-37 -26t-13 -66t-5 -312v-463
q1 -351 15 -373q14 -24 40 -32t144 -10v-64q-204 8 -274 8q-55 -59 -55 -99z" />
    <glyph glyph-name="iogonek" unicode="&#x12f;" horiz-adv-x="596" 
d="M156 -135q0 68 92 141q-77 -1 -203 -6v57l95 1q37 2 49 23q11 21 13 53t8 306v176q0 148 -8 170t-24 30t-133 7v57q194 22 326 84l22 -16q-8 -213 -8 -326v-182q5 -260 6 -296q2 -73 48 -84q6 -1 111 -3v-57q-137 6 -225 7q-46 -48 -58 -72q-12 -23 -12 -53t24 -54
t59 -25q65 0 150 74l33 -43q-79 -70 -129 -93t-104 -23t-93 40t-39 107zM289 1408q47 0 79 -33t33 -79q0 -46 -33 -80q-34 -33 -80 -33t-79 33q-33 34 -33 80t33 79t80 33z" />
    <glyph glyph-name="glyph242" unicode="&#x130;" horiz-adv-x="690" 
d="M352 1604q-47 0 -80 32.5t-33 79.5t33 80t80 33t79.5 -33t32.5 -80t-32.5 -79.5t-79.5 -32.5zM343 1405q36 0 289 8l8 -7v-50l-8 -7q-135 -4 -156.5 -18t-27 -54.5t-5.5 -112.5l-2 -230v-463l1 -195q1 -168 15.5 -184.5t41.5 -24t133 -11.5l8 -6v-50l-8 -8l-287 8
q-31 0 -286 -8l-8 8v50l8 6q144 6 160 20.5t22.5 45.5t7.5 138l1 211v463l-2 195q-1 170 -15 186t-41 23t-133 11l-8 7v50l8 7l125 -4q123 -4 159 -4z" />
    <glyph glyph-name="dotlessi" unicode="&#x131;" horiz-adv-x="588" 
d="M41 823v57q194 22 326 84l22 -16q-8 -213 -8 -326v-182q5 -260 6 -296q2 -73 48 -84q6 -1 111 -3v-57q-152 7 -238 7t-267 -7v57l95 1q37 2 49 23q11 21 13 53t8 306v176q0 148 -8 170t-23.5 29.5t-133.5 7.5z" />
    <glyph glyph-name="IJ" unicode="&#x132;" horiz-adv-x="1372" 
d="M246 942q0 352 -14 374t-40 30t-145 11v64q191 -7 293 -7t296 7v-64q-118 -3 -144 -11t-37 -26t-13 -66t-5 -312v-463q1 -351 15 -373q14 -24 40 -32t144 -10v-64q-213 8 -280 8l-309 -8v64q118 2 144 10t37 26t13 67t5 312v463zM792 -255q55 -1 84 21t42 68t13 239v869
q-1 352 -15 374t-40 30t-144 11v64q158 -6 300 -6t293 6v-64q-118 -3 -144 -11t-37 -26q-10 -18 -12 -66t-6 -312v-718q0 -164 -28 -259t-94 -181t-145 -129q-78 -44 -151 -44q-20 0 -42 5l3 69v14q0 23 -3 71l19 13q52 -38 107 -38z" />
    <glyph glyph-name="ij" unicode="&#x133;" horiz-adv-x="1075" 
d="M45 823v57q194 22 326 84l22 -16q-8 -213 -8 -326v-182q5 -260 6 -296q2 -73 48 -84q6 -1 111 -3v-57q-152 7 -238 7t-267 -7v57l95 1q37 2 49 23q11 21 13 53t8 306v176q0 148 -8 170t-24 30t-133 7zM289 1408q47 0 79 -33t33 -79q0 -46 -33 -80q-34 -33 -80 -33t-79 33
q-33 34 -33 80t33 79t80 33zM930 967q16 0 16 -20q0 -8 -5 -54t-8 -263q-4 -217 -4 -242l3 -275q0 -265 -34 -371t-88 -174q-106 -134 -246 -134q-8 0 -22 1l-12 71q34 -3 56 -3t50 15q71 37 96 136q26 100 26 365v561q0 183 -8 205t-20 30t-58 8t-79 1v57q215 24 312 77
q16 9 25 9zM838 1408q47 0 80 -33t33 -79t-33 -80q-34 -33 -80 -33t-80 33q-34 34 -33 80q0 46 33 79t80 33z" />
    <glyph glyph-name="Jcircumflex" unicode="&#x134;" horiz-adv-x="682" 
d="M102 -255q55 -1 84 21t42 68t13 239v869q-1 352 -15 374t-40 30t-144 11v64q158 -6 300 -6t293 6v-64q-118 -3 -144 -11t-37 -26q-10 -18 -12 -66t-6 -312v-718q0 -164 -28 -259t-94 -181t-145 -129q-78 -44 -151 -44q-20 0 -42 5l3 69v14q0 23 -3 71l19 13
q52 -38 107 -38zM252 1868h133l252 -345h-85l-237 209l-240 -209h-80z" />
    <glyph glyph-name="jcircumflex" unicode="&#x135;" horiz-adv-x="479" 
d="M172 1399h133l252 -345h-85l-237 209l-240 -209h-80zM334 967q16 0 16 -20q0 -8 -5 -54t-8 -263q-4 -217 -4 -242l3 -275q0 -265 -34 -371t-114 -207t-220 -101q-8 0 -22 1l-12 71q34 -3 56 -3t50 15q71 37 96.5 136.5t25.5 364.5v561q0 183 -8 205t-20 30t-58 8t-79 1
v57q215 24 312 77q16 9 25 9z" />
    <glyph glyph-name="Kcommaaccent" unicode="&#x136;" horiz-adv-x="1487" 
d="M250 942q0 352 -14 374t-40 30t-145 11v64q195 -6 297 -6t288 6v-64q-118 -3 -144 -11t-37 -26t-13 -66t-5 -312v-206q54 29 128 101l126 122l223 223q129 129 159 166v73q119 -4 189 -4t155 4v-65q-95 0 -128 -8t-81 -42t-180 -156l-399 -365l600 -562
q145 -136 165 -148t77 -13v-62q-98 4 -133 4t-154 -4q-23 23 -167 161l-557 525l-23 -13v-194q1 -351 15 -373q14 -24 40 -32t144 -10v-64l-302 8q-31 0 -283 -8v64q118 2 144 10t37 26t13 67t5 312v463zM535 -659q124 206 158 333q9 34 24 148l108 27q22 7 96 33l26 -28
q-124 -289 -302 -499l-85 -39z" />
    <glyph glyph-name="kcommaaccent" unicode="&#x137;" horiz-adv-x="1139" 
d="M298 8q-106 0 -259 -8v57l94 1q38 2 50 23q11 21 13 53t8 306v415q0 445 -17 479q-5 10 -18 16t-136 5v59q226 28 314 70q13 6 20 6q15 0 15 -17q0 -7 -2 -20l-1 -33q-5 -179 -6 -305l-2 -156v-402l11 -6q52 33 136 103t318 290q78 -3 98 -3t101 3v-56q-58 -3 -77 -9
q-20 -6 -98 -56t-213 -162l-102 -81q81 -83 280 -278q151 -152 181 -178t59 -31t90 -5v-45q-106 -20 -242 -53q-68 56 -234 226q-166 171 -297 288l-11 -5v-59q5 -260 6 -296q2 -73 48 -84q7 -1 111 -3v-57q-132 8 -238 8zM336 -689q124 206 158 333q9 34 24 148l108 27
q22 7 96 33l26 -28q-124 -289 -302 -499l-85 -39z" />
    <glyph glyph-name="kgreenlandic" unicode="&#x138;" horiz-adv-x="1139" 
d="M298 8q-106 0 -259 -8v57l94 1q38 2 50 23q11 21 13 53t8 306l-6 260q-4 120 -10 132t-19 18t-136 5v59q226 28 314 70q13 6 24 6t11 -17q0 -7 -2 -20l-1 -33q-5 -179 -6 -305l-2 -58l11 -6q52 33 136 103t318 290q78 -3 98 -3t101 3v-56q-58 -3 -77 -9q-20 -6 -98 -56
t-213 -162l-102 -81q81 -83 280 -278q150 -153 180.5 -178.5t59.5 -30.5t90 -5v-45q-106 -20 -242 -53q-68 56 -234 226q-166 171 -297 288l-11 -5v-59q5 -260 6 -296q2 -73 48 -84q7 -1 111 -3v-57q-132 8 -238 8z" />
    <glyph glyph-name="Lacute" unicode="&#x139;" horiz-adv-x="1251" 
d="M236 404v538q0 352 -14 374t-40 30t-145 11v64q244 -8 305 -8t284 8v-64q-118 -3 -144 -11t-37 -26t-13 -66t-5 -312v-672q0 -105 4 -171q114 -7 226 -7q282 0 395 36q13 30 23 69l40 166h67q-22 -149 -43 -350q-67 -13 -225 -13l-592 8q-96 0 -195 -8v52q61 29 75 42
t24 45q10 33 10 265zM546 1877q30 -1 53 -23t23 -50t-14 -46t-57 -46l-311 -189h-84l287 296q39 40 57 49q16 9 46 9z" />
    <glyph glyph-name="lacute" unicode="&#x13a;" horiz-adv-x="596" 
d="M379 1490q15 0 15 -17q0 -7 -2 -20l-1 -33q-5 -179 -6 -305l-2 -156v-519q5 -260 6 -296q2 -73 48 -84q7 -1 111 -3v-57q-136 8 -236 8t-261 -8v57l94 1q38 2 50 23q11 21 13 53t8 306v415q0 445 -17 479q-5 10 -18 16t-136 5v59q226 28 314 70q13 6 20 6zM456 1946
q30 0 52 -22q23 -22 23 -51q1 -29 -13 -47t-58 -45l-311 -189h-84l287 296q38 40 56 49t48 9z" />
    <glyph glyph-name="Lcommaaccent" unicode="&#x13b;" horiz-adv-x="1251" 
d="M236 404v538q0 352 -14 374t-40 30t-145 11v64q244 -8 305 -8t284 8v-64q-118 -3 -144 -11t-37 -26t-13 -66t-5 -312v-672q0 -105 4 -171q114 -7 226 -7q282 0 395 36q13 30 23 69l40 166h67q-22 -149 -43 -350q-67 -13 -225 -13l-592 8q-96 0 -195 -8v52q61 29 75 42
t24 45q10 33 10 265zM336 -689q124 206 158 333q9 34 24 148l108 27q22 7 96 33l26 -28q-124 -289 -302 -499l-85 -39z" />
    <glyph glyph-name="lcommaaccent" unicode="&#x13c;" horiz-adv-x="596" 
d="M379 1490q15 0 15 -17q0 -7 -2 -20l-1 -33q-5 -179 -6 -305l-2 -156v-519q5 -260 6 -296q2 -73 48 -84q7 -1 111 -3v-57q-136 8 -236 8t-261 -8v57l94 1q38 2 50 23q11 21 13 53t8 306v415q0 445 -17 479q-5 10 -18 16t-136 5v59q226 28 314 70q13 6 20 6zM46 -689
q124 206 158 333q9 34 24 148l108 27q22 7 96 33l26 -28q-124 -289 -302 -499l-85 -39z" />
    <glyph glyph-name="Lcaron" unicode="&#x13d;" horiz-adv-x="1251" 
d="M236 404v538q0 352 -14 374t-40 30t-145 11v64q244 -8 305 -8t284 8v-64q-118 -3 -144 -11t-37 -26t-13 -66t-5 -312v-672q0 -105 4 -171q114 -7 226 -7q282 0 395 36q13 30 23 69l40 166h67q-22 -149 -43 -350q-67 -13 -225 -13l-592 8q-96 0 -195 -8v52q61 29 75 42
t24 45q10 33 10 265zM770 880q124 206 158 333q9 34 24 148l108 27q22 7 96 33l26 -28q-124 -289 -302 -499l-85 -39z" />
    <glyph glyph-name="lcaron" unicode="&#x13e;" horiz-adv-x="934" 
d="M379 1490q15 0 15 -17q0 -7 -2 -20l-1 -33q-5 -179 -6 -305l-2 -156v-519q5 -260 6 -296q2 -73 48 -84q7 -1 111 -3v-57q-136 8 -236 8t-261 -8v57l94 1q38 2 50 23q11 21 13 53t8 306v415q0 445 -17 479q-5 10 -18 16t-136 5v59q226 28 314 70q13 6 20 6zM417 949
q124 206 158 333q9 34 24 148l108 27q22 7 96 33l26 -28q-124 -289 -302 -499l-85 -39z" />
    <glyph glyph-name="Ldot" unicode="&#x13f;" horiz-adv-x="1251" 
d="M688 648q-47 0 -80 32.5t-33 79.5t33 80t80 33t79.5 -33t32.5 -80t-32.5 -79.5t-79.5 -32.5zM329 1405q36 0 289 8l8 -7v-50l-8 -7q-135 -4 -156.5 -18t-27 -54.5t-5.5 -112.5l-2 -230v-442q0 -166 2 -232l5 -173h204q244 0 304.5 6t116.5 29q11 25 31.5 115t21.5 104
l9 8h49l7 -8q-8 -40 -16.5 -155t-8.5 -186l-8 -8q-190 6 -499 6l-292 2q-100 0 -204 -8l-8 8v33l8 10q62 32 68 39t12.5 129t6.5 294v429l-2 195q-1 170 -15 186t-41 23t-133 11l-8 7v50l8 7q248 -8 284 -8z" />
    <glyph glyph-name="ldot" unicode="&#x140;" horiz-adv-x="697" 
d="M580 702q-46 0 -78 32t-32 78t32 78.5t79 32.5t78.5 -32.5t31.5 -78.5t-32.5 -78t-78.5 -32zM382 1008v-627q0 -22 4 -141.5t8.5 -139.5t13.5 -29t22 -11.5t108 -8.5l9 -8v-42l-8 -9q-125 8 -241 8t-240 -8l-9 9v42l9 8q97 6 109.5 9t22 12.5t13 29t8 129t4.5 165.5v518
l-4 212q-5 191 -13.5 202t-23.5 15t-121 4l-9 9v42l8 9q191 22 322 74l19 -12q-11 -115 -11 -461z" />
    <glyph glyph-name="Lslash" unicode="&#x141;" horiz-adv-x="1251" 
d="M237 404v210l-197 -119l-33 65l230 138v244q0 350 -15 373t-40.5 31.5t-144.5 10.5v64q245 -8 306 -8t283 8v-64q-118 -2 -144 -10.5t-37 -26.5t-13 -66t-5 -312v-149l294 177l31 -63l-325 -198v-439q0 -105 4 -171q114 -7 226 -7q283 0 395 36q13 30 24 69l40 166h66
q-22 -149 -43 -350q-65 -13 -225 -13l-592 8q-95 0 -194 -8v52q62 29 75 42t20 34q14 42 14 276z" />
    <glyph glyph-name="lslash" unicode="&#x142;" horiz-adv-x="596" 
d="M379 1490q14 0 14 -17q0 -7 -1 -20l-1 -33q-5 -179 -7 -305l-1 -156v-74l220 135l30 -68l-250 -152v-360q5 -260 6 -296t10 -56q9 -21 27 -25q17 -4 121 -6v-57q-135 8 -235 8t-262 -8v57l95 1q39 2 50 23t13 53t7 306v277l-205 -124l-33 64l238 145v53q0 447 -15 477
q-6 12 -19 18t-136 5v59q226 28 314 70q13 6 20 6z" />
    <glyph glyph-name="Nacute" unicode="&#x143;" horiz-adv-x="1702" 
d="M235 431v815q0 33 -6 47q-6 15 -29 35q-22 20 -46 24t-105 6v63q167 -4 225 -4t130 4q85 -111 125 -164l207 -255l302 -364q255 -306 327 -378v731q0 289 -20 333q-7 13 -31 23t-127 11v63q117 -4 235 -4t211 4v-63q-103 -1 -127 -11q-24 -11 -32 -27q-18 -37 -18 -329
v-481q0 -146 5 -545l-103 30l-24 5q-25 8 -171 188l-129 163l-709 847v-767q0 -291 20 -333q7 -14 31 -24t127 -11v-63q-88 7 -199 7t-247 -7v63q105 1 129 11t31 28q18 38 18 329zM998 1877q30 -1 53 -23t23 -50t-14 -46t-57 -46l-311 -189h-84l287 296q39 40 57 49
q16 9 46 9z" />
    <glyph glyph-name="nacute" unicode="&#x144;" horiz-adv-x="1192" 
d="M350 962q15 0 15 -20q0 -8 -2 -30t-5 -138l186 159q82 30 159 30t149 -33t110 -83q36 -51 46 -111t9 -266v-177q1 -195 23 -219q10 -12 32 -14l107 -3v-57q-99 7 -159 7t-190 -7q14 247 14 312v168q0 157 -14 215t-75 99q-60 41 -140 41q-80 1 -142 -35q-63 -36 -89 -82
t-26 -157v-121q6 -260 7 -296t10 -56q9 -21 27 -25q17 -4 121 -6v-57q-121 7 -213 7t-282 -7v57l95 1q37 2 49 23t14 53t7 306v119q1 221 -9 237t-26 22t-130 4v57q202 28 295 73q20 10 27 10zM760 1421q30 -1 53 -23t23 -50t-14 -46t-57 -46l-311 -189h-84l287 296
q39 40 57 49q16 9 46 9z" />
    <glyph glyph-name="Ncommaaccent" unicode="&#x145;" horiz-adv-x="1702" 
d="M235 431v815q0 33 -6 47q-6 15 -29 35q-22 20 -46 24t-105 6v63q167 -4 225 -4t130 4q85 -111 125 -164l207 -255l302 -364q255 -306 327 -378v731q0 289 -20 333q-7 13 -31 23t-127 11v63q117 -4 235 -4t211 4v-63q-103 -1 -127 -11q-24 -11 -32 -27q-18 -37 -18 -329
v-481q0 -146 5 -545l-103 30l-24 5q-25 8 -171 188l-129 163l-709 847v-767q0 -291 20 -333q7 -14 31 -24t127 -11v-63q-88 7 -199 7t-247 -7v63q105 1 129 11t31 28q18 38 18 329zM546 -649q124 206 158 333q9 34 24 148l108 27q22 7 96 33l26 -28q-124 -289 -302 -499
l-85 -39z" />
    <glyph glyph-name="ncommaaccent" unicode="&#x146;" horiz-adv-x="1192" 
d="M350 962q15 0 15 -20q0 -8 -2 -30t-5 -138l186 159q82 30 159 30t149 -33t110 -83q36 -51 46 -111t9 -266v-177q1 -195 23 -219q10 -12 32 -14l107 -3v-57q-99 7 -159 7t-190 -7q14 247 14 312v168q0 157 -14 215t-75 99q-60 41 -140 41q-80 1 -142 -35q-63 -36 -89 -82
t-26 -157v-121q6 -260 7 -296t10 -56q9 -21 27 -25q17 -4 121 -6v-57q-121 7 -213 7t-282 -7v57l95 1q37 2 49 23t14 53t7 306v119q1 221 -9 237t-26 22t-130 4v57q202 28 295 73q20 10 27 10zM336 -669q124 206 158 333q9 34 24 148l108 27q22 7 96 33l26 -28
q-124 -289 -302 -499l-85 -39z" />
    <glyph glyph-name="Ncaron" unicode="&#x147;" horiz-adv-x="1702" 
d="M235 431v815q0 33 -6 47q-6 15 -29 35q-22 20 -46 24t-105 6v63q167 -4 225 -4t130 4q85 -111 125 -164l207 -255l302 -364q255 -306 327 -378v731q0 289 -20 333q-7 13 -31 23t-127 11v63q117 -4 235 -4t211 4v-63q-103 -1 -127 -11q-24 -11 -32 -27q-18 -37 -18 -329
v-481q0 -146 5 -545l-103 30l-24 5q-25 8 -171 188l-129 163l-709 847v-767q0 -291 20 -333q7 -14 31 -24t127 -11v-63q-88 7 -199 7t-247 -7v63q105 1 129 11t31 28q18 38 18 329zM905 1523h-133l-252 345h85l237 -208l240 208h80z" />
    <glyph glyph-name="ncaron" unicode="&#x148;" horiz-adv-x="1192" 
d="M350 962q15 0 15 -20q0 -8 -2 -30t-5 -138l186 159q82 30 159 30t149 -33t110 -83q36 -51 46 -111t9 -266v-177q1 -195 23 -219q10 -12 32 -14l107 -3v-57q-99 7 -159 7t-190 -7q14 247 14 312v168q0 157 -14 215t-75 99q-60 41 -140 41q-80 1 -142 -35q-63 -36 -89 -82
t-26 -157v-121q6 -260 7 -296t10 -56q9 -21 27 -25q17 -4 121 -6v-57q-121 7 -213 7t-282 -7v57l95 1q37 2 49 23t14 53t7 306v119q1 221 -9 237t-26 22t-130 4v57q202 28 295 73q20 10 27 10zM667 1067h-133l-252 345h85l237 -208l240 208h80z" />
    <glyph glyph-name="napostrophe" unicode="&#x149;" horiz-adv-x="1192" 
d="M350 962q15 0 15 -20q0 -8 -2 -30t-5 -138l186 159q82 30 159 30t149 -33t110 -83q36 -51 46 -111t9 -266v-177q1 -195 23 -219q10 -12 32 -14l107 -3v-57q-99 7 -159 7t-190 -7q14 247 14 312v168q0 157 -14 215t-75 99q-60 41 -140 41q-80 1 -142 -35q-63 -36 -89 -82
t-26 -157v-121q6 -260 7 -296t10 -56q9 -21 27 -25q17 -4 121 -6v-57q-121 7 -213 7t-282 -7v57l95 1q37 2 49 23t14 53t7 306v119q1 221 -9 237t-26 22t-130 4v57q202 28 295 73q20 10 27 10zM28 1090q124 206 158 333q9 34 24 148l108 27q22 7 96 33l26 -28
q-124 -289 -302 -499l-85 -39z" />
    <glyph glyph-name="Eng" unicode="&#x14a;" horiz-adv-x="1702" 
d="M1461 113q-1 -47 -1 -82t1 -66l-4 1q-9 -154 -37 -242t-107.5 -189t-219.5 -101q-8 0 -22 1l-12 71q33 -3 55 -3t51 15q71 37 93.5 124.5t28.5 401.5q-37 37 -124 144l-129 163l-709 847v-767q0 -291 20 -333q7 -14 31 -24t127 -11v-63q-88 7 -199 7t-247 -7v63
q105 1 129 11t31 28q18 37 18 329v815q0 33 -6 47q-6 15 -29 35t-46.5 24.5t-104.5 5.5v63q167 -4 225 -4t130 4q85 -111 125 -164l207 -255l302 -364q255 -306 327 -378v731q0 289 -20 333q-7 13 -31 23t-127 11v63q117 -4 235 -4t211 4v-63q-103 -1 -127 -11
q-24 -11 -32 -27q-18 -37 -18 -329v-481q0 -117 3 -397h2z" />
    <glyph glyph-name="eng" unicode="&#x14b;" horiz-adv-x="1192" 
d="M354 962q11 0 11 -20q0 -8 -2 -30t-5 -138l186 159q82 30 159 30t149.5 -33t109 -83.5t46.5 -110.5t9 -266v-177q0 -130 -1 -286h-2q-7 -185 -37 -278t-109.5 -194t-219.5 -101q-8 0 -22 1l-12 71q34 -3 56 -3t50 15q71 37 93.5 125t28.5 357h-2q4 247 4 312v168
q0 157 -14 215t-74.5 99t-140.5 41t-142 -35.5t-88.5 -82t-26.5 -156.5v-121q6 -260 7 -296t10 -56q9 -21 27 -25q17 -4 121 -6v-57q-121 7 -213 7t-282 -7v57l95 1q37 2 49 23t14 53t7 306v119q0 221 -9.5 237t-25.5 21.5t-130 4.5v57q202 28 295 73q20 10 31 10z" />
    <glyph glyph-name="Omacron" unicode="&#x14c;" horiz-adv-x="1610" 
d="M834 62q161 0 280 78q236 156 236 550q0 509 -368 641q-96 34 -230 34t-254 -71q-120 -72 -180 -206t-61 -318t57 -326t136 -224q150 -158 384 -158zM49 710q0 325 214 532q214 208 558 208q165 0 300 -46q337 -116 419 -451q22 -92 22 -197q0 -337 -226 -561t-572 -224
q-157 0 -293 51q-136 52 -230 152t-143 244t-49 292zM481 1670h649v-118h-649v118z" />
    <glyph glyph-name="omacron" unicode="&#x14d;" horiz-adv-x="1118" 
d="M257 534q0 -123 41 -250q40 -128 118 -186t182 -58t181 92q78 92 78 267q-1 175 -47 291q-85 210 -277 210q-123 0 -199 -89t-77 -277zM68 460q0 224 142 366t360 141q216 0 348 -132t132 -341q0 -146 -68 -267t-192 -189t-256 -69q-311 0 -420 258q-46 109 -46 233z
M235 1189h649v-118h-649v118z" />
    <glyph glyph-name="Obreve" unicode="&#x14e;" horiz-adv-x="1610" 
d="M834 62q161 0 280 78q236 156 236 550q0 509 -368 641q-96 34 -230 34t-254 -71q-120 -72 -180 -206t-61 -318t57 -326t136 -224q150 -158 384 -158zM49 710q0 325 214 532q214 208 558 208q165 0 300 -46q337 -116 419 -451q22 -92 22 -197q0 -337 -226 -561t-572 -224
q-157 0 -293 51q-136 52 -230 152t-143 244t-49 292zM805 1683q184 0 225 191h68q-8 -160 -88 -241t-207 -81t-208 84t-83 238h69q17 -92 75 -142t149 -49z" />
    <glyph glyph-name="obreve" unicode="&#x14f;" horiz-adv-x="1118" 
d="M257 534q0 -123 41 -250q40 -128 118 -186t182 -58t181 92q78 92 78 267q-1 175 -47 291q-85 210 -277 210q-123 0 -199 -89t-77 -277zM68 460q0 224 142 366t360 141q216 0 348 -132t132 -341q0 -146 -68 -267t-192 -189t-256 -69q-311 0 -420 258q-46 109 -46 233z
M559 1202q184 0 225 191h68q-8 -160 -88 -241t-207 -81t-208 84t-83 238h69q17 -91 75 -141t149 -50z" />
    <glyph glyph-name="Ohungarumlaut" unicode="&#x150;" horiz-adv-x="1610" 
d="M834 62q161 0 280 78q236 156 236 550q0 509 -368 641q-96 34 -230 34t-254 -71q-120 -72 -180 -206t-61 -318t57 -326t136 -224q150 -158 384 -158zM49 710q0 325 214 532q214 208 558 208q165 0 300 -46q337 -116 419 -451q22 -92 22 -197q0 -337 -226 -561t-572 -224
q-157 0 -293 51q-136 52 -230 152t-143 244t-49 292zM1306 1906q30 0 53 -22t23 -51t-14 -47t-57 -45l-311 -189h-84l287 296q39 40 57 49q16 9 46 9zM978 1906q30 0 52 -22q23 -22 23 -51q1 -29 -13 -47t-58 -45l-311 -189h-84l287 296q38 40 56 49t48 9z" />
    <glyph glyph-name="ohungarumlaut" unicode="&#x151;" horiz-adv-x="1118" 
d="M257 534q0 -123 41 -250q40 -128 118 -186t182 -58t181 92q78 92 78 267q-1 175 -47 291q-85 210 -277 210q-123 0 -199 -89t-77 -277zM68 460q0 224 142 366t360 141q216 0 348 -132t132 -341q0 -146 -68 -267t-192 -189t-256 -69q-311 0 -420 258q-46 109 -46 233z
M928 1425q30 -1 52 -23q23 -22 23 -50q1 -28 -13 -46t-58 -46l-311 -189h-84l287 296q38 40 56 49t48 9zM598 1425q30 -1 53 -23t23 -50t-14 -46t-57 -46l-311 -189h-84l287 296q39 40 57 49q16 9 46 9z" />
    <glyph glyph-name="OE" unicode="&#x152;" horiz-adv-x="2044" 
d="M810 1361q-158 0 -282 -66t-188 -201t-64 -323t63 -353t190.5 -262.5t287.5 -97.5t293 67q12 134 12 299v421q0 277 -13 429q-141 87 -299 87zM1297 298q0 -82 4 -195q177 -11 291 -11t170.5 8t110.5 28q26 73 52 216h64q-17 -150 -26 -333q-56 -11 -248 -11l-393 8
q-116 0 -289 -16t-281 -17q-108 0 -283 60t-286 249t-111 391t82 394t330 306q157 71 333 71q58 0 201 -16t207 -16t114 1l170 5q101 3 199 3t225 -15q-27 -101 -38 -306h-63q-3 124 -13 189q-116 40 -252 40t-256 -9q-14 -133 -14 -333v-212q60 -7 167 -7q106 0 174 6
t79 13t17 29t10 131h67q-7 -93 -7 -229t7 -233h-62l-13 140q-5 20 -15 29q-35 30 -189 30t-235 -7v-381z" />
    <glyph glyph-name="oe" unicode="&#x153;" horiz-adv-x="1694" 
d="M809 450q0 222 -103 352q-78 100 -203 100q-75 0 -172 -60.5t-97 -255.5t51 -320q85 -221 269 -221q108 0 181.5 91.5t73.5 313.5zM1232 561q166 0 213 2q2 41 2 59q0 89 -30 155.5t-83 98.5t-118 32t-124 -37.5t-89 -105t-38 -197.5q101 -7 267 -7zM1330 88
q118 0 239 81l15 -18l-33 -75q-52 -40 -140.5 -69t-178.5 -29q-216 0 -358 173q-155 -173 -363 -173q-126 0 -232.5 55.5t-166 173.5t-59.5 273q0 251 173 385q133 103 304 103t277 -74q36 -24 87 -77q55 53 129.5 103t235.5 50t261.5 -101.5t100.5 -291.5q0 -26 -3 -59
q-68 -17 -140 -23t-317 -6h-196q0 -253 123.5 -327t241.5 -74z" />
    <glyph glyph-name="Racute" unicode="&#x154;" horiz-adv-x="1368" 
d="M1176 1115q0 -87 -45 -170q-90 -165 -353 -223q25 -35 118 -156l252 -332q108 -138 122 -150t25 -16q12 -4 63 -4v-64q-76 6 -134 6t-144 -6q-65 74 -184 244q-191 272 -384 494l10 30q52 -3 79 -3q182 0 276 86t94 218q0 133 -81 205t-245 72q-103 0 -202 -31
q-6 -86 -13 -392v-444q0 -351 14 -373q14 -24 41 -32q26 -8 144 -10v-64q-141 8 -249 8t-335 -8v64q118 2 144 10t37 26t13 67t5 312v463q0 352 -14 374t-40 30t-145 11v64q39 -1 119 -3l192 -5l358 10q190 0 278 -34q88 -35 136 -111t48 -163zM858 1879q30 -1 53 -23
t23 -50t-14 -46t-57 -46l-311 -189h-84l287 296q39 40 57 49q16 9 46 9z" />
    <glyph glyph-name="racute" unicode="&#x155;" horiz-adv-x="809" 
d="M391 535v-103q0 -278 7 -307q8 -29 14 -37t28 -15t155 -16v-57q-176 7 -302 7t-246 -7v57q113 2 132 6t33 36t14 341v119q0 223 -9 238t-25 21t-131 4v57q202 28 295 73q20 10 27 10q15 0 15 -20q0 -7 -3 -42t-4 -163q45 52 83 103q38 52 62 72t62 36q39 16 81 15
q42 0 83 -18l6 -14q-15 -133 -17 -234h-45q-44 92 -126 92q-81 1 -135 -63t-54 -191zM564 1421q30 -1 53 -23t23 -50t-14 -46t-57 -46l-311 -189h-84l287 296q39 40 57 49q16 9 46 9z" />
    <glyph glyph-name="Rcommaaccent" unicode="&#x156;" horiz-adv-x="1368" 
d="M1176 1115q0 -87 -45 -170q-90 -165 -353 -223q25 -35 118 -156l252 -332q108 -138 122 -150t25 -16q12 -4 63 -4v-64q-76 6 -134 6t-144 -6q-65 74 -184 244q-191 272 -384 494l10 30q52 -3 79 -3q182 0 276 86t94 218q0 133 -81 205t-245 72q-103 0 -202 -31
q-6 -86 -13 -392v-444q0 -351 14 -373q14 -24 41 -32q26 -8 144 -10v-64q-141 8 -249 8t-335 -8v64q118 2 144 10t37 26t13 67t5 312v463q0 352 -14 374t-40 30t-145 11v64q39 -1 119 -3l192 -5l358 10q190 0 278 -34q88 -35 136 -111t48 -163zM426 -659q124 206 158 333
q9 34 24 148l108 27q22 7 96 33l26 -28q-124 -289 -302 -499l-85 -39z" />
    <glyph glyph-name="rcommaaccent" unicode="&#x157;" horiz-adv-x="809" 
d="M391 535v-103q0 -278 7 -307q8 -29 14 -37t28 -15t155 -16v-57q-176 7 -302 7t-246 -7v57q113 2 132 6t33 36t14 341v119q0 223 -9 238t-25 21t-131 4v57q202 28 295 73q20 10 27 10q15 0 15 -20q0 -7 -3 -42t-4 -163q45 52 83 103q38 52 62 72t62 36q39 16 81 15
q42 0 83 -18l6 -14q-15 -133 -17 -234h-45q-44 92 -126 92q-81 1 -135 -63t-54 -191zM87 -689q124 206 158 333q9 34 24 148l108 27q22 7 96 33l26 -28q-124 -289 -302 -499l-85 -39z" />
    <glyph glyph-name="Rcaron" unicode="&#x158;" horiz-adv-x="1368" 
d="M1176 1115q0 -87 -45 -170q-90 -165 -353 -223q25 -35 118 -156l252 -332q108 -138 122 -150t25 -16q12 -4 63 -4v-64q-76 6 -134 6t-144 -6q-65 74 -184 244q-191 272 -384 494l10 30q52 -3 79 -3q182 0 276 86t94 218q0 133 -81 205t-245 72q-103 0 -202 -31
q-6 -86 -13 -392v-444q0 -351 14 -373q14 -24 41 -32q26 -8 144 -10v-64q-141 8 -249 8t-335 -8v64q118 2 144 10t37 26t13 67t5 312v463q0 352 -14 374t-40 30t-145 11v64q39 -1 119 -3l192 -5l358 10q190 0 278 -34q88 -35 136 -111t48 -163zM597 1525h-133l-252 345h85
l237 -208l240 208h80z" />
    <glyph glyph-name="rcaron" unicode="&#x159;" horiz-adv-x="809" 
d="M391 535v-103q0 -278 7 -307q8 -29 14 -37t28 -15t155 -16v-57q-176 7 -302 7t-246 -7v57q113 2 132 6t33 36t14 341v119q0 223 -9 238t-25 21t-131 4v57q202 28 295 73q20 10 27 10q15 0 15 -20q0 -7 -3 -42t-4 -163q45 52 83 103q38 52 62 72t62 36q39 16 81 15
q42 0 83 -18l6 -14q-15 -133 -17 -234h-45q-44 92 -126 92q-81 1 -135 -63t-54 -191zM471 1067h-133l-252 345h85l237 -208l240 208h80z" />
    <glyph glyph-name="Sacute" unicode="&#x15a;" horiz-adv-x="1075" 
d="M538 1375q-128 -1 -214 -89t-87 -229q0 -85 31 -131q30 -46 98 -70t193 -40t225 -36q94 -28 139 -66q103 -88 103 -248q0 -199 -165 -347t-427 -148q-198 0 -359 78q16 96 19 311h68q4 -146 16 -172t56 -57q44 -29 118 -53t159 -24t170 46t124 122t39 152t-20 124
q-38 95 -158 119q-37 6 -148 20t-189 31q-104 32 -153 75q-50 43 -80 113t-30 170t62 204t182 162t233 58q223 0 401 -88q-24 -109 -29 -278h-68q-3 154 -9 168q-25 36 -68 65q-104 58 -232 58zM694 1906q30 0 52 -22q23 -22 23 -51q1 -29 -13 -47t-58 -45l-311 -189h-84
l287 296q38 40 56 49t48 9z" />
    <glyph glyph-name="sacute" unicode="&#x15b;" horiz-adv-x="868" 
d="M440 33q82 0 148 54t65 144q1 90 -79 128q-38 18 -166 47t-174 46t-79 47q-72 65 -72 160q-1 95 41 161t131 108t173 42q180 0 302 -61q-7 -111 -10 -226h-57q-7 101 -23 128q-17 27 -44 47q-69 53 -166 53q-96 0 -150 -52t-53 -124q0 -73 57 -111q26 -18 73 -31l166 -41
q125 -32 173 -55t77 -71t29 -117q0 -135 -112 -235t-298 -101q-86 1 -197 21t-116 24t-5 12q0 7 8 46t11 226h60q3 -162 55 -209t101 -54q49 -6 131 -6zM596 1428q30 0 52 -22q23 -22 23 -51q1 -29 -13 -47t-58 -45l-311 -189h-84l287 296q38 40 56 49t48 9z" />
    <glyph glyph-name="Scircumflex" unicode="&#x15c;" horiz-adv-x="1075" 
d="M538 1375q-128 -1 -214 -89t-87 -229q0 -85 31 -131q30 -46 98 -70t193 -40t225 -36q94 -28 139 -66q103 -88 103 -248q0 -199 -165 -347t-427 -148q-198 0 -359 78q16 96 19 311h68q4 -146 16 -172t56 -57q44 -29 118 -53t159 -24t170 46t124 122t39 152t-20 124
q-38 95 -158 119q-37 6 -148 20t-189 31q-104 32 -153 75q-50 43 -80 113t-30 170t62 204t182 162t233 58q223 0 401 -88q-24 -109 -29 -278h-68q-3 154 -9 168q-25 36 -68 65q-104 58 -232 58zM472 1897h133l252 -345h-85l-237 209l-240 -209h-80z" />
    <glyph glyph-name="scircumflex" unicode="&#x15d;" horiz-adv-x="868" 
d="M440 33q82 0 148 54t65 144q1 90 -79 128q-38 18 -166 47t-174 46t-79 47q-72 65 -72 160q-1 95 41 161t131 108t173 42q180 0 302 -61q-7 -111 -10 -226h-57q-7 101 -23 128q-17 27 -44 47q-69 53 -166 53q-96 0 -150 -52t-53 -124q0 -73 57 -111q26 -18 73 -31l166 -41
q125 -32 173 -55t77 -71t29 -117q0 -135 -112 -235t-298 -101q-86 1 -197 21t-116 24t-5 12q0 7 8 46t11 226h60q3 -162 55 -209t101 -54q49 -6 131 -6zM374 1419h133l252 -345h-85l-237 209l-240 -209h-80z" />
    <glyph glyph-name="Scedilla" unicode="&#x15e;" horiz-adv-x="1075" 
d="M485 54q146 0 247.5 89t101.5 241q0 197 -178 233q-37 6 -148 20t-189 31q-263 81 -263 339q0 196 142 319.5t350 123.5t386 -88q-24 -109 -29 -278h-68q-3 154 -9 168q-25 36 -68 65q-104 58 -232 58t-214.5 -88.5t-86.5 -218.5t65.5 -178.5t223.5 -69.5t258 -40
q242 -72 242 -314q0 -185 -142.5 -326t-358.5 -164l-47 -110q34 6 61 6q85 0 129.5 -41t44.5 -105t-61.5 -115.5t-171.5 -51.5t-200 32l31 67q70 -24 132 -24q109 0 109 85q0 77 -103 77q-25 0 -60 -10l-18 15l77 170q-212 0 -373 78q16 96 19 311h68q6 -176 50 -213
t124 -65t159 -28z" />
    <glyph glyph-name="scedilla" unicode="&#x15f;" horiz-adv-x="868" 
d="M400 33q122 0 187.5 54t65.5 148q0 57 -37 94.5t-186 71.5t-186 47q-161 60 -161 227q0 136 106.5 215.5t262.5 79.5t278 -61q-7 -111 -10 -226h-57q-8 110 -34.5 144.5t-81.5 59t-134 24.5t-132.5 -52t-53.5 -122q0 -105 130 -144l166 -41q190 -48 234.5 -104t44.5 -139
q0 -135 -111.5 -235.5t-298.5 -100.5l-44 -107q34 6 61 6q85 0 129.5 -41t44.5 -105t-61.5 -115.5t-171.5 -51.5t-200 32l31 67q70 -24 132 -24q109 0 109 85q0 77 -103 77q-25 0 -60 -10l-18 15l79 176q-218 19 -242 43q-4 3 -4 10.5t8 45.5t11 226h60q3 -164 64 -216.5
t183 -52.5z" />
    <glyph glyph-name="Scaron" unicode="&#x160;" horiz-adv-x="1075" 
d="M538 1375q-128 -1 -214 -89t-87 -229q0 -85 31 -131q30 -46 98 -70t193 -40t225 -36q94 -28 139 -66q103 -88 103 -248q0 -199 -165 -347t-427 -148q-198 0 -359 78q16 96 19 311h68q4 -146 16 -172t56 -57q44 -29 118 -53t159 -24t170 46t124 122t39 152t-20 124
q-38 95 -158 119q-37 6 -148 20t-189 31q-104 32 -153 75q-50 43 -80 113t-30 170t62 204t182 162t233 58q223 0 401 -88q-24 -109 -29 -278h-68q-3 154 -9 168q-25 36 -68 65q-104 58 -232 58zM689 1491h-133l-252 345h85l237 -208l240 208h80z" />
    <glyph glyph-name="scaron" unicode="&#x161;" horiz-adv-x="868" 
d="M440 33q82 0 148 54t65 144q1 90 -79 128q-38 18 -166 47t-174 46t-79 47q-72 65 -72 160q-1 95 41 161t131 108t173 42q180 0 302 -61q-7 -111 -10 -226h-57q-7 101 -23 128q-17 27 -44 47q-69 53 -166 53q-96 0 -150 -52t-53 -124q0 -73 57 -111q26 -18 73 -31l166 -41
q125 -32 173 -55t77 -71t29 -117q0 -135 -112 -235t-298 -101q-86 1 -197 21t-116 24t-5 12q0 7 8 46t11 226h60q3 -162 55 -209t101 -54q49 -6 131 -6zM575 1058h-133l-252 345h85l237 -208l240 208h80z" />
    <glyph glyph-name="Tcedilla" unicode="&#x162;" horiz-adv-x="1255" 
d="M43 1421q382 -14 632 -14q251 0 538 14q-12 -112 -16 -331h-64l-8 96q-10 107 -17 114q-8 7 -20 10t-99 8q-86 5 -136 5h-122q-10 -96 -10 -259v-585q1 -351 15 -373q14 -24 40 -32t144 -10v-64q-179 8 -227 8h-57l-43 -101q34 6 61 6q86 0 130 -41t44 -105
q0 -63 -62 -115t-170 -52q-110 0 -201 32l31 67q70 -24 128 -24q58 1 85 25q28 24 28 58q-1 34 -27 56t-64 23q-38 0 -72 -10l-18 15l74 164q-79 -2 -221 -6v64q119 2 145 10t37 26t13 67t5 312v583q0 42 -2 92l-6 169h-149q-220 0 -233 -20q-14 -20 -23 -112l-11 -101h-62
q-1 239 -10 331z" />
    <glyph glyph-name="tcedilla" unicode="&#x163;" horiz-adv-x="668" 
d="M199 789h-41q-50 0 -112 -5v42q100 38 159 68q0 238 -6 304q104 36 169 77l24 -20q-11 -83 -24 -366q80 -1 152 -1t125 6l7 -7l-21 -93q-63 1 -116 1t-147 -1l-6 -407q-3 -149 2 -178t19 -51q15 -22 37 -34q22 -13 76 -20q72 0 131 21l12 -39q-47 -37 -91 -77
q-62 -23 -147 -23h-1l-36 -85q34 6 61 6q85 0 129 -41t45 -105q1 -63 -61 -115t-172 -52t-200 32l31 67q69 -24 127 -24q58 1 86 25t28 58t-26 56t-64 23q-38 0 -73 -10l-18 15l71 158q-76 21 -112 92q-17 33 -22 104l5 184v415z" />
    <glyph glyph-name="Tcaron" unicode="&#x164;" horiz-adv-x="1255" 
d="M43 1421q382 -14 632 -14q251 0 538 14q-12 -112 -16 -331h-64l-8 96q-10 107 -17 114q-8 7 -20 10t-99 8q-86 5 -136 5h-122q-10 -96 -10 -259v-585q1 -351 15 -373q14 -24 40 -32t144 -10v-64q-180 8 -244 8t-337 -8v64q119 2 145 10t37 26t13 67t5 312v583q0 42 -2 92
l-6 169h-149q-220 0 -233 -20q-14 -20 -23 -112l-11 -101h-62q-1 239 -10 331zM692 1523h-133l-252 345h85l237 -208l240 208h80z" />
    <glyph glyph-name="tcaron" unicode="&#x165;" horiz-adv-x="668" 
d="M199 789h-41q-50 0 -112 -5v42q100 38 159 68q0 238 -6 304q104 36 169 77l24 -20q-11 -83 -24 -366q80 -1 152 -1t125 6l7 -7l-21 -93q-63 1 -116 1t-147 -1l-6 -407q-3 -149 2 -178t19 -51q15 -22 37 -34q22 -13 76 -20q72 0 131 21l12 -39q-47 -37 -91 -77
q-62 -23 -131 -23t-101 12t-57 34q-26 22 -43 54q-17 33 -22 104l5 184v415zM527 1017q124 206 158 333q9 34 24 148l108 27q22 7 96 33l26 -28q-124 -289 -302 -499l-85 -39z" />
    <glyph glyph-name="Tbar" unicode="&#x166;" horiz-adv-x="1255" 
d="M43 1421q382 -14 632 -14q251 0 538 14q-12 -112 -16 -331h-64l-8 96q-10 107 -17 114q-8 7 -20 10t-99 8q-86 5 -136 5h-122q-10 -96 -10 -259v-293h215v-118h-215v-174q1 -351 15 -373q14 -24 40 -32t144 -10v-64q-180 8 -244 8t-337 -8v64q119 2 145 10t37 26t13 67
t5 312v174h-252v118h252v291q0 42 -2 92l-6 169h-149q-220 0 -233 -20q-14 -20 -23 -112l-11 -101h-62q-1 239 -10 331z" />
    <glyph glyph-name="tbar" unicode="&#x167;" horiz-adv-x="668" 
d="M199 573h-174v118h174v98h-41q-50 0 -112 -5v42q100 38 159 68q0 238 -6 304q104 36 169 77l24 -20q-11 -83 -24 -366q80 -1 152 -1t125 6l7 -7l-21 -93q-63 1 -116 1t-147 -1l-2 -103h308v-118h-309l-3 -186q-3 -149 2 -178t19 -51q15 -22 37 -34q22 -13 76 -20
q72 0 131 21l12 -39q-47 -37 -91 -77q-62 -23 -131 -23t-101 12t-57 34q-26 22 -43 54q-17 33 -22 104l5 184v199z" />
    <glyph glyph-name="Utilde" unicode="&#x168;" horiz-adv-x="1593" 
d="M334 1413q141 0 281 8v-64q-118 -3 -144 -11t-37 -26t-13 -66t-5 -312v-370q0 -216 28 -284q76 -189 385 -188q112 0 199 28q148 47 192 147q44 101 44 359v308q0 352 -14 374t-41 30q-26 8 -144 11v64q165 -8 237 -8t253 8v-64q-119 -3 -145 -11t-36 -26
q-11 -18 -13 -66t-5 -312v-335q0 -247 -34 -345t-116 -164q-157 -127 -429 -127q-154 1 -267 37t-172 96t-84 131q-25 72 -25 265v442q-1 352 -15 374t-40 30t-144 11v64q163 -8 304 -8zM618 1620q-71 0 -107 -96h-68q25 108 87 165t130 57t155 -42t111 -48q24 -7 43 -7
q62 0 105 101h68q-29 -115 -89 -171t-128 -56q-68 -1 -155 41q-86 42 -110 49t-42 7z" />
    <glyph glyph-name="utilde" unicode="&#x169;" horiz-adv-x="1235" 
d="M1016 964q16 0 16 -20q0 -8 -7 -85t-7 -282v-137l2 -139q3 -121 4 -157q2 -73 48 -84q6 -1 111 -3v-57q-131 7 -201 7t-147 -7q6 81 9 182q-60 -48 -111 -99t-81 -67q-69 -38 -177 -38q-289 0 -289 301l5 127v171q0 183 -8 205t-20 30q-13 8 -59 8t-78 1v57
q215 24 312 77q16 9 25 9q16 0 16 -20q-1 -8 -3 -30t-6 -151t-5 -186v-195q1 -122 17 -172t64 -78q48 -30 106 -30q155 0 249 126q23 29 33 52t10 213v84q0 183 -8 205t-20 30t-58 8t-79 1v57q215 24 312 77q16 9 25 9zM430 1165q-71 0 -107 -96h-68q25 108 87 165t130 57
q68 1 155 -41t111 -49t43 -7q62 0 105 101h68q-29 -115 -89 -171t-128 -56t-155 42q-86 42 -110 48q-24 7 -42 7z" />
    <glyph glyph-name="Umacron" unicode="&#x16a;" horiz-adv-x="1593" 
d="M334 1413q141 0 281 8v-64q-118 -3 -144 -11t-37 -26t-13 -66t-5 -312v-370q0 -216 28 -284q76 -189 385 -188q112 0 199 28q148 47 192 147q44 101 44 359v308q0 352 -14 374t-41 30q-26 8 -144 11v64q165 -8 237 -8t253 8v-64q-119 -3 -145 -11t-36 -26
q-11 -18 -13 -66t-5 -312v-335q0 -247 -34 -345t-116 -164q-157 -127 -429 -127q-154 1 -267 37t-172 96t-84 131q-25 72 -25 265v442q-1 352 -15 374t-40 30t-144 11v64q163 -8 304 -8zM468 1641h649v-118h-649v118z" />
    <glyph glyph-name="umacron" unicode="&#x16b;" horiz-adv-x="1235" 
d="M1016 964q16 0 16 -20q0 -8 -7 -85t-7 -282v-137l2 -139q3 -121 4 -157q2 -73 48 -84q6 -1 111 -3v-57q-131 7 -201 7t-147 -7q6 81 9 182q-60 -48 -111 -99t-81 -67q-69 -38 -177 -38q-289 0 -289 301l5 127v171q0 183 -8 205t-20 30q-13 8 -59 8t-78 1v57
q215 24 312 77q16 9 25 9q16 0 16 -20q-1 -8 -3 -30t-6 -151t-5 -186v-195q1 -122 17 -172t64 -78q48 -30 106 -30q155 0 249 126q23 29 33 52t10 213v84q0 183 -8 205t-20 30t-58 8t-79 1v57q215 24 312 77q16 9 25 9zM280 1186h649v-118h-649v118z" />
    <glyph glyph-name="Ubreve" unicode="&#x16c;" horiz-adv-x="1593" 
d="M334 1413q141 0 281 8v-64q-118 -3 -144 -11t-37 -26t-13 -66t-5 -312v-370q0 -216 28 -284q76 -189 385 -188q112 0 199 28q148 47 192 147q44 101 44 359v308q0 352 -14 374t-41 30q-26 8 -144 11v64q165 -8 237 -8t253 8v-64q-119 -3 -145 -11t-36 -26
q-11 -18 -13 -66t-5 -312v-335q0 -247 -34 -345t-116 -164q-157 -127 -429 -127q-154 1 -267 37t-172 96t-84 131q-25 72 -25 265v442q-1 352 -15 374t-40 30t-144 11v64q163 -8 304 -8zM792 1654q184 0 225 191h68q-8 -160 -88 -241t-207 -81t-208 84t-83 238h69
q16 -91 74 -141t150 -50z" />
    <glyph glyph-name="ubreve" unicode="&#x16d;" horiz-adv-x="1235" 
d="M1016 964q16 0 16 -20q0 -8 -7 -85t-7 -282v-137l2 -139q3 -121 4 -157q2 -73 48 -84q6 -1 111 -3v-57q-131 7 -201 7t-147 -7q6 81 9 182q-60 -48 -111 -99t-81 -67q-69 -38 -177 -38q-289 0 -289 301l5 127v171q0 183 -8 205t-20 30q-13 8 -59 8t-78 1v57
q215 24 312 77q16 9 25 9q16 0 16 -20q-1 -8 -3 -30t-6 -151t-5 -186v-195q1 -122 17 -172t64 -78q48 -30 106 -30q155 0 249 126q23 29 33 52t10 213v84q0 183 -8 205t-20 30t-58 8t-79 1v57q215 24 312 77q16 9 25 9zM604 1199q184 0 225 191h68q-8 -160 -88 -241
t-207 -81t-208 84t-83 238h69q16 -92 74 -142t150 -49z" />
    <glyph glyph-name="Uring" unicode="&#x16e;" horiz-adv-x="1593" 
d="M334 1413q141 0 281 8v-64q-118 -3 -144 -11t-37 -26t-13 -66t-5 -312v-370q0 -216 28 -284q76 -189 385 -188q112 0 199 28q148 47 192 147q44 101 44 359v308q0 352 -14 374t-41 30q-26 8 -144 11v64q165 -8 237 -8t253 8v-64q-119 -3 -145 -11t-36 -26
q-11 -18 -13 -66t-5 -312v-335q0 -247 -34 -345t-116 -164q-157 -127 -429 -127q-154 1 -267 37t-172 96t-84 131q-25 72 -25 265v442q-1 352 -15 374t-40 30t-144 11v64q163 -8 304 -8zM792 1877q-62 0 -92 -41t-31 -108q1 -67 31 -108t92 -41t92 41t31 108q-1 67 -31 108
t-92 41zM792 1933q102 1 164 -59t61 -146q1 -86 -61 -146t-164 -59q-102 -1 -164 59t-61 146q-1 86 61 146t164 59z" />
    <glyph glyph-name="uring" unicode="&#x16f;" horiz-adv-x="1235" 
d="M1016 964q16 0 16 -20q0 -8 -7 -85t-7 -282v-137l2 -139q3 -121 4 -157q2 -73 48 -84q6 -1 111 -3v-57q-131 7 -201 7t-147 -7q6 81 9 182q-60 -48 -111 -99t-81 -67q-69 -38 -177 -38q-289 0 -289 301l5 127v171q0 183 -8 205t-20 30q-13 8 -59 8t-78 1v57
q215 24 312 77q16 9 25 9q16 0 16 -20q-1 -8 -3 -30t-6 -151t-5 -186v-195q1 -122 17 -172t64 -78q48 -30 106 -30q155 0 249 126q23 29 33 52t10 213v84q0 183 -8 205t-20 30t-58 8t-79 1v57q215 24 312 77q16 9 25 9zM604 1422q-62 0 -92 -41t-31 -108q1 -67 31 -108
t92 -41t92 41t31 108q-1 67 -31 108t-92 41zM604 1478q102 0 164 -60t61 -145q1 -85 -61 -145t-164 -60t-164 60t-61 145q-1 85 61 145t164 60z" />
    <glyph glyph-name="Uhungarumlaut" unicode="&#x170;" horiz-adv-x="1593" 
d="M334 1413q141 0 281 8v-64q-118 -3 -144 -11t-37 -26t-13 -66t-5 -312v-370q0 -216 28 -284q76 -189 385 -188q112 0 199 28q148 47 192 147q44 101 44 359v308q0 352 -14 374t-41 30q-26 8 -144 11v64q165 -8 237 -8t253 8v-64q-119 -3 -145 -11t-36 -26
q-11 -18 -13 -66t-5 -312v-335q0 -247 -34 -345t-116 -164q-157 -127 -429 -127q-154 1 -267 37t-172 96t-84 131q-25 72 -25 265v442q-1 352 -15 374t-40 30t-144 11v64q163 -8 304 -8zM1296 1877q30 -1 53 -23t23 -50t-14 -46t-57 -46l-311 -189h-84l287 296q39 40 57 49
q16 9 46 9zM968 1877q30 -1 52 -23q23 -22 23 -50q1 -28 -13 -46t-58 -46l-311 -189h-84l287 296q38 40 56 49t48 9z" />
    <glyph glyph-name="uhungarumlaut" unicode="&#x171;" horiz-adv-x="1235" 
d="M1016 964q16 0 16 -20q0 -8 -7 -85t-7 -282v-137l2 -139q3 -121 4 -157q2 -73 48 -84q6 -1 111 -3v-57q-131 7 -201 7t-147 -7q6 81 9 182q-60 -48 -111 -99t-81 -67q-69 -38 -177 -38q-289 0 -289 301l5 127v171q0 183 -8 205t-20 30q-13 8 -59 8t-78 1v57
q215 24 312 77q16 9 25 9q16 0 16 -20q-1 -8 -3 -30t-6 -151t-5 -186v-195q1 -122 17 -172t64 -78q48 -30 106 -30q155 0 249 126q23 29 33 52t10 213v84q0 183 -8 205t-20 30t-58 8t-79 1v57q215 24 312 77q16 9 25 9zM1016 1422q30 0 53 -22t23 -51t-14 -47t-57 -45
l-311 -189h-84l287 296q39 40 57 49q16 9 46 9zM688 1422q30 0 52 -22q23 -22 23 -51q1 -29 -13 -47t-58 -45l-311 -189h-84l287 296q38 40 56 49t48 9z" />
    <glyph glyph-name="Uogonek" unicode="&#x172;" horiz-adv-x="1593" 
d="M626 -146q0 61 60 120q-351 28 -432 261q-25 72 -25 265v442q-1 352 -15 374t-40 30t-144 11v64q163 -8 304 -8t281 8v-64q-118 -3 -144 -11t-37 -26t-13 -66t-5 -312v-370q0 -216 28 -284q76 -189 385 -188q112 0 199 28q148 47 192 147q44 101 44 359v308
q0 352 -14 374t-41 30q-26 8 -144 11v64q165 -8 237 -8t253 8v-64q-119 -3 -145 -11t-36 -26q-11 -18 -13 -66t-5 -312v-335q0 -247 -34 -345t-116 -164q-157 -127 -429 -127h-11q-41 -47 -41 -85t24 -62t59 -25q65 0 150 74l33 -43q-79 -70 -129 -93t-104 -23t-93 40
t-39 100z" />
    <glyph glyph-name="uogonek" unicode="&#x173;" horiz-adv-x="1235" 
d="M966 -83q0 -39 24 -63t59 -24q65 0 150 74l33 -43q-80 -70 -130 -93t-103 -23q-54 -1 -93 39t-39 102t60 120q-46 -2 -92 -6q6 81 9 182q-60 -48 -111 -99t-81 -67q-69 -38 -177 -38q-289 0 -289 301l5 127v171q0 183 -8 205t-20 30q-13 8 -59 8t-78 1v57q215 24 312 77
q16 9 25 9q16 0 16 -20q-1 -8 -3 -30t-6 -151t-5 -186v-195q1 -122 17 -172t64 -78q48 -30 106 -30q155 0 249 126q23 29 33 52t10 213v84q0 183 -8 205t-20 30t-58 8t-79 1v57q215 24 312 77q16 9 25 9q16 0 16 -20q0 -8 -7 -85t-7 -282v-137l2 -139q3 -121 4 -157
q2 -73 48 -84q6 -1 111 -3v-57q-108 6 -172 7q-45 -52 -45 -90z" />
    <glyph glyph-name="Wcircumflex" unicode="&#x174;" horiz-adv-x="2048" 
d="M272 1413q82 0 265 8v-60q-132 -5 -148 -13t-16 -32q1 -24 23 -145t33 -169l157 -693l247 615q97 242 191 511h64q92 -284 165 -487l235 -652l170 597q46 160 74 286q28 127 28 143t-18 26t-159 13v60q154 -7 215 -7t213 7v-60q-69 -1 -92 -14t-38 -47t-84 -264
l-103 -337q-15 -50 -63 -227l-129 -483h-102q-111 330 -172 496l-228 617l-199 -494l-125 -327q-35 -91 -104 -292h-101l-91 417l-193 823q-21 87 -40 103t-124 29v60q167 -8 249 -8zM953 1882h133l252 -345h-85l-237 209l-240 -209h-80z" />
    <glyph glyph-name="wcircumflex" unicode="&#x175;" horiz-adv-x="1708" 
d="M269 933q130 0 246 7v-58q-93 -1 -117 -6q-40 -9 -40 -40q0 -23 29 -123l93 -322q23 -81 56 -175l223 503q52 117 98 236h49q66 -183 90 -242l115 -290q59 -146 89 -220l75 197q137 357 137 427q0 29 -20 41t-129 14v58q152 -7 216 -7t184 7v-58q-58 0 -78 -10
q-21 -10 -41 -38t-75 -154l-150 -362q-99 -250 -119 -329h-94l-276 698l-209 -458q-39 -87 -63 -148l-33 -92h-96l-135 448q-109 364 -129 393q-21 29 -41 37t-95 15v58q110 -7 240 -7zM782 1404h133l252 -345h-85l-237 209l-240 -209h-80z" />
    <glyph glyph-name="Ycircumflex" unicode="&#x176;" horiz-adv-x="1366" 
d="M23 1333v61l241 47q40 -15 55 -27t75 -92q127 -170 350 -618q106 163 217 354l213 363h153v-27q-55 -61 -171 -222t-226 -343q-110 -181 -122 -213q-11 -32 -11 -60v-77q1 -351 15 -373q14 -24 40 -32t144 -10v-64q-164 8 -280 8t-303 -8v64q118 2 144 10t37 26t13 67
t5 312v117q-30 64 -143 253l-66 108q-155 254 -237 331q-26 25 -54 35t-89 10zM611 1888h133l252 -345h-85l-237 209l-240 -209h-80z" />
    <glyph glyph-name="ycircumflex" unicode="&#x177;" horiz-adv-x="1139" 
d="M228 -426q66 0 121 63t149 311q-32 90 -77 202l-159 394q-70 176 -102 242t-52 78t-92 20v56q124 -7 244 -7t228 7v-56q-104 -7 -124 -15t-20 -29q0 -22 28 -108t63 -173l63 -156q57 -140 96 -227l53 118q31 70 117 287t87 243t-15 36t-121 20v60q115 -7 205 -7t178 7
l-10 -60q-51 -2 -79 -22q-29 -20 -85 -134t-209 -451l-231 -540q-56 -131 -97 -187q-83 -114 -223 -114q-59 0 -119 33l51 154h24q39 -33 58 -39q20 -6 50 -6zM493 1389h133l252 -345h-85l-237 209l-240 -209h-80z" />
    <glyph glyph-name="Ydieresis" unicode="&#x178;" horiz-adv-x="1366" 
d="M23 1333v61l241 47q40 -15 55 -27t75 -92q127 -170 350 -618q106 163 217 354l213 363h153v-27q-55 -61 -171 -222t-226 -343q-110 -181 -122 -213q-11 -32 -11 -60v-77q1 -351 15 -373q14 -24 40 -32t144 -10v-64q-164 8 -280 8t-303 -8v64q118 2 144 10t37 26t13 67
t5 312v117q-30 64 -143 253l-66 108q-155 254 -237 331q-26 25 -54 35t-89 10zM946 1765q46 1 77 -31q32 -32 32 -78t-32 -77q-32 -32 -77 -32t-77 32q-32 31 -32 77q-1 46 31 78t78 31zM534 1765q46 1 76 -31q32 -32 32 -78t-32 -77q-32 -32 -77 -32t-77 32q-32 31 -32 77
t32 78t78 31z" />
    <glyph glyph-name="Zacute" unicode="&#x179;" horiz-adv-x="1366" 
d="M168 1258q0 84 -5 163q44 2 318 2l374 -4l228 -4q82 0 217 6v-60q-104 -122 -154 -186l-834 -1073l412 -7q420 0 458 37q18 17 31 90l24 142h63q-7 -80 -10 -152l-6 -202q-101 -10 -250 -10l-515 6l-188 2q-163 0 -295 -8v57l241 299l571 734q120 154 175 238h-339
q-392 -5 -424 -37q-12 -12 -18 -61l-15 -141h-64q5 85 5 169zM826 1879q30 -1 52 -23q23 -22 23 -50q1 -28 -13 -46t-58 -46l-311 -189h-84l287 296q38 40 56 49t48 9z" />
    <glyph glyph-name="zacute" unicode="&#x17a;" 
d="M462 859q-201 0 -233 -16q-13 -6 -25 -59l-20 -116h-56q10 172 10 194t-2 65l8 7q372 -7 538 -7t249 7v-53q-68 -71 -313 -381t-327 -424h70q452 0 485 33q16 12 45 182h62l-17 -137q-2 -20 -12 -143q-58 -11 -146 -11l-434 8l-297 -8l-11 46q104 110 198 224t317 392
q28 35 143 197h-232zM652 1392q30 0 52 -22q23 -22 23 -51q1 -29 -13 -47t-58 -45l-311 -189h-84l287 296q38 40 56 49t48 9z" />
    <glyph glyph-name="Zdotaccent" unicode="&#x17b;" horiz-adv-x="1366" 
d="M168 1258q0 84 -5 163q44 2 318 2l374 -4l228 -4q82 0 217 6v-60q-104 -122 -154 -186l-834 -1073l412 -7q420 0 458 37q18 17 31 90l24 142h63q-7 -80 -10 -152l-6 -202q-101 -10 -250 -10l-515 6l-188 2q-163 0 -295 -8v57l241 299l571 734q120 154 175 238h-339
q-392 -5 -424 -37q-12 -12 -18 -61l-15 -141h-64q5 85 5 169zM668 1743q46 1 78 -31t31 -78q0 -46 -32 -77q-32 -32 -77 -32t-77 32q-32 31 -32 77t32 78q31 32 77 31z" />
    <glyph glyph-name="zdotaccent" unicode="&#x17c;" 
d="M462 859q-201 0 -233 -16q-13 -6 -25 -59l-20 -116h-56q10 172 10 194t-2 65l8 7q372 -7 538 -7t249 7v-53q-68 -71 -313 -381t-327 -424h70q452 0 485 33q16 12 45 182h62l-17 -137q-2 -20 -12 -143q-58 -11 -146 -11l-434 8l-297 -8l-11 46q104 110 198 224t317 392
q28 35 143 197h-232zM494 1256q46 0 78 -32t31 -76q0 -46 -32 -78t-77 -32t-77 32t-32 78t32 76q31 32 77 32z" />
    <glyph glyph-name="Zcaron" unicode="&#x17d;" horiz-adv-x="1366" 
d="M168 1258q0 84 -5 163q44 2 318 2l374 -4l228 -4q82 0 217 6v-60q-104 -122 -154 -186l-834 -1073l412 -7q420 0 458 37q18 17 31 90l24 142h63q-7 -80 -10 -152l-6 -202q-101 -10 -250 -10l-515 6l-188 2q-163 0 -295 -8v57l241 299l571 734q120 154 175 238h-339
q-392 -5 -424 -37q-12 -12 -18 -61l-15 -141h-64q5 85 5 169zM803 1491h-133l-252 345h85l237 -208l240 208h80z" />
    <glyph glyph-name="zcaron" unicode="&#x17e;" 
d="M462 859q-201 0 -233 -16q-13 -6 -25 -59l-20 -116h-56q10 172 10 194t-2 65l8 7q372 -7 538 -7t249 7v-53q-68 -71 -313 -381t-327 -424h70q452 0 485 33q16 12 45 182h62l-17 -137q-2 -20 -12 -143q-58 -11 -146 -11l-434 8l-297 -8l-11 46q104 110 198 224t317 392
q28 35 143 197h-232zM632 1058h-133l-252 345h85l237 -208l240 208h80z" />
    <glyph glyph-name="longs" unicode="&#x17f;" horiz-adv-x="682" 
d="M214 396v323q0 48 -5 55t-36 7h-88l-9 8v25l7 10l90 43q25 12 33 20t9 98q1 91 14.5 140t44.5 94.5t93 109.5t112 108.5t130 44.5q40 0 82 -15l-1 -164l-23 -9q-56 50 -122 50t-102 -24t-49 -70t-13 -158v-711q0 -273 22 -304q7 -11 25 -17t148 -9l8 -8v-42l-8 -9l-278 8
q-108 0 -241 -8l-8 9v42l8 8q97 6 110 9t22 12.5t12.5 29t8 129t4.5 165.5z" />
    <glyph glyph-name="uni04D8" unicode="&#x18f;" horiz-adv-x="1598" 
d="M1151 211.5q127 161.5 140 441.5l-7 11h-958l-15 -11q0 -177 69 -390t417 -213q227 0 354 161.5zM1297 814q0 261 -133.5 404t-398.5 143q-150 0 -267 -80t-232 -264l-43 23l75 240q206 162 464 162q350 0 548.5 -179t198.5 -508q0 -369 -196 -580.5t-531 -211.5
t-468.5 137.5t-176.5 266t-43 358.5l23 17h1171l9 10v62z" />
    <glyph glyph-name="uni04D8" unicode="&#x4d8;" horiz-adv-x="1598" 
d="M1151 211.5q127 161.5 140 441.5l-7 11h-958l-15 -11q0 -177 69 -390t417 -213q227 0 354 161.5zM1297 814q0 261 -133.5 404t-398.5 143q-150 0 -267 -80t-232 -264l-43 23l75 240q206 162 464 162q350 0 548.5 -179t198.5 -508q0 -369 -196 -580.5t-531 -211.5
t-468.5 137.5t-176.5 266t-43 358.5l23 17h1171l9 10v62z" />
    <glyph glyph-name="florin" unicode="&#x192;" 
d="M874 924v-73h-288l-92 -581q-48 -288 -162.5 -477t-251.5 -189q-24 0 -62 10l32 148q35 -18 54 -26t48 -8q123 0 162 290l110 833h-236v71h248q33 277 142.5 394.5t263.5 117.5q68 0 104.5 -11t65.5 -38l-102 -162l-23 4q-13 141 -103 141q-52 0 -94.5 -71t-91.5 -373
h276z" />
    <glyph glyph-name="Ohorn" unicode="&#x1a0;" horiz-adv-x="1638" 
d="M788 1356q-263 0 -397.5 -158t-134.5 -450t156 -493.5t411 -201.5t391.5 168t136.5 468t-150 483.5t-413 183.5zM1562 749q0 -349 -221 -567.5t-557 -218.5t-536 201.5t-200 531.5t211.5 537.5t557.5 207.5q418 0 635 -289q83 36 83 130t-114 124l-4 13l18 56l10 9
q173 -25 173 -192q0 -53 -39.5 -104t-100.5 -79q84 -149 84 -360z" />
    <glyph glyph-name="ohorn" unicode="&#x1a1;" horiz-adv-x="1180" 
d="M572 32q284 0 285 398q0 194 -84 328t-229 134q-287 0 -287 -386q0 -192 85.5 -333t229.5 -141zM1049 486q0 -224 -146 -374.5t-370 -150.5q-134 0 -236.5 64.5t-165.5 176.5t-63 256q0 219 142 360t366 141q153 0 270.5 -75t168.5 -205q71 40 71 122t-102 112l-4 13
l18 53l10 9q68 -12 110 -62t42 -111t-35.5 -112t-91.5 -80q16 -59 16 -137z" />
    <glyph glyph-name="Tonetwo" unicode="&#x1a7;" horiz-adv-x="1075" 
d="M484 1450q168 0 288.5 -58t182 -162t61.5 -204t-30.5 -170t-79.5 -113t-153 -75q-78 -17 -189 -31t-159 -23t-107.5 -53t-59.5 -177q0 -86 39 -161.5t124 -122t170 -46.5t159 23.5t118 53.5t55.5 56.5t16.5 172.5h68q3 -215 19 -311q-161 -78 -359 -78q-262 0 -427 148
t-165 347q0 159 74 222.5t168 91.5q100 19 225 35.5t193 40.5t98.5 70t30.5 131q0 141 -86.5 229.5t-214.5 88.5t-232 -58q-43 -29 -68 -65q-6 -14 -9 -168h-68q-5 169 -29 278q178 88 346 88z" />
    <glyph glyph-name="tonetwo" unicode="&#x1a8;" horiz-adv-x="868" 
d="M146 909q122 61 302 61q84 0 214.5 -61t130.5 -231t-161 -230q-37 -13 -164 -42t-186 -56.5t-59 -118.5q0 -90 65.5 -144t147.5 -54t112.5 4t80 25t71 80t23.5 160h60q3 -188 11 -226q8 -39 8 -46.5t-5 -11.5t-116 -24t-197 -21q-187 0 -298.5 100.5t-111.5 235.5
q0 68 29 116.5t76.5 71.5t173.5 55l166 41q130 39 130 144q0 70 -53.5 122t-128.5 52t-136.5 -23t-86 -63.5t-31.5 -141.5h-57q-3 115 -10 226z" />
    <glyph glyph-name="Uhorn" unicode="&#x1af;" horiz-adv-x="1694" 
d="M323 1405q35 0 288 8l8 -7v-50l-8 -7q-135 -2 -161.5 -21t-27.5 -164l-2 -230v-318q0 -253 45 -388.5t368 -135.5t377 148t54 386v308q0 332 -10 359t-29 37.5t-44 14t-108 4.5l-8 8v47l8 9q148 -8 237 -8q189 0 246 35.5t57 97.5q0 89 -116 120l-4 13l18 55l10 9
q81 -11 127 -63t46 -114t-24.5 -100.5t-71 -63t-126.5 -40.5t-93 -30t-18 -62.5t-5 -631.5q0 -251 -26 -347t-134 -208t-418 -112q-370 0 -448.5 126.5t-89.5 204.5t-11 256l-2 579q-1 156 -15.5 185t-173.5 35l-8 7v50l8 7q250 -8 285 -8z" />
    <glyph glyph-name="uhorn" unicode="&#x1b0;" horiz-adv-x="1312" 
d="M1013 431q0 -18 3 -134l3 -154q2 -72 26 -83t96 -11h28l9 -8v-40l-8 -9l-90 5q-56 3 -108 3t-132 -7l-9 8l9 173q-62 -48 -139 -126t-212 -78t-201.5 44t-84 113.5t-17.5 191.5v274l-3 131q-3 63 -13.5 78.5t-60.5 15.5l-84 1l-9 8v43l8 8q191 23 322 75l19 -13
q-11 -131 -11 -333v-233q0 -99 18.5 -190t177.5 -91q158 0 221 85t66.5 106.5t5.5 88.5l3 112v108q0 156 -7 183t-23.5 34.5t-47.5 7.5l-84 1l-9 8v43l8 8q191 23 322 75l20 -14q-6 -100 -12 -295q100 4 149.5 45t49.5 99q0 92 -96 123l-4 13l18 55l10 9q152 -36 152 -187
q0 -72 -72 -140t-207 -76v-154z" />
    <glyph glyph-name="uni01B7" unicode="&#x1b7;" horiz-adv-x="1175" 
d="M743 819q129 0 218.5 -82.5t89.5 -204.5t-77 -257t-216.5 -223.5t-315.5 -88.5q-63 0 -146 22t-102 39q-25 149 -65 292l4 13l37 16l14 -7q56 -157 133 -218.5t217 -61.5t223 99.5t83 259.5q0 286 -270 286q-30 0 -87 -8l-17 47l200 239q53 63 190 238l-5 10h-420
q-73 0 -95 -11.5t-38.5 -43t-46.5 -116.5l-10 -10h-45l-8 11l104 366q216 -20 356 -20t401 11l11 -38q-196 -253 -467 -581q62 22 150 22z" />
    <glyph glyph-name="clickdental" unicode="&#x1c0;" horiz-adv-x="1241" 
d="M563 0v1497h115v-1497h-115z" />
    <glyph glyph-name="clicklateral" unicode="&#x1c1;" horiz-adv-x="2482" 
d="M563 0v1497h115v-1497h-115zM1804 0v1497h115v-1497h-115z" />
    <glyph glyph-name="clickretroflex" unicode="&#x1c3;" horiz-adv-x="569" 
d="M261 229q51 0 85 -35q34 -34 34 -84t-35 -85t-85 -35t-84 35q-35 35 -35 85t35 84q35 35 85 35zM379 1436v-106l-53 -569l-25 -315l-55 -50l-19 10q-8 202 -40 528t-31 422q85 40 156 80h67z" />
    <glyph glyph-name="DZcaron" unicode="&#x1c4;" horiz-adv-x="2951" 
d="M634 90q124 0 220 22t166 62q68 40 132 118t98 200t35 279q-1 157 -67 291t-200 205t-368 71q-123 0 -250 -19q-3 -49 -5 -174l-4 -145v-399l3 -310q1 -71 6 -182q110 -19 234 -19zM204 583v408q0 293 -20 333q-6 13 -30 23t-128 11v63q146 -6 258 -6l465 8
q245 -1 394 -63t253 -209t104 -359q0 -302 -182 -518q-154 -180 -382 -244q-106 -30 -289 -30l-343 8q-61 0 -214 -8v48q58 33 97 60q17 193 17 475zM1753 1258q0 84 -5 163q44 2 318 2l374 -4l228 -4q82 0 217 6v-60q-104 -122 -154 -186l-834 -1073l412 -7q421 0 459 37
q18 17 30 90l24 142h63q-7 -80 -10 -152l-6 -202q-101 -10 -250 -10l-515 6l-188 2q-163 0 -295 -8v57l241 299l571 734q120 154 175 238h-339q-393 -5 -425 -37q-12 -12 -17 -61l-15 -141h-64q5 85 5 169zM2317 1525h-133l-252 345h85l237 -208l240 208h80z" />
    <glyph glyph-name="Dzcaron" unicode="&#x1c5;" horiz-adv-x="2609" 
d="M634 90q124 0 220 22t166 62q68 40 132 118t98 200t35 279q-1 157 -67 291t-200 205t-368 71q-123 0 -250 -19q-3 -49 -5 -174l-4 -145v-399l3 -310q1 -71 6 -182q110 -19 234 -19zM204 583v408q0 293 -20 333q-6 13 -30 23t-128 11v63q146 -6 258 -6l465 8
q245 -1 394 -63t253 -209t104 -359q0 -302 -182 -518q-154 -180 -382 -244q-106 -30 -289 -30l-343 8q-61 0 -214 -8v48q58 33 97 60q17 193 17 475zM2047 859q-201 0 -233 -16q-13 -6 -25 -59l-20 -116h-56q10 172 10 194t-2 65l8 7q371 -7 537 -7t250 7v-53
q-68 -71 -313 -381t-327 -424h70q452 0 485 33q16 12 45 182h62l-18 -137q-2 -20 -11 -143q-58 -11 -146 -11l-434 8l-297 -8l-11 46q103 110 197 224t318 392q28 35 143 197h-232zM2143 1039h-133l-252 345h85l237 -208l240 208h80z" />
    <glyph glyph-name="dzcaron" unicode="&#x1c6;" horiz-adv-x="2275" 
d="M555 873q-82 0 -151 -42q-142 -86 -142 -331q0 -183 91 -286t221 -103t211 110q39 54 49 109t10 228v171q-131 144 -289 144zM1016 361q0 -240 12 -260t34 -29q21 -9 125 -18v-54q-123 7 -169 7t-179 -7q3 69 5 186q-102 -74 -213 -182q-80 -20 -141 -20q-113 0 -208 56
q-94 56 -146 162t-52 224q0 116 32 206t68 128q38 38 134 95t156 83t129 25q129 0 241 -63v263q0 139 -8 159t-24 28q-16 7 -133 8v57q189 20 337 69l13 -9q-4 -85 -9 -328l-4 -160v-626zM1713 859q-201 0 -233 -16q-13 -6 -25 -59l-20 -116h-56q10 172 10 194t-2 65l8 7
q371 -7 537 -7t250 7v-53q-68 -71 -313 -381t-327 -424h70q452 0 485 33q16 12 45 182h62l-18 -137q-2 -20 -11 -143q-58 -11 -146 -11l-434 8l-297 -8l-11 46q103 110 197 224t318 392q28 35 143 197h-232zM1809 1039h-133l-252 345h85l237 -208l240 208h80z" />
    <glyph glyph-name="LJ" unicode="&#x1c7;" horiz-adv-x="1933" 
d="M236 404v538q0 352 -14 374t-40 30t-145 11v64q244 -8 305 -8t284 8v-64q-118 -3 -144 -11t-37 -26t-13 -66t-5 -312v-672q0 -105 4 -171q114 -7 226 -7q282 0 395 36q13 30 23 69l40 166h67q-22 -149 -43 -350q-67 -13 -225 -13l-592 8q-96 0 -195 -8v52q61 29 75 42
t24 45q10 33 10 265zM1492 73v869q0 352 -14 374t-41 30q-26 8 -144 11v64q158 -6 300 -6t293 6v-64q-118 -3 -144 -11t-37 -26t-13 -66t-5 -312v-718q0 -164 -28 -259q-29 -95 -95 -181t-144 -129q-78 -44 -151 -44q-20 0 -42 5l3 69v14q0 23 -3 71l19 13q52 -38 107 -38
q55 -1 84 21t42 68t13 239z" />
    <glyph glyph-name="Lj" unicode="&#x1c8;" horiz-adv-x="1730" 
d="M236 404v538q0 352 -14 374t-40 30t-145 11v64q244 -8 305 -8t284 8v-64q-118 -3 -144 -11t-37 -26t-13 -66t-5 -312v-672q0 -105 4 -171q114 -7 226 -7q282 0 395 36q13 30 23 69l40 166h67q-22 -149 -43 -350q-67 -13 -225 -13l-592 8q-96 0 -195 -8v52q61 29 75 42
t24 45q10 33 10 265zM1585 967q16 0 16 -20q0 -8 -5 -54t-8 -263q-4 -217 -4 -242l3 -275q-1 -265 -35 -371t-87 -174q-106 -134 -246 -134q-8 0 -22 1l-12 71q33 -3 55 -3t51 15q71 37 96 136q26 100 26 365v561q0 183 -8 205t-20 30q-13 8 -59 8t-78 1v57q215 24 312 77
q16 9 25 9zM1493 1408q47 0 80 -33t33 -79t-33 -80q-33 -33 -79 -33t-80 33q-34 34 -34 80t33 79t80 33z" />
    <glyph glyph-name="lj" unicode="&#x1c9;" horiz-adv-x="1075" 
d="M379 1490q15 0 15 -17q0 -7 -2 -20l-1 -33q-5 -179 -6 -305l-2 -156v-519q5 -260 6 -296q2 -73 48 -84q7 -1 111 -3v-57q-136 8 -236 8t-261 -8v57l94 1q38 2 50 23q11 21 13 53t8 306v415q0 445 -17 479q-5 10 -18 16t-136 5v59q226 28 314 70q13 6 20 6zM930 967
q16 0 16 -20q0 -8 -5 -54t-8 -263q-4 -217 -4 -242l3 -275q0 -265 -34 -371t-88 -174q-106 -134 -246 -134q-8 0 -22 1l-12 71q34 -3 56 -3t50 15q71 37 96 136q26 100 26 365v561q0 183 -8 205t-20 30t-58 8t-79 1v57q215 24 312 77q16 9 25 9zM838 1408q47 0 80 -33
t33 -79t-33 -80q-34 -33 -80 -33t-80 33q-34 34 -33 80q0 46 33 79t80 33z" />
    <glyph glyph-name="NJ" unicode="&#x1ca;" horiz-adv-x="2384" 
d="M235 431v815q0 33 -6 47q-6 15 -29 35q-22 20 -46 24t-105 6v63q167 -4 225 -4t130 4q85 -111 125 -164l207 -255l302 -364q255 -306 327 -378v731q0 289 -20 333q-7 13 -31 23t-127 11v63q117 -4 235 -4t211 4v-63q-103 -1 -127 -11q-24 -11 -32 -27q-18 -37 -18 -329
v-481q0 -146 5 -545l-103 30l-24 5q-25 8 -171 188l-129 163l-709 847v-767q0 -291 20 -333q7 -14 31 -24t127 -11v-63q-88 7 -199 7t-247 -7v63q105 1 129 11t31 28q18 38 18 329zM1943 73v869q-1 352 -15 374t-40 30t-144 11v64q158 -6 300 -6t293 6v-64q-118 -3 -144 -11
t-37 -26q-10 -18 -12 -66t-6 -312v-718q0 -164 -28 -259t-94 -181t-145 -129q-78 -44 -151 -44q-20 0 -42 5l3 69v14q0 23 -3 71l19 13q52 -38 107 -38q55 -1 84 21t42 68t13 239z" />
    <glyph glyph-name="Nj" unicode="&#x1cb;" horiz-adv-x="2181" 
d="M235 431v815q0 33 -6 47q-6 15 -29 35q-22 20 -46 24t-105 6v63q167 -4 225 -4t130 4q85 -111 125 -164l207 -255l302 -364q255 -306 327 -378v731q0 289 -20 333q-7 13 -31 23t-127 11v63q117 -4 235 -4t211 4v-63q-103 -1 -127 -11q-24 -11 -32 -27q-18 -37 -18 -329
v-481q0 -146 5 -545l-103 30l-24 5q-25 8 -171 188l-129 163l-709 847v-767q0 -291 20 -333q7 -14 31 -24t127 -11v-63q-88 7 -199 7t-247 -7v63q105 1 129 11t31 28q18 38 18 329zM2036 967q16 0 16 -20q0 -8 -5 -54t-8 -263q-4 -217 -4 -242l3 -275q0 -265 -34 -371
t-88 -174q-106 -134 -246 -134q-8 0 -22 1l-12 71q34 -3 56 -3t50 15q71 37 96 136q26 100 26 365v561q0 183 -8 205t-20 30t-58 8t-79 1v57q215 24 312 77q16 9 25 9zM1944 1408q47 0 80 -33t33 -79t-33 -80q-34 -33 -80 -33t-80 33q-34 34 -33 80q0 46 33 79t80 33z" />
    <glyph glyph-name="nj" unicode="&#x1cc;" horiz-adv-x="1671" 
d="M350 962q15 0 15 -20q0 -8 -2 -30t-5 -138l186 159q82 30 159 30t149 -33t110 -83q36 -51 46 -111t9 -266v-177q1 -195 23 -219q10 -12 32 -14l107 -3v-57q-99 7 -159 7t-190 -7q14 247 14 312v168q0 157 -14 215t-75 99q-60 41 -140 41q-80 1 -142 -35q-63 -36 -89 -82
t-26 -157v-121q6 -260 7 -296t10 -56q9 -21 27 -25q17 -4 121 -6v-57q-121 7 -213 7t-282 -7v57l95 1q37 2 49 23t14 53t7 306v119q1 221 -9 237t-26 22t-130 4v57q202 28 295 73q20 10 27 10zM1526 967q16 0 16 -20q0 -8 -5 -54t-8 -263q-4 -217 -4 -242l3 -275
q0 -265 -34 -371t-88 -174q-106 -134 -246 -134q-8 0 -22 1l-12 71q34 -3 56 -3t50 15q71 37 96 136q26 100 26 365v561q0 183 -8 205t-20 30t-58 8t-79 1v57q215 24 312 77q16 9 25 9zM1434 1408q47 0 80 -33t33 -79t-33 -80q-34 -33 -80 -33t-80 33q-34 34 -33 80
q0 46 33 79t80 33z" />
    <glyph glyph-name="Acaron" unicode="&#x1cd;" horiz-adv-x="1593" 
d="M500 561h505l-250 603zM1182 117q0 18 -14 53l-123 306h-579l-109 -257q-29 -69 -29 -101t40 -40q40 -9 132 -10v-68q-170 9 -260 9t-205 -9v68q79 0 99 6t36 22t40 66q24 51 137 295l250 564q41 93 175 414h65l427 -1003q104 -244 130 -292t50 -60q22 -11 101 -12v-68
q-156 10 -218 10l-322 -10v68q112 2 136 7q25 5 33 15t8 27zM854 1537h-133l-252 345h85l237 -208l240 208h80z" />
    <glyph glyph-name="acaron" unicode="&#x1ce;" 
d="M413 104q133 0 263 154v270q-276 -47 -352 -105q-22 -17 -44 -59t-22 -110t41 -108q41 -42 114 -42zM165 763q0 41 -1 66q126 83 198 108t168 25t173 -43q78 -43 110 -111t32 -165l-4 -183v-298q0 -76 27 -91q10 -6 42 -8l65 -6v-57q-82 7 -143 7t-161 -7l5 176
q-204 -154 -242 -174t-96 -19q-120 1 -188 65t-68 171q0 69 24 126q42 102 123 140q59 27 189 58t258 46q1 95 -23 148t-81 87q-58 34 -128 34t-114 -16t-55 -27l-18 -36q-27 -60 -40 -94l-53 14q1 23 1 64zM592 1067h-133l-252 345h85l237 -208l240 208h80z" />
    <glyph glyph-name="Icaron" unicode="&#x1cf;" horiz-adv-x="690" 
d="M246 942q0 352 -14 374t-40 30t-145 11v64q191 -7 293 -7t296 7v-64q-118 -3 -144 -11t-37 -26t-13 -66t-5 -312v-463q1 -351 15 -373q14 -24 40 -32t144 -10v-64q-213 8 -280 8l-309 -8v64q118 2 144 10t37 26t13 67t5 312v463zM405 1523h-133l-252 345h85l237 -208
l240 208h80z" />
    <glyph glyph-name="icaron" unicode="&#x1d0;" horiz-adv-x="588" 
d="M41 823v57q194 22 326 84l22 -16q-8 -213 -8 -326v-182q5 -260 6 -296q2 -73 48 -84q6 -1 111 -3v-57q-152 7 -238 7t-267 -7v57l95 1q37 2 49 23q11 21 13 53t8 306v176q0 148 -8 170t-24 30t-133 7zM360 1069h-133l-252 345h85l237 -208l240 208h80z" />
    <glyph glyph-name="Ocaron" unicode="&#x1d1;" horiz-adv-x="1610" 
d="M834 62q161 0 280 78q236 156 236 550q0 509 -368 641q-96 34 -230 34t-254 -71q-120 -72 -180 -206t-61 -318t57 -326t136 -224q150 -158 384 -158zM49 710q0 325 214 532q214 208 558 208q165 0 300 -46q337 -116 419 -451q22 -92 22 -197q0 -337 -226 -561t-572 -224
q-157 0 -293 51q-136 52 -230 152t-143 244t-49 292zM869 1552h-133l-252 345h85l237 -208l240 208h80z" />
    <glyph glyph-name="ocaron" unicode="&#x1d2;" horiz-adv-x="1118" 
d="M257 534q0 -123 41 -250q40 -128 118 -186t182 -58t181 92q78 92 78 267q-1 175 -47 291q-85 210 -277 210q-123 0 -199 -89t-77 -277zM68 460q0 224 142 366t360 141q216 0 348 -132t132 -341q0 -146 -68 -267t-192 -189t-256 -69q-311 0 -420 258q-46 109 -46 233z
M623 1072h-133l-252 345h85l237 -208l240 208h80z" />
    <glyph glyph-name="Ucaron" unicode="&#x1d3;" horiz-adv-x="1593" 
d="M334 1413q141 0 281 8v-64q-118 -3 -144 -11t-37 -26t-13 -66t-5 -312v-370q0 -216 28 -284q76 -189 385 -188q112 0 199 28q148 47 192 147q44 101 44 359v308q0 352 -14 374t-41 30q-26 8 -144 11v64q165 -8 237 -8t253 8v-64q-119 -3 -145 -11t-36 -26
q-11 -18 -13 -66t-5 -312v-335q0 -247 -34 -345t-116 -164q-157 -127 -429 -127q-154 1 -267 37t-172 96t-84 131q-25 72 -25 265v442q-1 352 -15 374t-40 30t-144 11v64q163 -8 304 -8zM856 1523h-133l-252 345h85l237 -208l240 208h80z" />
    <glyph glyph-name="ucaron" unicode="&#x1d4;" horiz-adv-x="1235" 
d="M1016 964q16 0 16 -20q0 -8 -7 -85t-7 -282v-137l2 -139q3 -121 4 -157q2 -73 48 -84q6 -1 111 -3v-57q-131 7 -201 7t-147 -7q6 81 9 182q-60 -48 -111 -99t-81 -67q-69 -38 -177 -38q-289 0 -289 301l5 127v171q0 183 -8 205t-20 30q-13 8 -59 8t-78 1v57
q215 24 312 77q16 9 25 9q16 0 16 -20q-1 -8 -3 -30t-6 -151t-5 -186v-195q1 -122 17 -172t64 -78q48 -30 106 -30q155 0 249 126q23 29 33 52t10 213v84q0 183 -8 205t-20 30t-58 8t-79 1v57q215 24 312 77q16 9 25 9zM668 1069h-133l-252 345h85l237 -208l240 208h80z" />
    <glyph glyph-name="Udieresismacron" unicode="&#x1d5;" horiz-adv-x="1593" 
d="M334 1413q141 0 281 8v-64q-118 -3 -144 -11t-37 -26t-13 -66t-5 -312v-370q0 -216 28 -284q76 -189 385 -188q112 0 199 28q148 47 192 147q44 101 44 359v308q0 352 -14 374t-41 30q-26 8 -144 11v64q165 -8 237 -8t253 8v-64q-119 -3 -145 -11t-36 -26
q-11 -18 -13 -66t-5 -312v-335q0 -247 -34 -345t-116 -164q-157 -127 -429 -127q-154 1 -267 37t-172 96t-84 131q-25 72 -25 265v442q-1 352 -15 374t-40 30t-144 11v64q163 -8 304 -8zM998 1741q46 1 78 -31t32 -78t-32 -77q-32 -32 -77 -32t-77 32q-32 31 -32 77t32 78
q30 32 76 31zM586 1741q46 1 78 -31t31 -78q0 -46 -32 -77q-32 -32 -77 -32t-77 32q-32 31 -32 77t32 78q31 32 77 31zM468 1961h649v-118h-649v118z" />
    <glyph glyph-name="udieresismacron" unicode="&#x1d6;" horiz-adv-x="1235" 
d="M1016 964q16 0 16 -20q0 -8 -7 -85t-7 -282v-137l2 -139q3 -121 4 -157q2 -73 48 -84q6 -1 111 -3v-57q-131 7 -201 7t-147 -7q6 81 9 182q-60 -48 -111 -99t-81 -67q-69 -38 -177 -38q-289 0 -289 301l5 127v171q0 183 -8 205t-20 30q-13 8 -59 8t-78 1v57
q215 24 312 77q16 9 25 9q16 0 16 -20q-1 -8 -3 -30t-6 -151t-5 -186v-195q1 -122 17 -172t64 -78q48 -30 106 -30q155 0 249 126q23 29 33 52t10 213v84q0 183 -8 205t-20 30t-58 8t-79 1v57q215 24 312 77q16 9 25 9zM810 1287q46 1 78 -31t32 -78t-32 -77
q-32 -32 -77 -32t-77 32q-32 31 -32 77t32 78q30 32 76 31zM398 1287q46 1 78 -31t31 -78q0 -46 -32 -77q-32 -32 -77 -32t-77 32q-32 31 -32 77t32 78q31 32 77 31zM280 1504h649v-118h-649v118z" />
    <glyph glyph-name="Udieresisacute" unicode="&#x1d7;" horiz-adv-x="1593" 
d="M334 1413q141 0 281 8v-64q-118 -3 -144 -11t-37 -26t-13 -66t-5 -312v-370q0 -216 28 -284q76 -189 385 -188q112 0 199 28q148 47 192 147q44 101 44 359v308q0 352 -14 374t-41 30q-26 8 -144 11v64q165 -8 237 -8t253 8v-64q-119 -3 -145 -11t-36 -26
q-11 -18 -13 -66t-5 -312v-335q0 -247 -34 -345t-116 -164q-157 -127 -429 -127q-154 1 -267 37t-172 96t-84 131q-25 72 -25 265v442q-1 352 -15 374t-40 30t-144 11v64q163 -8 304 -8zM998 1741q46 1 78 -31t32 -78t-32 -77q-32 -32 -77 -32t-77 32q-32 31 -32 77t32 78
q30 32 76 31zM586 1741q46 1 78 -31t31 -78q0 -46 -32 -77q-32 -32 -77 -32t-77 32q-32 31 -32 77t32 78q31 32 77 31zM950 2197q30 -1 52 -23q23 -22 23 -50q1 -28 -13 -46t-58 -46l-311 -189h-84l287 296q38 40 56 49t48 9z" />
    <glyph glyph-name="udieresisacute" unicode="&#x1d8;" horiz-adv-x="1235" 
d="M1016 964q16 0 16 -20q0 -8 -7 -85t-7 -282v-137l2 -139q3 -121 4 -157q2 -73 48 -84q6 -1 111 -3v-57q-131 7 -201 7t-147 -7q6 81 9 182q-60 -48 -111 -99t-81 -67q-69 -38 -177 -38q-289 0 -289 301l5 127v171q0 183 -8 205t-20 30q-13 8 -59 8t-78 1v57
q215 24 312 77q16 9 25 9q16 0 16 -20q-1 -8 -3 -30t-6 -151t-5 -186v-195q1 -122 17 -172t64 -78q48 -30 106 -30q155 0 249 126q23 29 33 52t10 213v84q0 183 -8 205t-20 30t-58 8t-79 1v57q215 24 312 77q16 9 25 9zM810 1287q46 1 78 -31t32 -78t-32 -77
q-32 -32 -77 -32t-77 32q-32 31 -32 77t32 78q30 32 76 31zM398 1287q46 1 78 -31t31 -78q0 -46 -32 -77q-32 -32 -77 -32t-77 32q-32 31 -32 77t32 78q31 32 77 31zM762 1740q30 0 52 -22q23 -22 23 -51q1 -29 -13 -47t-58 -45l-311 -189h-84l287 296q38 40 56 49t48 9z
" />
    <glyph glyph-name="Udieresiscaron" unicode="&#x1d9;" horiz-adv-x="1593" 
d="M334 1413q141 0 281 8v-64q-118 -3 -144 -11t-37 -26t-13 -66t-5 -312v-370q0 -216 28 -284q76 -189 385 -188q112 0 199 28q148 47 192 147q44 101 44 359v308q0 352 -14 374t-41 30q-26 8 -144 11v64q165 -8 237 -8t253 8v-64q-119 -3 -145 -11t-36 -26
q-11 -18 -13 -66t-5 -312v-335q0 -247 -34 -345t-116 -164q-157 -127 -429 -127q-154 1 -267 37t-172 96t-84 131q-25 72 -25 265v442q-1 352 -15 374t-40 30t-144 11v64q163 -8 304 -8zM998 1741q46 1 78 -31t32 -78t-32 -77q-32 -32 -77 -32t-77 32q-32 31 -32 77t32 78
q30 32 76 31zM586 1741q46 1 78 -31t31 -78q0 -46 -32 -77q-32 -32 -77 -32t-77 32q-32 31 -32 77t32 78q31 32 77 31zM856 1843h-133l-252 345h85l237 -208l240 208h80z" />
    <glyph glyph-name="udieresiscaron" unicode="&#x1da;" horiz-adv-x="1235" 
d="M1016 964q16 0 16 -20q0 -8 -7 -85t-7 -282v-137l2 -139q3 -121 4 -157q2 -73 48 -84q6 -1 111 -3v-57q-131 7 -201 7t-147 -7q6 81 9 182q-60 -48 -111 -99t-81 -67q-69 -38 -177 -38q-289 0 -289 301l5 127v171q0 183 -8 205t-20 30q-13 8 -59 8t-78 1v57
q215 24 312 77q16 9 25 9q16 0 16 -20q-1 -8 -3 -30t-6 -151t-5 -186v-195q1 -122 17 -172t64 -78q48 -30 106 -30q155 0 249 126q23 29 33 52t10 213v84q0 183 -8 205t-20 30t-58 8t-79 1v57q215 24 312 77q16 9 25 9zM810 1287q46 1 78 -31t32 -78t-32 -77
q-32 -32 -77 -32t-77 32q-32 31 -32 77t32 78q30 32 76 31zM398 1287q46 1 78 -31t31 -78q0 -46 -32 -77q-32 -32 -77 -32t-77 32q-32 31 -32 77t32 78q31 32 77 31zM668 1386h-133l-252 345h85l237 -208l240 208h80z" />
    <glyph glyph-name="Udieresisgrave" unicode="&#x1db;" horiz-adv-x="1593" 
d="M334 1413q141 0 281 8v-64q-118 -3 -144 -11t-37 -26t-13 -66t-5 -312v-370q0 -216 28 -284q76 -189 385 -188q112 0 199 28q148 47 192 147q44 101 44 359v308q0 352 -14 374t-41 30q-26 8 -144 11v64q165 -8 237 -8t253 8v-64q-119 -3 -145 -11t-36 -26
q-11 -18 -13 -66t-5 -312v-335q0 -247 -34 -345t-116 -164q-157 -127 -429 -127q-154 1 -267 37t-172 96t-84 131q-25 72 -25 265v442q-1 352 -15 374t-40 30t-144 11v64q163 -8 304 -8zM998 1741q46 1 78 -31t32 -78t-32 -77q-32 -32 -77 -32t-77 32q-32 31 -32 77t32 78
q30 32 76 31zM586 1741q46 1 78 -31t31 -78q0 -46 -32 -77q-32 -32 -77 -32t-77 32q-32 31 -32 77t32 78q31 32 77 31zM559 2124q-1 28 23 50t55 23t49 -11t52 -47l287 -296h-84l-310 189q-45 28 -59 46t-13 46z" />
    <glyph glyph-name="udieresisgrave" unicode="&#x1dc;" horiz-adv-x="1235" 
d="M1016 964q16 0 16 -20q0 -8 -7 -85t-7 -282v-137l2 -139q3 -121 4 -157q2 -73 48 -84q6 -1 111 -3v-57q-131 7 -201 7t-147 -7q6 81 9 182q-60 -48 -111 -99t-81 -67q-69 -38 -177 -38q-289 0 -289 301l5 127v171q0 183 -8 205t-20 30q-13 8 -59 8t-78 1v57
q215 24 312 77q16 9 25 9q16 0 16 -20q-1 -8 -3 -30t-6 -151t-5 -186v-195q1 -122 17 -172t64 -78q48 -30 106 -30q155 0 249 126q23 29 33 52t10 213v84q0 183 -8 205t-20 30t-58 8t-79 1v57q215 24 312 77q16 9 25 9zM810 1287q46 1 78 -31t32 -78t-32 -77
q-32 -32 -77 -32t-77 32q-32 31 -32 77t32 78q30 32 76 31zM398 1287q46 1 78 -31t31 -78q0 -46 -32 -77q-32 -32 -77 -32t-77 32q-32 31 -32 77t32 78q31 32 77 31zM371 1667q-1 29 23 51t55 22t49 -12t52 -46l287 -296h-84l-310 189q-45 28 -59 46t-13 46z" />
    <glyph glyph-name="eturned" unicode="&#x1dd;" horiz-adv-x="981" 
d="M448 391q-171 0 -213 -5q-1 -24 -1 -37q0 -158 64 -232t174 -74t179 81t70 256q-102 11 -273 11zM354 863q-103 0 -258 -91l-16 17l32 72q68 43 108 61q105 46 233 46q127 0 234 -55t166.5 -164.5t59.5 -240.5t-31.5 -223.5t-65.5 -130.5t-137.5 -108t-232.5 -70
q-130 0 -262.5 74.5t-132.5 314.5q0 28 4 68q134 26 345 26h321q-4 273 -134 338.5t-233 65.5z" />
    <glyph glyph-name="Adieresismacron" unicode="&#x1de;" horiz-adv-x="1593" 
d="M500 561h505l-250 603zM1182 117q0 18 -14 53l-123 306h-579l-109 -257q-29 -69 -29 -101t40 -40q40 -9 132 -10v-68q-170 9 -260 9t-205 -9v68q79 0 99 6t36 22t40 66q24 51 137 295l250 564q41 93 175 414h65l427 -1003q104 -244 130 -292t50 -60q22 -11 101 -12v-68
q-156 10 -218 10l-322 -10v68q112 2 136 7q25 5 33 15t8 27zM996 1755q46 1 78 -31t32 -78t-32 -77q-32 -32 -77 -32t-77 32q-32 31 -32 77t32 78q30 32 76 31zM584 1755q46 1 78 -31t31 -78q0 -46 -32 -77q-32 -32 -77 -32t-77 32q-32 31 -32 77t32 78q31 32 77 31z
M466 1975h649v-118h-649v118z" />
    <glyph glyph-name="adieresismacron" unicode="&#x1df;" 
d="M413 104q133 0 263 154v270q-276 -47 -352 -105q-22 -17 -44 -59t-22 -110t41 -108q41 -42 114 -42zM165 763q0 41 -1 66q126 83 198 108t168 25t173 -43q78 -43 110 -111t32 -165l-4 -183v-298q0 -76 27 -91q10 -6 42 -8l65 -6v-57q-82 7 -143 7t-161 -7l5 176
q-204 -154 -242 -174t-96 -19q-120 1 -188 65t-68 171q0 69 24 126q42 102 123 140q59 27 189 58t258 46q1 95 -23 148t-81 87q-58 34 -128 34t-114 -16t-55 -27l-18 -36q-27 -60 -40 -94l-53 14q1 23 1 64zM734 1285q46 1 78 -31t32 -78t-32 -77q-32 -32 -77 -32t-77 32
q-32 31 -32 77t32 78q30 32 76 31zM322 1285q46 1 78 -31t31 -78q0 -46 -32 -77q-32 -32 -77 -32t-77 32q-32 31 -32 77t32 78q31 32 77 31zM204 1502h649v-118h-649v118z" />
    <glyph glyph-name="Adotmacron" unicode="&#x1e0;" horiz-adv-x="1593" 
d="M500 561h505l-250 603zM1182 117q0 18 -14 53l-123 306h-579l-109 -257q-29 -69 -29 -101t40 -40q40 -9 132 -10v-68q-170 9 -260 9t-205 -9v68q79 0 99 6t36 22t40 66q24 51 137 295l250 564q41 93 175 414h65l427 -1003q104 -244 130 -292t50 -60q22 -11 101 -12v-68
q-156 10 -218 10l-322 -10v68q112 2 136 7q25 5 33 15t8 27zM790 1755q46 1 78 -31t31 -78q0 -46 -32 -77q-32 -32 -77 -32t-77 32q-32 31 -32 77t32 78q31 32 77 31zM466 1975h649v-118h-649v118z" />
    <glyph glyph-name="adotmacron" unicode="&#x1e1;" 
d="M413 104q133 0 263 154v270q-276 -47 -352 -105q-22 -17 -44 -59t-22 -110t41 -108q41 -42 114 -42zM165 763q0 41 -1 66q126 83 198 108t168 25t173 -43q78 -43 110 -111t32 -165l-4 -183v-298q0 -76 27 -91q10 -6 42 -8l65 -6v-57q-82 7 -143 7t-161 -7l5 176
q-204 -154 -242 -174t-96 -19q-120 1 -188 65t-68 171q0 69 24 126q42 102 123 140q59 27 189 58t258 46q1 95 -23 148t-81 87q-58 34 -128 34t-114 -16t-55 -27l-18 -36q-27 -60 -40 -94l-53 14q1 23 1 64zM528 1285q46 1 78 -31t31 -78q0 -46 -32 -77q-32 -32 -77 -32
t-77 32q-32 31 -32 77t32 78q31 32 77 31zM204 1502h649v-118h-649v118z" />
    <glyph glyph-name="AEmacron" unicode="&#x1e2;" horiz-adv-x="1933" 
d="M516 588h448l4 453q0 112 -4 301h-25q-84 -127 -423 -754zM1411 1335q-137 0 -255 -9q-11 -136 -11 -242v-306q89 -6 225 -6t170 9q36 9 42 23t12 71t11 77h64q-7 -125 -7 -212t7 -249h-65l-10 119q-5 46 -24 56q-41 23 -226 23q-17 0 -199 -6v-358q0 -128 4 -219
q201 -13 344 -13t237 37q19 57 51 216h66q-21 -179 -28 -333q-110 -13 -284 -13l-482 8q-63 0 -201 -8v46q59 26 94 52q7 34 8 61l7 167q3 51 3 99v77q-117 6 -261 6t-235 -6q-36 -60 -112 -201t-75 -169q-1 -28 27 -44t152 -19v-69q-139 7 -231 7t-229 -7v69q59 -1 81 7
q43 15 109 135l536 948q78 136 78 159t-20 29t-180 15v59q49 -1 222 -2l279 -4l455 9q119 0 229 -12q-26 -124 -38 -307h-63q-3 118 -12 188q-128 42 -265 42zM899 1644h649v-118h-649v118z" />
    <glyph glyph-name="aemacron" unicode="&#x1e3;" horiz-adv-x="1552" 
d="M374 106q62 0 108 16t90 54q44 36 71 75v237q-198 -6 -373 -90q-47 -65 -47 -133q1 -67 45 -113t106 -46zM1044 553q179 0 253 6q4 236 -109 308q-55 35 -140 35t-152 -59q-91 -80 -94 -284q63 -6 242 -6zM1410 79q-162 -102 -345 -102q-183 -1 -291 103q-46 44 -91 116
q-128 -92 -249 -196q-65 -22 -127 -22q-135 0 -199 77t-63 151q0 144 83 225q12 13 74 38q175 71 441 85q-2 302 -236 302q-85 0 -177 -43q-17 -30 -53 -124l-53 12v126l131 75q82 44 106 54t119 11q96 1 159 -31t127 -109q68 57 106 81q95 61 228 61q173 1 275 -101
t102 -276q0 -36 -5 -75q-49 -17 -139 -25t-384 -9h-147q18 -402 369 -402q124 0 260 91l18 -20zM437 1192h649v-118h-649v118z" />
    <glyph glyph-name="Gcaron" unicode="&#x1e6;" horiz-adv-x="1563" 
d="M891 1383q-190 0 -329 -81q-138 -81 -210 -232t-72 -339q0 -187 84 -345t224 -242t328 -83q188 0 309 64q9 40 9 128v111q0 88 -9 103t-49 23t-181 11v61l312 -7q91 0 186 7l6 -48l-75 -44q-12 -107 -12 -197t12 -195q-296 -107 -550 -107q-254 1 -434 91t-278 253
t-98 371t70 346q70 136 176 224t211 130q161 64 371 63t537 -92q-26 -88 -44 -301h-61l-5 114q-2 56 -15 83q-27 36 -86 65q-102 39 -168 52t-159 13zM845 1552h-133l-252 345h85l237 -208l240 208h80z" />
    <glyph glyph-name="gcaron" unicode="&#x1e7;" horiz-adv-x="1139" 
d="M226 -251q0 -105 82 -177t206 -73q124 1 212 43t132 116t42 142q-2 69 -18 102q-31 61 -104 83q-24 3 -184 3t-188 -2q-28 -4 -80 -40t-60 -45q-8 -7 -24 -51t-16 -101zM290 660q0 -71 26 -138q53 -135 196 -135q86 -1 152 55t66 180t-66 200q-66 74 -161 74t-154 -62
t-59 -174zM588 969q120 0 231 -88q188 1 289 4l8 -19q-39 -59 -51 -81h-186q23 -59 23 -123t-40 -136t-115 -124q-76 -52 -147 -67t-166 -13q-65 -52 -79 -74t-14 -44q0 -53 59 -67q45 -12 160 -12l216 4q114 1 172 -29q114 -58 114 -227q0 -103 -68 -209t-200 -168
t-284 -62t-249 43t-143 115t-47 134t13 100t46 82q122 56 175 98q-83 27 -107 51t-23 46q0 22 30 110q49 41 154 116q-91 25 -139 59q-102 71 -102 217q0 219 227 313q123 50 243 51zM657 1074h-133l-252 345h85l237 -208l240 208h80z" />
    <glyph glyph-name="Kcaron" unicode="&#x1e8;" horiz-adv-x="1487" 
d="M250 942q0 352 -14 374t-40 30t-145 11v64q195 -6 297 -6t288 6v-64q-118 -3 -144 -11t-37 -26t-13 -66t-5 -312v-206q54 29 128 101l126 122l223 223q129 129 159 166v73q119 -4 189 -4t155 4v-65q-95 0 -128 -8t-81 -42t-180 -156l-399 -365l600 -562
q145 -136 165 -148t77 -13v-62q-98 4 -133 4t-154 -4q-23 23 -167 161l-557 525l-23 -13v-194q1 -351 15 -373q14 -24 40 -32t144 -10v-64l-302 8q-31 0 -283 -8v64q118 2 144 10t37 26t13 67t5 312v463zM825 1523h-133l-252 345h85l237 -208l240 208h80z" />
    <glyph glyph-name="kcaron" unicode="&#x1e9;" horiz-adv-x="1139" 
d="M298 8q-106 0 -259 -8v57l94 1q38 2 50 23q11 21 13 53t8 306v415q0 445 -17 479q-5 10 -18 16t-136 5v59q226 28 314 70q13 6 20 6q15 0 15 -17q0 -7 -2 -20l-1 -33q-5 -179 -6 -305l-2 -156v-402l11 -6q52 33 136 103t318 290q78 -3 98 -3t101 3v-56q-58 -3 -77 -9
q-20 -6 -98 -56t-213 -162l-102 -81q81 -83 280 -278q151 -152 181 -178t59 -31t90 -5v-45q-106 -20 -242 -53q-68 56 -234 226q-166 171 -297 288l-11 -5v-59q5 -260 6 -296q2 -73 48 -84q7 -1 111 -3v-57q-132 8 -238 8zM658 1592h-133l-252 345h85l237 -208l240 208h80z
" />
    <glyph glyph-name="Oogonek" unicode="&#x1ea;" horiz-adv-x="1610" 
d="M834 62q161 0 280 78q236 156 236 550q0 509 -368 641q-96 34 -230 34t-254 -71q-120 -72 -180 -206t-61 -318t57 -326t136 -224q150 -158 384 -158zM623 -188q0 83 101 160q-307 14 -483 202q-94 100 -143 244t-49 292q0 325 214 532q214 208 558 208q165 0 300 -46
q337 -116 419 -451q22 -92 22 -197q0 -337 -221 -555t-542 -229q-52 -53 -65 -78q-12 -24 -12 -54t24 -54t59 -25q65 0 150 74l33 -43q-80 -70 -130 -93t-103 -23q-54 0 -93 40t-39 96z" />
    <glyph glyph-name="oogonek" unicode="&#x1eb;" horiz-adv-x="1118" 
d="M257 534q0 -123 41 -250q40 -128 118 -186t182 -58t181 92q78 92 78 267q-1 175 -47 291q-85 210 -277 210q-123 0 -199 -89t-77 -277zM377 -190q0 83 102 160q-183 11 -297 146q-114 134 -114 351t142 359t360 141q216 0 348 -132t132 -341q0 -146 -68 -267t-184 -185
t-245 -72q-52 -53 -65 -78q-12 -24 -12 -54t24 -54t59 -25q65 0 150 74l33 -43q-80 -70 -130 -93t-103 -23q-54 0 -93 40t-39 96z" />
    <glyph glyph-name="Oogonekmacron" unicode="&#x1ec;" horiz-adv-x="1610" 
d="M834 62q161 0 280 78q236 156 236 550q0 509 -368 641q-96 34 -230 34t-254 -71q-120 -72 -180 -206t-61 -318t57 -326t136 -224q150 -158 384 -158zM623 -188q0 83 101 160q-307 14 -483 202q-94 100 -143 244t-49 292q0 325 214 532q214 208 558 208q165 0 300 -46
q337 -116 419 -451q22 -92 22 -197q0 -337 -221 -555t-542 -229q-52 -53 -65 -78q-12 -24 -12 -54t24 -54t59 -25q65 0 150 74l33 -43q-80 -70 -130 -93t-103 -23q-54 0 -93 40t-39 96zM481 1670h649v-118h-649v118z" />
    <glyph glyph-name="oogonekmacron" unicode="&#x1ed;" horiz-adv-x="1118" 
d="M257 534q0 -123 41 -250q40 -128 118 -186t182 -58t181 92q78 92 78 267q-1 175 -47 291q-85 210 -277 210q-123 0 -199 -89t-77 -277zM377 -190q0 83 102 160q-183 11 -297 146q-114 134 -114 351t142 359t360 141q216 0 348 -132t132 -341q0 -146 -68 -267t-184 -185
t-245 -72q-52 -53 -65 -78q-12 -24 -12 -54t24 -54t59 -25q65 0 150 74l33 -43q-80 -70 -130 -93t-103 -23q-54 0 -93 40t-39 96zM235 1190h649v-118h-649v118z" />
    <glyph glyph-name="jcaron" unicode="&#x1f0;" horiz-adv-x="479" 
d="M334 967q16 0 16 -20q0 -8 -5 -54t-8 -263q-4 -217 -4 -242l3 -275q0 -265 -34 -371t-88 -174q-106 -134 -246 -134q-8 0 -22 1l-12 71q34 -3 56 -3t50 15q71 37 96 136q26 100 26 365v561q0 183 -8 205t-20 30t-58 8t-79 1v57q215 24 312 77q16 9 25 9zM207 1070h-133
l-252 345h85l237 -208l240 208h80z" />
    <glyph glyph-name="DZ" unicode="&#x1f1;" horiz-adv-x="2951" 
d="M634 90q124 0 220 22t166 62q68 40 132 118t98 200t35 279q-1 157 -67 291t-200 205t-368 71q-123 0 -250 -19q-3 -49 -5 -174l-4 -145v-399l3 -310q1 -71 6 -182q110 -19 234 -19zM204 583v408q0 293 -20 333q-6 13 -30 23t-128 11v63q146 -6 258 -6l465 8
q245 -1 394 -63t253 -209t104 -359q0 -302 -182 -518q-154 -180 -382 -244q-106 -30 -289 -30l-343 8q-61 0 -214 -8v48q58 33 97 60q17 193 17 475zM1753 1258q0 84 -5 163q44 2 318 2l374 -4l228 -4q82 0 217 6v-60q-104 -122 -154 -186l-834 -1073l412 -7q421 0 459 37
q18 17 30 90l24 142h63q-7 -80 -10 -152l-6 -202q-101 -10 -250 -10l-515 6l-188 2q-163 0 -295 -8v57l241 299l571 734q120 154 175 238h-339q-393 -5 -425 -37q-12 -12 -17 -61l-15 -141h-64q5 85 5 169z" />
    <glyph glyph-name="Dz" unicode="&#x1f2;" horiz-adv-x="2609" 
d="M634 90q124 0 220 22t166 62q68 40 132 118t98 200t35 279q-1 157 -67 291t-200 205t-368 71q-123 0 -250 -19q-3 -49 -5 -174l-4 -145v-399l3 -310q1 -71 6 -182q110 -19 234 -19zM204 583v408q0 293 -20 333q-6 13 -30 23t-128 11v63q146 -6 258 -6l465 8
q245 -1 394 -63t253 -209t104 -359q0 -302 -182 -518q-154 -180 -382 -244q-106 -30 -289 -30l-343 8q-61 0 -214 -8v48q58 33 97 60q17 193 17 475zM2047 859q-201 0 -233 -16q-13 -6 -25 -59l-20 -116h-56q10 172 10 194t-2 65l8 7q371 -7 537 -7t250 7v-53
q-68 -71 -313 -381t-327 -424h70q452 0 485 33q16 12 45 182h62l-18 -137q-2 -20 -11 -143q-58 -11 -146 -11l-434 8l-297 -8l-11 46q103 110 197 224t318 392q28 35 143 197h-232z" />
    <glyph glyph-name="dz" unicode="&#x1f3;" horiz-adv-x="2275" 
d="M555 873q-82 0 -151 -42q-142 -86 -142 -331q0 -183 91 -286t221 -103t211 110q39 54 49 109t10 228v171q-131 144 -289 144zM1016 361q0 -240 12 -260t34 -29q21 -9 125 -18v-54q-123 7 -169 7t-179 -7q3 69 5 186q-102 -74 -213 -182q-80 -20 -141 -20q-113 0 -208 56
q-94 56 -146 162t-52 224q0 116 32 206t68 128q38 38 134 95t156 83t129 25q129 0 241 -63v263q0 139 -8 159t-24 28q-16 7 -133 8v57q189 20 337 69l13 -9q-4 -85 -9 -328l-4 -160v-626zM1713 859q-201 0 -233 -16q-13 -6 -25 -59l-20 -116h-56q10 172 10 194t-2 65l8 7
q371 -7 537 -7t250 7v-53q-68 -71 -313 -381t-327 -424h70q452 0 485 33q16 12 45 182h62l-18 -137q-2 -20 -11 -143q-58 -11 -146 -11l-434 8l-297 -8l-11 46q103 110 197 224t318 392q28 35 143 197h-232z" />
    <glyph glyph-name="uni01F4" unicode="&#x1f4;" horiz-adv-x="1563" 
d="M1221 1856l-210 -157l-200 -156l-15 -4l-25 24l2 14l144 174q3 3 95 117l187 26l10 -7zM1412 262q0 -82 11 -184l-6 -10q-273 -105 -529 -105t-435 84t-284 249t-105 392q0 346 236.5 550t617.5 204q280 0 503 -95l7 -11q-18 -67 -42 -281l-8 -7h-46l-8 8l-5 106
q-3 52 -9.5 69t-130.5 69.5t-299 52.5t-316 -76t-212.5 -221.5t-71.5 -326.5t77 -339.5t221 -247.5t337 -89t310 63q9 32 9 129v111q0 79 -10 98.5t-49.5 27.5t-170.5 10l-9 9v44l9 9l61 -2q157 -5 235 -5t188 6l10 -8v-30l-4 -12l-49 -29q-18 -11 -21 -17t-7.5 -59.5
t-4.5 -135.5z" />
    <glyph glyph-name="uni01F5" unicode="&#x1f5;" horiz-adv-x="1139" 
d="M820 1467l-294 -374l-13 -4l-29 15l-3 13l153 349l156 29l13 -3zM570 -19q-148 0 -172.5 -4t-69.5 -34t-73.5 -81.5t-28.5 -115.5q0 -113 84 -184t206 -71t211.5 44t132 118t42.5 142t-35.5 116.5t-92 59t-204.5 10.5zM290 652q0 -61 24 -131t77.5 -106t131.5 -36
t142.5 57.5t64.5 171.5t-59 197t-159 83t-161 -59.5t-61 -176.5zM902 664q0 -66 -32.5 -133t-125 -142t-264.5 -75h-46q-59 -47 -76 -70t-17 -57t40.5 -52t167.5 -18l224 3q106 0 162.5 -25t91.5 -89.5t35 -155.5t-71.5 -200.5t-206.5 -166.5t-255 -57t-196.5 19t-134 57.5
t-92.5 100.5t-35 114q0 100 53 180l181 101q-87 27 -109.5 53.5t-22.5 64.5t25 89l161 116q-142 37 -191.5 111t-49.5 158t35 158t105.5 118t158 69.5t159.5 25.5q125 0 238 -81q181 0 289 4l8 -18q-41 -63 -51 -82h-186q28 -54 28 -120z" />
    <glyph glyph-name="Ngrave" unicode="&#x1f8;" horiz-adv-x="1702" 
d="M235 431v815q0 33 -6 47q-6 15 -29 35q-22 20 -46 24t-105 6v63q167 -4 225 -4t130 4q85 -111 125 -164l207 -255l302 -364q255 -306 327 -378v731q0 289 -20 333q-7 13 -31 23t-127 11v63q117 -4 235 -4t211 4v-63q-103 -1 -127 -11q-24 -11 -32 -27q-18 -37 -18 -329
v-481q0 -146 5 -545l-103 30l-24 5q-25 8 -171 188l-129 163l-709 847v-767q0 -291 20 -333q7 -14 31 -24t127 -11v-63q-88 7 -199 7t-247 -7v63q105 1 129 11t31 28q18 38 18 329zM608 1804q0 28 24 50t54 23q31 1 49 -11t52 -47l287 -296h-84l-310 189q-44 28 -58 46
t-14 46z" />
    <glyph glyph-name="ngrave" unicode="&#x1f9;" horiz-adv-x="1192" 
d="M350 962q15 0 15 -20q0 -8 -2 -30t-5 -138l186 159q82 30 159 30t149 -33t110 -83q36 -51 46 -111t9 -266v-177q1 -195 23 -219q10 -12 32 -14l107 -3v-57q-99 7 -159 7t-190 -7q14 247 14 312v168q0 157 -14 215t-75 99q-60 41 -140 41q-80 1 -142 -35q-63 -36 -89 -82
t-26 -157v-121q6 -260 7 -296t10 -56q9 -21 27 -25q17 -4 121 -6v-57q-121 7 -213 7t-282 -7v57l95 1q37 2 49 23t14 53t7 306v119q1 221 -9 237t-26 22t-130 4v57q202 28 295 73q20 10 27 10zM370 1349q0 29 24 51t54 22q31 0 49 -12t52 -46l287 -296h-84l-310 189
q-44 28 -58 46t-14 46z" />
    <glyph glyph-name="Aringacute" unicode="&#x1fa;" horiz-adv-x="1593" 
d="M500 561h505l-250 603zM1182 117q0 18 -14 53l-123 306h-579l-109 -257q-29 -69 -29 -101t40 -40q40 -9 132 -10v-68q-170 9 -260 9t-205 -9v68q79 0 99 6t36 22t40 66q24 51 137 295l250 564q41 93 175 414h65l427 -1003q104 -244 130 -292t50 -60q22 -11 101 -12v-68
q-156 10 -218 10l-322 -10v68q112 2 136 7q25 5 33 15t8 27zM790 1891q-62 0 -92 -41t-31 -108q1 -67 31 -108t92 -41t92 41t31 108q-1 67 -31 108t-92 41zM790 1947q102 1 164 -59t61 -146q1 -86 -61 -146t-164 -59q-102 -1 -164 59t-61 146q-1 86 61 146t164 59zM948 2403
q30 -1 52 -23q23 -22 23 -50q1 -28 -13 -46t-58 -46l-311 -189h-84l287 296q38 40 56 49t48 9z" />
    <glyph glyph-name="aringacute" unicode="&#x1fb;" 
d="M413 104q133 0 263 154v270q-276 -47 -352 -105q-22 -17 -44 -59t-22 -110t41 -108q41 -42 114 -42zM165 763q0 41 -1 66q126 83 198 108t168 25t173 -43q78 -43 110 -111t32 -165l-4 -183v-298q0 -76 27 -91q10 -6 42 -8l65 -6v-57q-82 7 -143 7t-161 -7l5 176
q-204 -154 -242 -174t-96 -19q-120 1 -188 65t-68 171q0 69 24 126q42 102 123 140q59 27 189 58t258 46q1 95 -23 148t-81 87q-58 34 -128 34t-114 -16t-55 -27l-18 -36q-27 -60 -40 -94l-53 14q1 23 1 64zM528 1421q-62 0 -92 -41t-31 -108q1 -67 31 -108t92 -41t92 41
t31 108q-1 67 -31 108t-92 41zM528 1477q102 1 164 -59t61 -146q1 -86 -61 -146t-164 -59q-102 -1 -164 59t-61 146q-1 86 61 146t164 59zM686 1930q30 0 52 -22q23 -22 23 -51q1 -29 -13 -47t-58 -45l-311 -189h-84l287 296q38 40 56 49t48 9z" />
    <glyph glyph-name="AEacute" unicode="&#x1fc;" horiz-adv-x="1933" 
d="M516 588h448l4 453q0 112 -4 301h-25q-84 -127 -423 -754zM1411 1335q-137 0 -255 -9q-11 -136 -11 -242v-306q89 -6 225 -6t170 9q36 9 42 23t12 71t11 77h64q-7 -125 -7 -212t7 -249h-65l-10 119q-5 46 -24 56q-41 23 -226 23q-17 0 -199 -6v-358q0 -128 4 -219
q201 -13 344 -13t237 37q19 57 51 216h66q-21 -179 -28 -333q-110 -13 -284 -13l-482 8q-63 0 -201 -8v46q59 26 94 52q7 34 8 61l7 167q3 51 3 99v77q-117 6 -261 6t-235 -6q-36 -60 -112 -201t-75 -169q-1 -28 27 -44t152 -19v-69q-139 7 -231 7t-229 -7v69q59 -1 81 7
q43 15 109 135l536 948q78 136 78 159t-20 29t-180 15v59q49 -1 222 -2l279 -4l455 9q119 0 229 -12q-26 -124 -38 -307h-63q-3 118 -12 188q-128 42 -265 42zM1380 1880q30 0 53 -22t23 -51t-14 -47t-57 -45l-311 -189h-84l287 296q39 40 57 49q16 9 46 9z" />
    <glyph glyph-name="aeacute" unicode="&#x1fd;" horiz-adv-x="1552" 
d="M374 106q62 0 108 16t90 54q44 36 71 75v237q-198 -6 -373 -90q-47 -65 -47 -133q1 -67 45 -113t106 -46zM1044 553q179 0 253 6q4 236 -109 308q-55 35 -140 35t-152 -59q-91 -80 -94 -284q63 -6 242 -6zM1410 79q-162 -102 -345 -102q-183 -1 -291 103q-46 44 -91 116
q-128 -92 -249 -196q-65 -22 -127 -22q-135 0 -199 77t-63 151q0 144 83 225q12 13 74 38q175 71 441 85q-2 302 -236 302q-85 0 -177 -43q-17 -30 -53 -124l-53 12v126l131 75q82 44 106 54t119 11q96 1 159 -31t127 -109q68 57 106 81q95 61 228 61q173 1 275 -101
t102 -276q0 -36 -5 -75q-49 -17 -139 -25t-384 -9h-147q18 -402 369 -402q124 0 260 91l18 -20zM918 1428q30 0 53 -22t23 -51t-14 -47t-57 -45l-311 -189h-84l287 296q39 40 57 49q16 9 46 9z" />
    <glyph glyph-name="Oslashacute" unicode="&#x1fe;" horiz-adv-x="1706" 
d="M1398 705q0 101 -16 175t-69 204l-859 -812q61 -74 110 -112q127 -100 317 -99q229 0 373 160t144 484zM304 759q0 -195 101 -408l860 809q-154 204 -438 204q-155 0 -277 -70t-184 -205t-62 -330zM98 713q0 323 214 529t568 207q151 -1 272 -41t240 -130l179 166l63 -55
l-181 -172q75 -91 115 -199t40 -260q0 -373 -265 -600q-220 -188 -527 -188t-498 175l-184 -174l-61 64l185 178q-160 219 -160 500zM1010 1905q30 -1 53 -23t23 -50t-14 -46t-57 -46l-311 -189h-84l287 296q39 40 57 49q16 9 46 9z" />
    <glyph glyph-name="oslashacute" unicode="&#x1ff;" horiz-adv-x="1139" 
d="M868 425q0 101 -40 249l-486 -474q98 -160 251 -160q75 0 139 40q136 86 136 345zM792 751q-92 151 -257 151t-235 -160q-36 -84 -36 -198q0 -116 45 -268zM77 449q1 159 65 278t184 179t260 61q182 0 318 -107l123 121l56 -54l-124 -123q53 -74 75 -141t22 -159
q0 -156 -65 -276t-191 -188t-275 -69q-94 1 -164 27t-138 84l-127 -122l-56 52l130 130q-93 148 -93 307zM718 1440q30 0 53 -22t23 -51t-14 -47t-57 -45l-311 -189h-84l287 296q39 40 57 49q16 9 46 9z" />
    <glyph glyph-name="Adblgrave" unicode="&#x200;" horiz-adv-x="1593" 
d="M500 561h505l-250 603zM1182 117q0 18 -14 53l-123 306h-579l-109 -257q-29 -69 -29 -101t40 -40q40 -9 132 -10v-68q-170 9 -260 9t-205 -9v68q79 0 99 6t36 22t40 66q24 51 137 295l250 564q41 93 175 414h65l427 -1003q104 -244 130 -292t50 -60q22 -11 101 -12v-68
q-156 10 -218 10l-322 -10v68q112 2 136 7q25 5 33 15t8 27zM392 1818q0 28 23 50t53 23q30 0 46 -9q18 -9 57 -49l287 -296h-84l-311 189q-43 28 -57 46t-14 46zM721 1818q0 28 23 50q22 22 52 23q30 0 48 -9t56 -49l287 -296h-84l-311 189q-44 28 -58 46t-13 46z" />
    <glyph glyph-name="adblgrave" unicode="&#x201;" 
d="M413 104q133 0 263 154v270q-276 -47 -352 -105q-22 -17 -44 -59t-22 -110t41 -108q41 -42 114 -42zM165 763q0 41 -1 66q126 83 198 108t168 25t173 -43q78 -43 110 -111t32 -165l-4 -183v-298q0 -76 27 -91q10 -6 42 -8l65 -6v-57q-82 7 -143 7t-161 -7l5 176
q-204 -154 -242 -174t-96 -19q-120 1 -188 65t-68 171q0 69 24 126q42 102 123 140q59 27 189 58t258 46q1 95 -23 148t-81 87q-58 34 -128 34t-114 -16t-55 -27l-18 -36q-27 -60 -40 -94l-53 14q1 23 1 64zM130 1348q0 28 23 50t53 23q30 0 46 -9q18 -9 57 -49l287 -296
h-84l-311 189q-43 28 -57 46t-14 46zM459 1348q0 28 23 50q22 22 52 23q30 0 48 -9t56 -49l287 -296h-84l-311 189q-44 28 -58 46t-13 46z" />
    <glyph glyph-name="Ainvertedbreve" unicode="&#x202;" horiz-adv-x="1593" 
d="M500 561h505l-250 603zM1182 117q0 18 -14 53l-123 306h-579l-109 -257q-29 -69 -29 -101t40 -40q40 -9 132 -10v-68q-170 9 -260 9t-205 -9v68q79 0 99 6t36 22t40 66q24 51 137 295l250 564q41 93 175 414h65l427 -1003q104 -244 130 -292t50 -60q22 -11 101 -12v-68
q-156 10 -218 10l-322 -10v68q112 2 136 7q25 5 33 15t8 27zM790 1728q-184 0 -225 -191h-68q8 160 88 241t207 81t208 -84t83 -238h-69q-16 91 -74 141t-150 50z" />
    <glyph glyph-name="ainvertedbreve" unicode="&#x203;" 
d="M413 104q133 0 263 154v270q-276 -47 -352 -105q-22 -17 -44 -59t-22 -110t41 -108q41 -42 114 -42zM165 763q0 41 -1 66q126 83 198 108t168 25t173 -43q78 -43 110 -111t32 -165l-4 -183v-298q0 -76 27 -91q10 -6 42 -8l65 -6v-57q-82 7 -143 7t-161 -7l5 176
q-204 -154 -242 -174t-96 -19q-120 1 -188 65t-68 171q0 69 24 126q42 102 123 140q59 27 189 58t258 46q1 95 -23 148t-81 87q-58 34 -128 34t-114 -16t-55 -27l-18 -36q-27 -60 -40 -94l-53 14q1 23 1 64zM528 1258q-184 0 -225 -191h-68q8 160 88 241t207 81t208 -84
t83 -238h-69q-16 91 -74 141t-150 50z" />
    <glyph glyph-name="Edblgrave" unicode="&#x204;" horiz-adv-x="1251" 
d="M249 431v511q-1 352 -15 374t-40 30t-144 11v64l285 -6l302 5q217 3 315 3t187 -11q-16 -56 -20 -82t-20 -225h-63q1 102 -13 186q-108 45 -345 45q-94 0 -226 -11q-4 -111 -6 -208l-4 -338q118 -6 226 -6q108 -1 166 7t67 20t16 82l6 70h60v-19l-5 -208l5 -233h-70
l-3 68q-2 74 -14 92t-56 28t-160 9q-116 0 -238 -5q-5 -100 -5 -291t5 -287q144 -11 297 -11t207 8t100 27q32 82 53 218h66q-26 -202 -26 -335q-86 -13 -209 -13l-597 8q-13 0 -262 -8v63q105 1 129 11t31 28q18 38 18 329zM209 1806q0 28 23 50q22 22 52 23q30 0 48 -9
t56 -49l287 -296h-84l-311 189q-44 28 -58 46t-13 46zM538 1806q0 28 23 50t53 23q30 0 46 -9q18 -9 57 -49l287 -296h-84l-311 189q-43 28 -57 46t-14 46z" />
    <glyph glyph-name="edblgrave" unicode="&#x205;" horiz-adv-x="981" 
d="M516 553q171 0 213 5q1 24 1 37q0 158 -64 232t-174 74t-179 -81t-70 -256q102 -11 273 -11zM610 81q103 0 258 91l16 -17l-32 -72q-68 -43 -108 -61q-105 -47 -233 -46q-127 0 -234 55t-167 165t-59 240q-1 132 31 224t66 130t96 80q145 98 274 98q130 0 220 -51
q174 -98 175 -338q0 -28 -4 -68q-134 -26 -345 -26h-321q5 -273 181 -362q84 -42 186 -42zM84 1354q0 28 23 50t53 23q30 0 46 -9q18 -9 57 -49l287 -296h-84l-311 189q-43 28 -57 46t-14 46zM413 1354q0 28 23 50q22 22 52 23q30 0 48 -9t56 -49l287 -296h-84l-311 189
q-44 28 -58 46t-13 46z" />
    <glyph glyph-name="Einvertedbreve" unicode="&#x206;" horiz-adv-x="1251" 
d="M249 431v511q-1 352 -15 374t-40 30t-144 11v64l285 -6l302 5q217 3 315 3t187 -11q-16 -56 -20 -82t-20 -225h-63q1 102 -13 186q-108 45 -345 45q-94 0 -226 -11q-4 -111 -6 -208l-4 -338q118 -6 226 -6q108 -1 166 7t67 20t16 82l6 70h60v-19l-5 -208l5 -233h-70
l-3 68q-2 74 -14 92t-56 28t-160 9q-116 0 -238 -5q-5 -100 -5 -291t5 -287q144 -11 297 -11t207 8t100 27q32 82 53 218h66q-26 -202 -26 -335q-86 -13 -209 -13l-597 8q-13 0 -262 -8v63q105 1 129 11t31 28q18 38 18 329zM607 1716q-184 0 -225 -191h-68q8 160 88 241
t207 81t208 -84t83 -238h-69q-17 91 -75 141t-149 50z" />
    <glyph glyph-name="einvertedbreve" unicode="&#x207;" horiz-adv-x="981" 
d="M516 553q171 0 213 5q1 24 1 37q0 158 -64 232t-174 74t-179 -81t-70 -256q102 -11 273 -11zM610 81q103 0 258 91l16 -17l-32 -72q-68 -43 -108 -61q-105 -47 -233 -46q-127 0 -234 55t-167 165t-59 240q-1 132 31 224t66 130t96 80q145 98 274 98q130 0 220 -51
q174 -98 175 -338q0 -28 -4 -68q-134 -26 -345 -26h-321q5 -273 181 -362q84 -42 186 -42zM482 1264q-184 0 -225 -191h-68q8 160 88 241t207 81t208 -84t83 -238h-69q-16 91 -74 141t-150 50z" />
    <glyph glyph-name="Idblgrave" unicode="&#x208;" horiz-adv-x="690" 
d="M246 942q0 352 -14 374t-40 30t-145 11v64q191 -7 293 -7t296 7v-64q-118 -3 -144 -11t-37 -26t-13 -66t-5 -312v-463q1 -351 15 -373q14 -24 40 -32t144 -10v-64q-213 8 -280 8l-309 -8v64q118 2 144 10t37 26t13 67t5 312v463zM-57 1804q0 28 23 50q22 22 52 23
q30 0 48 -9t56 -49l287 -296h-84l-311 189q-44 28 -58 46t-13 46zM272 1804q0 28 23 50t53 23q30 0 46 -9q18 -9 57 -49l287 -296h-84l-311 189q-43 28 -57 46t-14 46z" />
    <glyph glyph-name="idblgrave" unicode="&#x209;" horiz-adv-x="588" 
d="M41 823v57q194 22 326 84l22 -16q-8 -213 -8 -326v-182q5 -260 6 -296q2 -73 48 -84q6 -1 111 -3v-57q-152 7 -238 7t-267 -7v57l95 1q37 2 49 23q11 21 13 53t8 306v176q0 148 -8 170t-24 30t-133 7zM-105 1350q0 28 23 50q22 22 52 23q30 0 48 -9t56 -49l287 -296h-84
l-311 189q-44 28 -58 46t-13 46zM224 1350q0 28 23 50t53 23q30 0 46 -9q18 -9 57 -49l287 -296h-84l-311 189q-43 28 -57 46t-14 46z" />
    <glyph glyph-name="Iinvertedbreve" unicode="&#x20a;" horiz-adv-x="690" 
d="M246 942q0 352 -14 374t-40 30t-145 11v64q191 -7 293 -7t296 7v-64q-118 -3 -144 -11t-37 -26t-13 -66t-5 -312v-463q1 -351 15 -373q14 -24 40 -32t144 -10v-64q-213 8 -280 8l-309 -8v64q118 2 144 10t37 26t13 67t5 312v463zM341 1714q-184 0 -225 -191h-68
q8 160 88 241t207 81t208 -84t83 -238h-69q-17 91 -75 141t-149 50z" />
    <glyph glyph-name="iinvertedbreve" unicode="&#x20b;" horiz-adv-x="588" 
d="M41 823v57q194 22 326 84l22 -16q-8 -213 -8 -326v-182q5 -260 6 -296q2 -73 48 -84q6 -1 111 -3v-57q-152 7 -238 7t-267 -7v57l95 1q37 2 49 23q11 21 13 53t8 306v176q0 148 -8 170t-24 30t-133 7zM293 1260q-184 0 -225 -191h-68q8 160 88 241t207 81t208 -84
t83 -238h-69q-17 91 -75 141t-149 50z" />
    <glyph glyph-name="Odblgrave" unicode="&#x20c;" horiz-adv-x="1610" 
d="M834 62q161 0 280 78q236 156 236 550q0 509 -368 641q-96 34 -230 34t-254 -71q-120 -72 -180 -206t-61 -318t57 -326t136 -224q150 -158 384 -158zM49 710q0 325 214 532q214 208 558 208q165 0 300 -46q337 -116 419 -451q22 -92 22 -197q0 -337 -226 -561t-572 -224
q-157 0 -293 51q-136 52 -230 152t-143 244t-49 292zM407 1833q0 29 23 51q22 22 52 22t48 -9t56 -49l287 -296h-84l-311 189q-44 27 -58 45t-13 47zM736 1833q0 29 23 51t53 22t46 -9q18 -9 57 -49l287 -296h-84l-311 189q-43 27 -57 45t-14 47z" />
    <glyph glyph-name="odblgrave" unicode="&#x20d;" horiz-adv-x="1118" 
d="M257 534q0 -123 41 -250q40 -128 118 -186t182 -58t181 92q78 92 78 267q-1 175 -47 291q-85 210 -277 210q-123 0 -199 -89t-77 -277zM68 460q0 224 142 366t360 141q216 0 348 -132t132 -341q0 -146 -68 -267t-192 -189t-256 -69q-311 0 -420 258q-46 109 -46 233z
M161 1353q0 29 23 51q22 22 52 22t48 -9t56 -49l287 -296h-84l-311 189q-44 27 -58 45t-13 47zM490 1353q0 29 23 51t53 22t46 -9q18 -9 57 -49l287 -296h-84l-311 189q-43 27 -57 45t-14 47z" />
    <glyph glyph-name="Oinvertedbreve" unicode="&#x20e;" horiz-adv-x="1610" 
d="M834 62q161 0 280 78q236 156 236 550q0 509 -368 641q-96 34 -230 34t-254 -71q-120 -72 -180 -206t-61 -318t57 -326t136 -224q150 -158 384 -158zM49 710q0 325 214 532q214 208 558 208q165 0 300 -46q337 -116 419 -451q22 -92 22 -197q0 -337 -226 -561t-572 -224
q-157 0 -293 51q-136 52 -230 152t-143 244t-49 292zM805 1743q-184 0 -225 -191h-68q8 160 88 241t207 81t208 -84t83 -238h-69q-17 92 -75 142t-149 49z" />
    <glyph glyph-name="oinvertedbreve" unicode="&#x20f;" horiz-adv-x="1118" 
d="M257 534q0 -123 41 -250q40 -128 118 -186t182 -58t181 92q78 92 78 267q-1 175 -47 291q-85 210 -277 210q-123 0 -199 -89t-77 -277zM68 460q0 224 142 366t360 141q216 0 348 -132t132 -341q0 -146 -68 -267t-192 -189t-256 -69q-311 0 -420 258q-46 109 -46 233z
M559 1263q-184 0 -225 -191h-68q8 160 88 241t207 81t208 -84t83 -238h-69q-17 92 -75 142t-149 49z" />
    <glyph glyph-name="Rdblgrave" unicode="&#x210;" horiz-adv-x="1368" 
d="M1176 1115q0 -87 -45 -170q-90 -165 -353 -223q25 -35 118 -156l252 -332q108 -138 122 -150t25 -16q12 -4 63 -4v-64q-76 6 -134 6t-144 -6q-65 74 -184 244q-191 272 -384 494l10 30q52 -3 79 -3q182 0 276 86t94 218q0 133 -81 205t-245 72q-103 0 -202 -31
q-6 -86 -13 -392v-444q0 -351 14 -373q14 -24 41 -32q26 -8 144 -10v-64q-141 8 -249 8t-335 -8v64q118 2 144 10t37 26t13 67t5 312v463q0 352 -14 374t-40 30t-145 11v64q39 -1 119 -3l192 -5l358 10q190 0 278 -34q88 -35 136 -111t48 -163zM303 1806q0 28 23 50
q22 22 52 23q30 0 48 -9t56 -49l287 -296h-84l-311 189q-44 28 -58 46t-13 46zM632 1806q0 28 23 50t53 23q30 0 46 -9q18 -9 57 -49l287 -296h-84l-311 189q-43 28 -57 46t-14 46z" />
    <glyph glyph-name="rdblgrave" unicode="&#x211;" horiz-adv-x="809" 
d="M391 535v-103q0 -278 7 -307q8 -29 14 -37t28 -15t155 -16v-57q-176 7 -302 7t-246 -7v57q113 2 132 6t33 36t14 341v119q0 223 -9 238t-25 21t-131 4v57q202 28 295 73q20 10 27 10q15 0 15 -20q0 -7 -3 -42t-4 -163q45 52 83 103q38 52 62 72t62 36q39 16 81 15
q42 0 83 -18l6 -14q-15 -133 -17 -234h-45q-44 92 -126 92q-81 1 -135 -63t-54 -191zM9 1349q0 29 23 51q22 22 52 22t48 -9t56 -49l287 -296h-84l-311 189q-44 27 -58 45t-13 47zM338 1349q0 29 23 51t53 22t46 -9q18 -9 57 -49l287 -296h-84l-311 189q-43 27 -57 45
t-14 47z" />
    </font>
</defs>
</svg>
